<mxfile host="app.diagrams.net" agent="Mozilla/5.0 (Windows NT 10.0; Win64; x64; rv:131.0) Gecko/20100101 Firefox/131.0" version="24.7.14">
  <diagram name="Page-1" id="oDivPVaAfTsjB0-xvB2l">
    <mxGraphModel dx="1434" dy="774" grid="1" gridSize="10" guides="1" tooltips="1" connect="1" arrows="1" fold="1" page="1" pageScale="1" pageWidth="850" pageHeight="1100" math="0" shadow="0">
      <root>
        <mxCell id="0" />
        <mxCell id="1" parent="0" />
        <mxCell id="xF_vJ21wvkbPyiSj3SrR-1" value="" style="rounded=0;whiteSpace=wrap;html=1;" vertex="1" parent="1">
          <mxGeometry x="80" y="120" width="720" height="360" as="geometry" />
        </mxCell>
        <mxCell id="xF_vJ21wvkbPyiSj3SrR-4" value="Documents" style="rounded=0;whiteSpace=wrap;html=1;strokeColor=#c0c0c0;fontColor=#808080;" vertex="1" parent="1">
          <mxGeometry x="250" y="170" width="120" height="30" as="geometry" />
        </mxCell>
        <mxCell id="xF_vJ21wvkbPyiSj3SrR-5" value="Tablet Options" style="rounded=0;whiteSpace=wrap;html=1;strokeColor=#c0c0c0;fontColor=#808080;" vertex="1" parent="1">
          <mxGeometry x="370" y="170" width="120" height="30" as="geometry" />
        </mxCell>
        <mxCell id="xF_vJ21wvkbPyiSj3SrR-3" value="Videos" style="rounded=0;whiteSpace=wrap;html=1;" vertex="1" parent="1">
          <mxGeometry x="130" y="170" width="120" height="30" as="geometry" />
        </mxCell>
        <mxCell id="xF_vJ21wvkbPyiSj3SrR-12" value="" style="rounded=0;whiteSpace=wrap;html=1;" vertex="1" parent="1">
          <mxGeometry x="80" y="560" width="720" height="360" as="geometry" />
        </mxCell>
        <mxCell id="xF_vJ21wvkbPyiSj3SrR-15" value="Tablet Options" style="rounded=0;whiteSpace=wrap;html=1;strokeColor=#c0c0c0;fontColor=#808080;" vertex="1" parent="1">
          <mxGeometry x="370" y="610" width="120" height="30" as="geometry" />
        </mxCell>
        <mxCell id="xF_vJ21wvkbPyiSj3SrR-16" value="Videos" style="rounded=0;whiteSpace=wrap;html=1;fillColor=none;strokeColor=#c0c0c0;fontColor=#808080;" vertex="1" parent="1">
          <mxGeometry x="130" y="610" width="120" height="30" as="geometry" />
        </mxCell>
        <mxCell id="xF_vJ21wvkbPyiSj3SrR-14" value="Documents" style="rounded=0;whiteSpace=wrap;html=1;strokeColor=#000000;fontColor=#000000;" vertex="1" parent="1">
          <mxGeometry x="250" y="610" width="120" height="30" as="geometry" />
        </mxCell>
        <mxCell id="xF_vJ21wvkbPyiSj3SrR-13" value="" style="rounded=0;whiteSpace=wrap;html=1;" vertex="1" parent="1">
          <mxGeometry x="130" y="640" width="630" height="240" as="geometry" />
        </mxCell>
        <mxCell id="xF_vJ21wvkbPyiSj3SrR-23" value="" style="group" vertex="1" connectable="0" parent="1">
          <mxGeometry x="130" y="200" width="630" height="240" as="geometry" />
        </mxCell>
        <mxCell id="xF_vJ21wvkbPyiSj3SrR-2" value="" style="rounded=0;whiteSpace=wrap;html=1;" vertex="1" parent="xF_vJ21wvkbPyiSj3SrR-23">
          <mxGeometry width="630" height="240" as="geometry" />
        </mxCell>
        <mxCell id="xF_vJ21wvkbPyiSj3SrR-6" value="" style="rounded=1;whiteSpace=wrap;html=1;" vertex="1" parent="xF_vJ21wvkbPyiSj3SrR-23">
          <mxGeometry x="40" y="30" width="120" height="60" as="geometry" />
        </mxCell>
        <mxCell id="xF_vJ21wvkbPyiSj3SrR-7" value="" style="rounded=1;whiteSpace=wrap;html=1;" vertex="1" parent="xF_vJ21wvkbPyiSj3SrR-23">
          <mxGeometry x="200" y="30" width="120" height="60" as="geometry" />
        </mxCell>
        <mxCell id="xF_vJ21wvkbPyiSj3SrR-8" value="" style="rounded=1;whiteSpace=wrap;html=1;" vertex="1" parent="xF_vJ21wvkbPyiSj3SrR-23">
          <mxGeometry x="360" y="30" width="120" height="60" as="geometry" />
        </mxCell>
        <mxCell id="xF_vJ21wvkbPyiSj3SrR-9" value="Video 1" style="rounded=0;whiteSpace=wrap;html=1;strokeColor=none;" vertex="1" parent="xF_vJ21wvkbPyiSj3SrR-23">
          <mxGeometry x="65" y="95" width="70" height="20" as="geometry" />
        </mxCell>
        <mxCell id="xF_vJ21wvkbPyiSj3SrR-10" value="Video 2" style="rounded=0;whiteSpace=wrap;html=1;strokeColor=none;" vertex="1" parent="xF_vJ21wvkbPyiSj3SrR-23">
          <mxGeometry x="225" y="95" width="70" height="20" as="geometry" />
        </mxCell>
        <mxCell id="xF_vJ21wvkbPyiSj3SrR-11" value="Video 3" style="rounded=0;whiteSpace=wrap;html=1;strokeColor=none;" vertex="1" parent="xF_vJ21wvkbPyiSj3SrR-23">
          <mxGeometry x="385" y="95" width="70" height="20" as="geometry" />
        </mxCell>
        <mxCell id="xF_vJ21wvkbPyiSj3SrR-24" value="" style="rounded=1;whiteSpace=wrap;html=1;" vertex="1" parent="1">
          <mxGeometry x="160" y="660" width="120" height="60" as="geometry" />
        </mxCell>
        <mxCell id="xF_vJ21wvkbPyiSj3SrR-25" value="" style="rounded=1;whiteSpace=wrap;html=1;" vertex="1" parent="1">
          <mxGeometry x="320" y="660" width="120" height="60" as="geometry" />
        </mxCell>
        <mxCell id="xF_vJ21wvkbPyiSj3SrR-27" value="Doc 1" style="rounded=0;whiteSpace=wrap;html=1;strokeColor=none;" vertex="1" parent="1">
          <mxGeometry x="185" y="725" width="70" height="20" as="geometry" />
        </mxCell>
        <mxCell id="xF_vJ21wvkbPyiSj3SrR-28" value="Doc 2" style="rounded=0;whiteSpace=wrap;html=1;strokeColor=none;" vertex="1" parent="1">
          <mxGeometry x="345" y="725" width="70" height="20" as="geometry" />
        </mxCell>
        <mxCell id="xF_vJ21wvkbPyiSj3SrR-31" value="&lt;div align=&quot;left&quot;&gt;&lt;ul&gt;&lt;li&gt;FAQs&lt;/li&gt;&lt;/ul&gt;&lt;/div&gt;" style="rounded=0;whiteSpace=wrap;html=1;strokeColor=none;align=left;fontColor=#0000ff;" vertex="1" parent="1">
          <mxGeometry x="140" y="780" width="140" height="20" as="geometry" />
        </mxCell>
        <mxCell id="xF_vJ21wvkbPyiSj3SrR-32" value="" style="rounded=0;whiteSpace=wrap;html=1;" vertex="1" parent="1">
          <mxGeometry x="80" y="960" width="720" height="360" as="geometry" />
        </mxCell>
        <mxCell id="xF_vJ21wvkbPyiSj3SrR-34" value="Videos" style="rounded=0;whiteSpace=wrap;html=1;fillColor=none;strokeColor=#c0c0c0;fontColor=#808080;" vertex="1" parent="1">
          <mxGeometry x="130" y="1010" width="120" height="30" as="geometry" />
        </mxCell>
        <mxCell id="xF_vJ21wvkbPyiSj3SrR-35" value="Documents" style="rounded=0;whiteSpace=wrap;html=1;strokeColor=#c0c0c0;fontColor=#808080;" vertex="1" parent="1">
          <mxGeometry x="250" y="1010" width="120" height="30" as="geometry" />
        </mxCell>
        <mxCell id="xF_vJ21wvkbPyiSj3SrR-36" value="" style="rounded=0;whiteSpace=wrap;html=1;" vertex="1" parent="1">
          <mxGeometry x="130" y="1040" width="630" height="240" as="geometry" />
        </mxCell>
        <mxCell id="xF_vJ21wvkbPyiSj3SrR-33" value="Tablet Options" style="rounded=0;whiteSpace=wrap;html=1;strokeColor=#000000;fontColor=#000000;" vertex="1" parent="1">
          <mxGeometry x="370" y="1010" width="120" height="30" as="geometry" />
        </mxCell>
        <mxCell id="xF_vJ21wvkbPyiSj3SrR-42" value="" style="shape=image;verticalLabelPosition=bottom;labelBackgroundColor=default;verticalAlign=top;aspect=fixed;imageAspect=0;image=data:image/png,iVBORw0KGgoAAAANSUhEUgAABFsAAAIQCAYAAABe72GdAAAgAElEQVR4XuydeYCNZfvHvxk7I2QZJGYs2bNL2VIKochSCVnLkp3sa9nXEkoIUSIqQllea0Ik+zrIvmcdDOO9nnPOs5xznrPNnOHMme/54/frHc9zP/f9uffvfV3X/cRD+YE/EiABEiABEiABEiABEiABEiABEiABEiABvxB4gmKLXzgyERIgARIgARIgARIgARIgARIgARIgARKwEKDYwoZAAiRAAiRAAiRAAiRAAiRAAiRAAiRAAn4kQLHFjzCZFAmQAAmQAAmQAAmQAAmQAAmQAAmQAAlQbGEbIAESIAESIAESIAESIAESIAESIAESIAE/EqDY4keYTIoESIAESIAESIAESIAESIAESIAESIAEKLawDZAACZAACZAACZAACZAACZAACZAACZCAHwlQbPEjTCZFAiRAAiRAAiRAAiRAAiRAAiRAAiRAAhRb2AZIgARIgARIgARIgARIgARIgARIgARIwI8EKLb4ESaTIgESIAESIAESIAESIAESIAESIAESIAGKLWwDJEACJEACJEACJEACJEACJEACJEACJOBHAhRb/AiTSZEACZAACZAACZAACZAACZAACZAACZAAxRa2ARIgARIgARIgARIgARIgARIgARIgARLwIwGKLX6EyaRIgARIgARIgARIgARIgARIgARIgARIgGIL2wAJkAAJkAAJkAAJkAAJkAAJkAAJkAAJ+JEAxRY/wmRSJEACJPA4CERdOY0rUUDS0CzImi7Z48hC4H4z+jrOX7iB+0iFjDkyyv8Nol/UFZxWKj4kFFnC0iHuNR+N6+cu4MYDIFXGHMgYVLCCqN5ZFBJwJOBxLIjCwZ/H46u5a7Dh6FX7twu0w09zWyJ7gFLl/BagFcNskQAJeEWAYotXmPgQCQQhgfX9UKnLctzxumjZ0fjbJehU0OsXrA8eHo1q1SbjWMgrmHB0Gmp5/fphjKn6KqZGhuDlSUfwpfcvuvzC0jZ50fn3B0j1xtfYPfFlr3OiPxiNc9u+wZgh32DVgTO4GW37l2Rpkb1ANbQdMQj1C/tj02vMmsoBKNhzE5a0c1wSL8EHeTpitWyQUXUsjsyoF4tyBe8rR8ZURfVJx6SAOdFq+Xr0MrZftW2iELr98SvaOu02PLGPDbd1GFChK1ZEZUfDmYvQvZhniWT/hNpoNucM4LApUtsz8BJGH5+BurHJjl1Ts/VV+dvTH/6Ktb0KxTXFIHj/DGY2ro0pB1Ki/OBlmFjrSddl2j8eb7z3Lc6mqoExGz9BpQAo/ZnJr6PSqH1ARDusWNMDeQMgT48zC1EHf8LE4ZOwcMtx/BelDJryC0mF9BFlUb9Db3R649kEKci6HwsuY3GLl9BjzQ1z9M+0xpL1feDr1O6XevQ4BnN+8wtnJkICJPDYCFBseWzo+WESeMwEFrdA3i7/8ykTVcYfw9e+7uj2D0OVGtNwyucN4T6MqPQ6vv4XiNV3TUq2uEW4LDhjK0rIgrVNNfT6/SpsS3STL4Qg6xuT8MvE6njKJ7LuHtY5mG+AuRh1R8+t2KK1TRMhxpKoJ/axqeRFaJW7G9Yqe7zC3fH7r+2Ry10y1+T58vL8bXnIYVNEsSU2/H19x4c2oI2pfhK/fM2qyfP7R1RC7aknndqOH5JOYElEI3JWE7w1cAtcSA6W8oQ+1x2zF7ZHUc8aaECV3+1YsH0Ayr81BxcRirJdp2DwW7mR2pj7VBmR43GZsXkcgzm/BVRDY2ZIgAR8JkCxxWdkfIEEgoRA1EGs/vlvXDIW59wyjJmwAVeRARU690SNMOM/hqHMW1UQ4esiNCjElmjsHvEa6k89JkJLCNKXaoHhYzqgSrhixRKFKzt/w8SBAzD3H2UZH4LwDr9gZXd/WQV43uzRzNpNn3TnRuRxoe+Zve+jgS62yNYOtaZvx4SXXXeq7QPKotHsi9bPOJ5Ae3Qd8DV3dCNyJuZDG6DY4muDe3TPa31dEVSaYNDgzni1uNWtMOrK3/h92MfotfAwFGPFULF83CqWj75OdY+uMCZfcjMWaNZNOVpg8ab+KPpYM+rwcY9jsFI/dJMNpCpjXkiABHwjQLHFN158mgSCm4AXCx+fAQSD2HLtW7xbsj+2iklLqLjqrBJXHWfLlctY0KQSem8QE4SQchi843s0duNx4D1HHzZ73ifKJxUCHtt7fLA3ii2ShwKdsHpFZ3PrlsvfoFHZwdiumlI9TnP/RNtifGgDFFsCtpVs6VMSjedJrJIsb2PupuEo56SkiKA+9GXUnS5WQCiN/v8sQDO/jN+PH0lAWzd5HIMfPz/mgARIgATiQoBiS1zo8V0SCDYCXi58oq/vwbLJ07Fi3xHs3RuF7GXy4NnSTdGq8YvI6RhU00FsqX5yE+Z9NRsr//wLZ1IWRuHiFdGi3fsok81x9evZjSjKltaGnXuw7052lCpWApXfboG3yoQZTiVPYNP3m8WNCdj5TW8sOKBscBvi0/dL2GrPs8XOtVkNUGrgX/J8fnRc9xs6uvL70MoaIq5P+8Xlylam6Eis+3ErzqXJj1dql0Rqbxhc243ly/fiOs5g+ajPsfEKkKHSR+he0xZYxJaWIvr8u+l7bJY9QljZt1DZxPTIub6Konjl+mj8pkl94Rr2LFuOvddTI3+1OiiR+l/8MXca5qzfib2REvqhSHFUbNkeTe0YGzuCNa7NlOkbsHPPXtzJXhoRz5ZGkzbv4QWnxmHSgS7vwJKVh3A7W1nUqxzhdLp8bfcyrNh73UVZL+PvJStx6FY6FK5RE0WUzZLK0cBLTQMuLLlSP1sNtUsoZB022t0yYtusLzDDyKJpa7z7wjM+xHlQxZYQhIQ8wIMHqaWt/CFtxXFnF401nUqhzc835LkQeU4UF0ex5d9NmP+HVLwjK7u/50TU3l8xecZy7Nz1F65mKI0iJWugTac38axTAFyHulcVRTuGBXFJCbT542Zss/T98qhmbA/R53RGZ1Oi8POvuujfal3Z2pmZ353aFgx1Z2kxxvK9kBo7lTr5fTO2n0mFQuXKo26bLnhDLZxY8P08cSpW7NiNvRInp8yL9VyU3dVg7kexJcrWl/46gMhtZ5CycBHkLVRD+LyOwk6BrcXtZd2P2HZW7YdXsHPj7zh4Wcmn45hl7HNHlU6K4pVaoW2zMrg61tmN6PLfv2DVwdsu+pDaBlyMi2qdpCuM6jWLQm+1YhVla2cHDtnG4zwFUNpV/7Dr59JGj23Fui0noXjL6f3PWifa+CV1aKljGYNKvvUeWlfzPr6KVy6kZ75H64aj8U9UAbRdMhfN1RhOjnm1lHMRNm+xjm+u+5PapqJw8o9v8fVsfUwsUrIK3m5W32Te09th9Nlt+HHWPKxT5lnL2JsXBSq/i/frl0GY43TpNBbo897ZZaMwab0ITRkrokPPmsjm2NSd6tL2gNKXF87A9+sO4Mgea7vKW8hDvr1s496PwZ7nN3Ud8NfBo4b20QjvVykCp27lMB+oc7GyhohEHjfrERVaHOe3YFszsjwkQAIeCVBs8YiID5BAIiLghdhyeXFrvNZ9Ff4zC1ySLB8+/PFX+6CfWpoV0LznNSwctdvZZz4kA14esxJf1jXuuNyJLVHYMeINNJ5qNfu2/yluPl0w83vV797BksDpeVfxOvQH13QqLJte2QZ4tCz4E31LvoP5IozYxVeJDQOD2bt5C9TjQqgbCeeYLkqcguZoOGSTeX2FFkXHWfPRsaRx161zr9CyO24uGo+dVx0rWxi/Ogq/feVg4SOi0qwW9TFsg1lcm2TI23Q65g6p6D6ejVZus9PlM5jy+osYu1eMh54fiq3fv2fY7AmlM1+g9gtjsN94Mm1iWaWd9Lrq2lqgYcNGu0FrPLtqBlY7sfA1zoPaHnOiUdPsWDh7Cx6YtasTUpaq1rI0qnce8xeYxN1QLSkc39f+/hY6lvkTU3487dxPzPqqQVyyi5OkMXwOVV79Fxuc4haJ69yHi7Gs9WF0eKWnMyPT/q33S5cxmVxZiqh/z1EBL6fdgtUHHUeBUBGw/ocpeWag9luTccTxn03LHr9iS/Su0eZ5UT7rYfyr0LIdzs02lsM4ZrmOJRWS4UXUL3cM81dIcGVDG9Haf9mB2P7D+y76UAjKfrod8xzM8zSXFLt33cezSvZsO/ywtId9HBRDG21VYA1mGtuU1v9kY/tDO9TqbT7fJMtZFxN+GofXvAiQpY3hqWvgi38m4zVffISM/anEJnzx8znnuF2u2lTUdox48x187dRGrfVevNssfNeuqIOoLFY2kxuh+di/Xc6zreb/jF7GcdtpLPA07xnau8n4E73rC7zTzGzsV96TsfzD77C4Vyk7kdmXNu79GAwJ7muNteY8v13GxgHvoPVss3WA4M1WG+MWjcXrxoMcu7n4FhabMTbtj4rq54f5LREtJ1lUEiABKwGKLWwJJEACOgFPYou6AXwgm6t3J+OrXi9BwpbgupxKftO7LT77U2KWhNbGVzs+Q1V1MesgGiTLWR1tB7TBW4Wy4OK+hZgy4HOsPiub+RC5EWaN3AijWY24Flsui6XJC2Jp8iAkDC8PnYzhdUsgY9LrOLZ2Erp2nYbdSjZe/Qxrv6otGwn1BN2VZUtOlH/7RTzjph14dSpqeV/Ps93NQF4zCMeHS9egu3IthGoN48qyxXAa6WoxGr26I8q2XCLili3OzPBmKJQGuH1iGSZ8PBq/nZRdaIiIGlvFZF7bsBjKoBQpNC/e7DQIH9TIDZxYj2/Hjsb32xUxJURuR1ottyPpZj4nJr6Gl8cfknfKofecyXhXiYkgsQR2Lv4Y7fuvwnlpN2YbOHv0qmDlYB2kPKSJKcpGRcSmA3IDj2HTpFkgSeDZ9RJ41nIwbSK2REeuxaKt5+DKsiVd4RqoUVQ5s3dgkSwHXvtoEFq/VRCZL27DnDEjMXOjdePl/e09utjSavlU4AMlCHQISg3egvlaJUTjtw7F0X7pbWR+9zt8la4n6poFOfUktljAStDmCi3Qs3szlM58AQd+/ApDPl+B05bgFA591aPYYmkQyPPWRxj4QU1kviTtYeRwW6yiUKTPcBv/Xc+MlzsNRVthBLv+7eha5wexxVK8MLzQ+mN0bVLG4XsZkD71VfwnESoa9/kY71XKjIvrv8XoYXMs4wOyNMH8rUNQyuP47wfLlujV6FyyFZYq49LzfTBz8nsoLgFJLbFChnZDz8USC8rN+GfJYrJMKFy+JLJbIpvmQYORPVFVmuh+uW3rTblt64FsgHPUbI8BbeqjgKWeJ2PARKXP2Qpo3FD/2Rtl3v4eV036kCamKGhF9NgjLpN6F7uGWQ2LY+hW+5vRTsiNR6/KjUcPQsLRaOp0fFwlHOnEJu/Ytpno+8EEbFXK7RgHxS5AewhShZdAhWczWjKbukInjH2vEKIln5Ukn0pg16IfjsG4dsp8c19iZC1G77YDLPNGiNyy9JPcsuTpJh19LFQ24a9g0Ndjvb85ziGv6Uu9i+7d3kNFGfpOGNtUqNy4t1Fu3NPMfS4Lr3LCS/KpfHPKSLwpY2LS68ewdnIn9JyqHDyEym17G+S2Pd1G6NrS1qjSYZVt3H4X/ft/IH0XuPjXLIwbMQN/WOZLh3HbaSzQ5z2Xli1/S/3Ml/HaUWy5JkFpK8gNd1JvIRlK4O1B/dGmdBbJgHHMcxizfGzj3o/BrsUWrd1Z2v4gTOxbGYJJOH2JTwbNsx4SOLqNOczFofnrosOgD1HdVpfjRtnec+qPUtd+md88Djh8gARIIMgIUGwJsgplcUggTgQ8iC0XZOFdccjfSCJWBRvFqsDuQFGLa5Jagn7ulaCftpwYFjchEa2x8Lc+9iec0bK5flGsQS7A4UpmF2JL9Ap0eK4tVtx23KBavxe9ayiq1ZkhbkPOLj/eiyb2FL1/T9+MuBJbPDKoNQU7JlU3bHA8b/bMxZYT+Kx6FXwmblOpKo7A2jmN7OvLwD1z0wXYPKS0rdAGgSF1BQzfMAcN7CraEJvGbsPq/prky78NQ7/FJ/BM3WHo7eEoWo2v4HhFt+7OZdll27tqifuTuhHM12UtlneyiUDuYgZ5EheNYotsbnpvnIeWdu5uhitVU4twsU9ERo8d0Ci2rEfbAy1QQW4FizJuCtR82TZUZae5uFHGC7Hl6ZYSrLm//cm53kccxS8Xfc7Qh53Si96NT1+ug5lya5hsk1Fh1Hp809DQYC7Px/sVe2GjGIbZX13uD7HF/feU676b/7IafQ3Xa+tldxinXNabziRV+AsiCKR1XcNn/sbKXUowY4fbiP7ohdLvzseN7E0we90Qh3ghf2Fg2QaYK+OfPR9DPwx9CcN//xINHF0ttbFQxD639SxZsttQq4KmIwPD+GXpYg6C5jWJIfScxBCyG1svYOZbL+DT7UlESN0sljD2ZibX5r6Nsn3Fesuxf2gChgj3Lefjl/72VhKytdXGL0VwXD/seXvrD61dpUb1L3dikkdTFcVa5C00NVhWhqTKhRL164p42gQv2ILlmlauQWwxjdlliK1kHHuif2uHkh8sR5SToG2ZqfQYMXZxmwztzWzcNvQnu3Hb1VggX3IZs8XFO9rzvoz/sWrjSubU2wpdW5iazm8e2j60OnEY4wxjmem86Iov/De/eZwi+AAJkEBQEaDYElTVycKQQBwJeLHwcf0FTxs114tibXGXUYIX7pDghZaPuEhPrDWKirVGlMmprDVvuquJ/eZFPyGzE0K8QOa92OLiG65iuRi+bc7AnoMr6wnTxahmBZIBjb7fgU+fdy6o9k27Wyp07hlkk7NNNjlOP/VkHGKN9IdYI1lMSHTuqV77HFu/rOVDHBOHL6h1bNce1I1gBtR7tzh+nvc/JDcKU9GyeS/QDWsfOCza/SS2OAo/Wo5F3Ksk4t4Z2di3Wr4evTwdscNebOlVUOWtWgqlx9y3S2Hgnw8sVi3KJvOIq+t7PYotrgJ96ptq+3J56sNiebVSLK/y2dfX7qEvSmBRcVUJkZP9o3Ky71CdavsMEWuzg2JtZv35QWwx/V60BKrOL4Gq5RNi9bBCrB7y2uVHL2N4h9/l1jCHwjg1dgfrJi/GCyexxcM75mKp/t3sIqSsF8HM6af2E7t+aHwqWlwwCooLhnO8H9Wtxq6Pq2JKxrfQqPhPmL8mhZ2QES3trYgIg6Zub67K6Kr/aQKGCLqHRdB1dOvRxi/X/Uotg8u+aZKnqIM/YeLwCZi74QSijN6RiuVQnTb4uLNJbCktr67yYuBscK9S8+dsIWTLmFZGwzjqzbg9oTaazZGYPzXGYf0nla2J+U1s0cdxl+P//vF4471vcTZVDYzZ+AkqedEnXLoCebHmMH1Xa/uuxjhDnYhotV8OGyxNTPue63lRC6ZstJD05/zmBS8+QgIkEDwEKLYET12yJCQQdwJeLHzUj0RfP4fje7Zix/492LrtBE4f3SpB/P6zLGDN4z24ueFBWzgZT4TNN376NZbvYPoP7R02Utbc/dajAob9IXs/u83doxBbDBs9Le6AcYFnFCccqsuUgfJMLC1bNBHAxWbGuEC3O4nXv+coVmk5dtFOdLNu8XrIXASvN2mNetUroER+6xWrXv+0U0vDgljbCIogt6UMpinCSgpD/AWVn6NJvJ/EFtduQl6IBnYFdxRb5IxbPQEXt54vJqfBoCbiOmG40crXk2lt4+XG2sZcQPQktjhYbKjlcrPRs+xvVLHI2Cf8Iba4iKFk/j29ElzHgDBroX6wbDEmq1zRe3AHNh7Yi31r9+HE6T3YeeAMbopbl30bM8ROGnVIrIWcg4xoll5urvR11Xa0NmcQNNX0lE32H2W+sggrRkFTFQ9c9wXl6vBj2LNtBw7s3YJtx08h8s+9OP5flLg5ObQdLe6Oi+uItfGwPPpsGo3XTKrmyBcN0XKeiHymopqH0UZxb9w4B4unLcHPfx+18Lf+xGWp51z8YIyjoubVTX/S5iWtTeqiRfZ3Z+K79mai3nJ8/OKn+FOs9F6edERcieTz3ozbZkXzm9gilmoviqXaaYiVmnm78ziOe93GjXOjb5Yt0T80EUuwjYCvbV+bD1zPxa76jN/mN48A+QAJkEAwEaDYEky1ybKQQFwJeBRbJGDh2tHo0utb7DinLKD1X0iqtEh+76YbscXFRs2yG1NNiT2LLR4D6xkZ2G3uHoXY4ilmi68MlMLEUmzx5hpa02fcBSa2wXXZTiRw8bS26DJqnTUmiPoLSYUsharjozGf4h3nK3BMWq1+Kqlu7FR3hOQS+2H3xEq2E/sUmsua6Um9y7blqRxqljyz98pCw66EzmKL0WVCvXnI6CIQa7HFTUBnii3extnxpg3YKthNn4s6OA/dOwzHmsM37YMVJ0uLtLjpVmxxFUDYmyt9XT7jZAl2zWZRZetTlWyWYilU9ziJO1NI4s7cNrEIkFtr1o7tiD6zduCCnbmIxGJJmxz3broRW1y1Ubs4KR4mNo+Byz28H30de5eNwUA1zocILrWmbxdXWJvA5UFMtKTu9IxvFlFaHXszbpsVx29ii6/isZ4Z39u4ce73TWyJddt3J76r04IrS0L4a36L60KN75MACSQkAhRbElJtMa8kEN8E3Iot4mM+4jXUn2oLxli2Ed5qUh01SuZB1ixhcsWip1NxNxYW2mmeD2JL6twoXym/bFRc/VKjYON+6FhRjyHgizuQMdWlbfKi8+8iLXk8QdVPBe1M/71Y4Oknmo6CjOfNnulJvQRZfFaCLDqdKBsL5nexxZa4bF6ObVuLJcsXYvXKv3BAE+ast8R8bXfrlHn9aS4LFlPu9/A/i2uNLq6o/24VX9LYboEy2QgmAMsWhYAxgCdSSxvYLMF/bTEzKba4sIp4xJYtHoMgu9goX5a/vyJWIpZA1QVeQf0G9VG9ekE8kzEHJE6ui9tWPIuesd5wWrqcLmhaLNgar8G7JftjqyauqP9u63NpbEF17Vz7lGR2Y8RrdfF1pIyPEkC69NsN0LhGDZSMCEOWsHRI5smNyKPYkhmFq5ewBrt28ctS9WP0a+h8TbzP06Wr+GFeiC2apYVWHh8sotIUlCDOnVFBmaq8GbfjVWyR4Lh5JDiuo4WqB5ixa+OxF1uOSGDo6hIY2t0Ngab9w4u52GO/8sP85nPb5AskQAIJlgDFlgRbdcw4CcQDAXdii+ZL7mrDrJ58unIjyi7BKjdJsErnfGsLVbsYDOabDe1Zx0W/FzhiK7ZoCzuXcWJsHz8xATUqT5RQepDbZXbK7TLqbtlzEECtXI7m9rG1bNHq0jzOhmW7pZpie8HdDq9HCyj7yoi+vgVTxKXos3/kegtv600Lxinm3utaYntVxW3IEIRWDcis/O3HMAypMQ2nzMz8E4jYoli3THujGkb+E4PwDhLUtnshDWJiFVtc9olYuS3pbTK2bkSxE1vUcdF2PXYvx2t+dXcTV25EHq/GdhErRymxFn/CRNQw3t61utV2vKq4DVnES2t0c6M12Q/ZBqO23IjlGB9Fc5+RIL6j14pA6HgNsyv3SE8ChibAu3E/9WLMtxZkCTq9Pgib5WaqTnO/QWP9AjWnFEznCDWvbsZ/LW6Rxll3KXUZ+8Qs/96M2+LCe+HGAyQNzYKs6Txb3/g2fngR00jEhvMXbuB+SKhVUENs23jsxRbNkshN29fqxHhI4g+xxaHeYjW/edt2+RwJkECCJ0CxJcFXIQtAAn4k4G4T7eHETb+m05XYAtjfeqPmW7/mFnYB6Vyc7GqiT2YJ/LpJAr86xjIQV6dty7HuaGoUf+MVGL1WNAsVY8A8b/BtH4Dyb82RK0jNb/2wJhEtG5sX0Xie8pTDTUjG21w+/BVre+kbafVd9apfewbKv+q3ILgKlGl+W4MaMBZ4rt9f+LGV4y7IR+5GTqbtRInXcMFylal1Ae7w29AdJZv8KBfCunGlsntFD+L6XNnS2LP1L7uNoOygbG4P6VChYmZs3HAIqZxucjIu5k2+e3g0qlWbjGNybm4uBHq2KvKPG5H7RujbZknS8rSRtTwSLoFT5T/sXO08Waf5M2aL3q7NN6OG9ukq3kdCsGzR2pgLNwnDTTY+iy1a2i6CjxssNUwtADRB8zmUKrsH27fqlmOWFqkKmk9WQIUsGyXOjPN3tDHVwWXTeUz0zToJhg28/bXoel+JOrgKv/x9GxGVa6CM401Nxi6lldPd+K28oN8MZScqaRZLqcUy7w+xzNOvabZ+xnDzm0Gs0oQox+uHtanvHLatWIvIlCVQp9qz1rhWmnuX401h6kv6t+xikvnNjUi3eAqRWwe3yq2DTqVVr0BWhY5Yt3FlevM0Bruw/DIEuq03ZwtGVXSccczrxNxl2X78NR9v/T2/uR/z+a8kQALBQ4BiS/DUJUtCAnEn4E5s0RZFJpYtlzegb4PmmK+YksvPPECu/ENIOBpNn4dBVcJsm3ERRn74ADV6Wk3sy366Xa4OVZd2rszo1U32A4REtMB3v/ZHSS36qvhUT2yEluN3Wzb9b87ehTGGqxK0xa/pNb7u8F2Wa4XLYehWpXwSQPHDiZjS7SWEqeu7qH+xcngrdJx92BKPIVQC866VW1e0RapBbPHEoGDP1VjSzv7oVY1Hgixv4Zt1Y1DBIdqs+Ul9NNZ0KoU2P4s1SWg59P95DppFqBmODXcDH7N2YrR8GvU7pjRU69iyg9CvOfX6imS532jy66g0ap/tw84bPe1aWcsTjldB215ze5KpW2NlbjAba0ZXdAjkS7HFQtHTaXAsLU22DyiLRrNFnJRxofmCX8UVTG3Y0Yic1QRvDdwi/Vj5+bZRj68AubGzbFHdMkwsW6IjMavJmxj6p7WUPostssmf8vrLGLtXxsJstTFu0Vi8rooOEkdlwQevovcaa9rm7ha6VY3lmdSGgNOWP+hjrbWLOVwFLX/SrP5MLFsub+iNt9//Hscs04Jvdai8obUPp6uvZfxa2g1vdVqC8w9CULTPekCpQzMAACAASURBVCxu487R6BqWtqkorqAKC2X8HoPPOr2KnIZxNPr6Hsxu3xSjNlwV10sHId8YP0bG0t4LZ6KlpuLLnDP0dbwzXXGvdYj1oopVkken662jtuOzt5tbrf1C62LG7nG2W33cj9t6v3CYL/0mthhdGkNRdvBPmNVMd9GKjvwGzd4YjK2SbV2MiW0bV2rZ0xjsys3O0PYj3sb0BcOtbliWn7FOMqPxj1sxuJTtnzyNZfKYqdgSD/Obmlv+fxIggeAmQLEluOuXpSMB3wi4dQ8xLliTIVPR51Eih6xWrxzExu1yjaYsNENT3MCN267EFvn3UPn3GxI0Mf2TSBUiWbt7A1ds10CEiKnvT3JNq35zrpuYBZfFaqOKuJUoa2clTsDLhZFB/vPq3v/hr5OK3CGL26bfYuGQ5+1P5cSc/IMK4o9u239Y4RhugnBHS775wSs9sfqqLSywBH1Nnz4VkuAeblzWg16GOC38lNWb7kYUHnEGxyLhgkFrLPytD4o6HtLtl9O/WmKBYYxIDN09yKVbhJS3fZUu+M2SZ73Orh7cgL+PWQMch8qJ9KoZ9aDbvXiOFWEsj37dsTGmj9RxeAlUeDajhaj+vWSyMVopGyM3dvzGOjC4ZTlvBOVBw4m12UbQkpSHxfV+8f1/U3z/7dBqZucUW7xh6MmSxqX4YdcfnceF0IhwJI08hqs+btQDS2yRJqi1MUO/uH0Gf2/eg0vR6rgYG7FFNsa7hqFm3WnWsUEbk4CY29cglwAhPCK7jDcnXca2OKFaKcjrZpZhmquRkryMFXtkrLAbnox1qFyfXL4ksqfW+7wM+kh+44bMD76LLXbxYEIy4NkXy+AZSTvq+DZsPqCIIjJ+ifXFz2J98YynmU5iy4yp9RamHlQjdydD2qckb8p7hnlIGSfzdvgRS7ob3L1UISNjOMKjj+HYDf1dK2fr6OE8lgJ6LBNJOWdpVCmsjIlXsG/1X9Yg4iI0Np67GIOfN9iPGOc3yU/afM+hfB4gcuM/OGqbL52+5UexRXItXfolsXyzTpTJ0ubBcxUkA0f/wD9qgGcHcS12bdxaae7HYFdii/LieFSv8xmOWDimQq5SFZE/YxTObP8Tey/a1gEfLsYyo+tebMUW5cBAi1nnp/nNU5vlv5MACQQFAYotQVGNLAQJ+ImAZr3iIs6H5daJdug+7W/8p+1OlYVHNQyY/hFOtHodUyMdxAs1TcXkeGtT7GnXFbO2XDLcyJEMOWoOxUyxSNEMLyzFUd0MzMWQ6LP/w9jOPR3Ssl053GMihrsImBgdOR+dP/jEcCuIl2KLkqWog/iuX3dM/EXZJNkzD0mVFSWbDcd4o8WL+ohxgbe/PU6+/yGmeMVA/8blDcPQoYfxFii9jlRT/vAOv0usD4crRpU8d/sAw34TQcyoKMjGqEzLUSb5dc/dkqMzX6FuxeHY/cCxnUTh4Ly+6Dl+qW2xq+c/WeYyaDb6M3TTrJq8abP66WWomOdvlVgS9jrUNfzQpAz6bIhGMnEN+3NOIyeTd81M3aVv/2VsHNEWPY03qWhii87C9em5eqrrbEllXkL1edexdBzf06wHHAM0q6593v7dkPD6bsXQ4kexJ7O7Ht1F3Rv78NFpUG6otfu5yoftITX/jlexK/8cfXYper/bE0ts4p/lFWXj9OYozG21H01qiMjoWHdx+J6SvNv+4lRp3rQB20vru6JE08W44dTWlH7RFW0GrrC7pcvSJ8ZNQZE55SwBuO37rxf90PbZqB3T0L7TaKy3CM22n9K/O0zFjDxTUVwJlO0quPeJL1C76hjsf+BglaGmc20+mpXuhU3RyfDiyG2Y1cjRqUSpQxmLO3TDzO1WAUSrw9cGYtpH/+KDWNShVg4X41dIqlx48cOhGN2pokEo9jCmyPy1bdZg9JuwWhMtDMBE1HgBLfqOQFvHMcogZCyeXwyznNprBhRvPRFf9jLLi+0Gvx7fYJtFANAqSA4saqHbxJFoYD/xWR8Qa9HPuvXHtA3247bLecZNnzjzVR28NGw34OgW5LYfybg4sRsGTt2IE8aJQ7lZrvR7GDahB6rYuW7Fpo2rLNyNwe77q6t1gNI+Xun/Jca8a3PPUj/laSyT51Rezn3G3/Obh/bKfyYBEggKAhRbgqIaWQgSeMQE1AB58lm7IH3eZiPqCk5fkWNX+aWy3cjh7atOzxnSilVeYvnhqCunYSuCUgjkUK4VcfUzO03zJwNvymCoM2iBDb15MXbPGPk8ynqJXW751uMmEG0L+qlYmoVabjd73DmKj+9H4crpK2LlYRn43I8Zsfi83udSIWOOjA4ucbFI0MdX4rUOjeOXH9jpebVUhnteJlYjsSmrXj8+tPFHPG47V7ktVolFRfMm3/Hbxl02ScN8Gh99y/G7nN98HBz4OAkkYgIUWxJx5bPoJEACj4iAF6bLjygn/AwJkAAJkIAvBLwIOO1LcnyWBEiABEgg8RCg2JJ46polJQESeFwEKLY8LvL8LgmQAAnEjQDFlrjx49skQAIkkIgJUGxJxJXPopMACTwiAhRbHhFofoYESIAE/EyAYoufgTI5EiABEkg8BCi2JJ66ZklJgAQeF4FrqzHm4x9wNE0FdBzbxHDj0uPKEL9LAiRAAiTgFYH9cySQ7UbcztMQI3q87ByE26tE+BAJkAAJkEBiJECxJTHWOstMAiRAAiRAAiRAAiRAAiRAAiRAAiQQbwQotsQbWiZMAiRAAiRAAiRAAiRAAiRAAiRAAiSQGAlQbEmMtc4ykwAJkAAJkAAJkAAJkAAJkAAJkAAJxBsBii3xhpYJkwAJkAAJkAAJkAAJkAAJkAAJkAAJJEYCFFsSY62zzCRAAiRAAiRAAiRAAiRAAiRAAiRAAvFGgGJLvKFlwiRAAiRAAiRAAiRAAiRAAiRAAiRAAomRAMWWxFjrLDMJkAAJkAAJkAAJkAAJkAAJkAAJkEC8EaDYEm9omTAJkAAJkAAJkAAJkAAJkAAJkAAJkEBiJECxJTHWOstMAiRAAiRAAiRAAiRAAiRAAiRAAiQQbwQotsQbWiZMAiRAAiRAAiRAAiRAAiRAAiRAAiSQGAlQbEmMtc4ykwAJkAAJkAAJkAAJkAAJkAAJkAAJxBsBii3xhpYJkwAJkAAJkAAJkAAJkAAJkAAJkAAJJEYCFFsSY62zzCRAAiRAAiRAAiRAAiRAAiRAAiRAAvFGgGJLvKFlwiRAAiRAAiRAAiRAAiRAAiRAAiRAAomRAMWWxFjrLDMJkAAJkAAJkAAJkAAJkAAJkAAJkEC8EYiT2BIZGRlvGWPCJEACJEACJEACJEACJEACJEACJEACJPAoCERERPj1M3ESW9YWL+/XzDAxEiABEiABEiABEiABEiABEiABEiABEnjUBKrs3OzXT1Js8StOJkYCJEACJEACJEACJEACJEACJEACJJDQCFBsSWg1xvySAAmQAAmQAAmQAAmQAAmQAAmQAAkENAGKLQFdPcwcCZAACZAACZAACZAACZAACZAACZBAQiNAsSWh1RjzSwIkQAIkQAIkQAIkQAIkQAIkQAIkENAEKLYEdPUwcyRAAiRAAiRAAiRAAiRAAiRAAiRAAgmNAMWWhFZjzC8JkAAJkAAJkAAJkAAJkAAJkAAJkEBAE6DYEtDVw8yRAAmQAAmQAAmQAAmQAAmQAAmQAAkkNAIUWxJajTG/JEACJEACJEACJEACJEACJEACJEACAU2AYktAVw8zRwIkQAIkQAIkQAIkQAIkQAIkQAIkkNAIUGxJaDXG/JIACZAACZAACZAACZAACZAACZAACQQ0AYotAV09zBwJkAAJkAAJkAAJkAAJkAAJkAAJkEBCI0CxJaHVGPNLAiRAAiRAAiRAAiRAAiRAAiRAAiQQ0AQotgR09TBzJEACJEACJEACJEACJEACJEACJEACCY0AxZaEVmPMLwmQAAmQAAmQAAmYEEhR6CVkqRCGqJXf4dIxfyKqiSKr+iNTJklz31ysfXeSPxNnWkFLIBeerP8y0kf/gXM/H8BdH8oZNm4pClR9St44gJPFm+OoD+/6/qj37fvR5sv3kiTcNzqg1M7GCJUC3FszFH90XZZwi+JFzlOXeBOZy9zHlV+W4sY5L17QHvG+rfqSKp+NPwIJTmzRBzkdysOoq7iz53dE9p+Aiz412PgDy5RJwB2B1DXbI6JJNaSPyIykKZLIo/fx4Mp53PhtGg6N/A23jS+HlcMzPTvi6fLPIHmqpPqz6+bi+ODF+I+oHymBPPM2I2ch2ycjf8L2eiNxw66+WqHEzy3xZArrHxPDoiFWFVB7BF4YWhnJcRmX+tfCniWGVLrMRJVmBeQPxn/TF2LakzH3cP/CaVz/3ywccew3WvqGdO9H4d7Zo7j609eInL7Fp4V/rMr42F7Kiowt2yG8wYtIkyUNksgQ8/DuLdw7vQtXvpuNgwt2Prac8cM+EvCpHVdD4d+HIHMWqe/ds7GuyRQfP+bucS7w/QjTNCm7ucXyRAxibl3ErfULcLT33IQ513/0NSq3LIwncBEXe9fB3uXeU/QoamjzhOs0b8wqj+3jvfmm9+3bY768+VwCeebRtslgEVv0crhuf21RckdTpJO5+e7KAdjcY6UPLcL7tupDonw0HgkEhdii8nkgpy275bSFm894bDFMOs4E0nf5GkWaFEZSRWMx+dm344KImPMFnimayvnJa3/gcOVuOB3nHDEBXwjYLT5i5MStppy4GUXe1lNQqX1xqNVLscUFXX+ILYakH55bg0Pv98VZtS7MNqna8zG4v/s77GkSjPNFVmQbNw35q2aWDY7jLwa35rfCtuH7fWnyfPZxEvCpHct8Mftz5CyWAg82fYWN7ef4Medc4PsRpmlSzhtb9bEY3F0zEju6/uKbQBxmE/6PPgJLJFffqj0Ezw+shhQPInGuW2Mc3Og9RY+iRgIUW1J8+CXKfVgMt7wWgbznFR9P+r1Nus1kYhJbaqLQit7IkkXm5J96YduQzT5UH8diH2AFxKMJV2y5tA4HXumFc8qp/+D+iCinmBr6rpwHRC0wE4mHQGGZTGaImaRi9RAVibNjR+Hkwn/woFAtPNO7PbIXTS8bJBl8F7bHtk/k9DmsM0qvaIS08vi9jaOxs8MiebYsnnq1HjI+sQx7xq9PPOwCpKTq4uNhTAyeSHIf16Y2xN9Tz2u5yzV9HcJLyZnk3eRIIvVMscX/Yot2WhReETnbfIjcNSIQIp95sP0rbG0507ohMRFzUkg/y9GtDXKWUoSIGEQt6Y0t/YOrD6VoPAGle5RDMoXHkSU4PGA6zu1LKab8tZCzTnbc6NkXJ2gBGiCjiRfZCJh2zAW+F7UVp0e0ja3qphX+GgqM7YOwiOQyoezFvyVbIdKHL6gb+ySPwO0rPr7lUWwxsnAn3nvFzPv27VO+7L6dFbm/+QG5iyeH9xY3XmU+3h7yd5t0n9HEJLbEpcq8b6tx+Qrf9R+BhC+22C2qYRvA1IZ4FZeGNMflEuOQRxbjSe9swZEKnXFK3klRrTMKdqyOdDmetJpYR53HzbXOppqOz0HM0O8eXoZj74yBZb1aqjEKdm+ATPmyIkQ8PB7evYbbm+bh6KjZuGJb0KZvNhh53qmItGGpLCeNFrenw3/i9MghOLU3KzL3ELGoVlGkfDK5ZQOgmI1G/b0KxzpMwiVLXRdHzuGd8XSVPEihuJGI6Xz06d04/9lQHFmpbvLUQeowTlUfh/tDh+KZUpmQ5LiJm4P/2g9T8pFAaL95KFU/XN6657RJB+qj6LpueOpJ+edTy7Gr1hBc0RYQZs/7+HE+7hcC6uLj1pFIpM4bgYeywV8vG3zrrxGKbeyMjKkP4MbhAgh91lFsMenLxzbj5Jjx+HeztS+rC7l7a0fj8OkayFu/EFKIq5kyRt1Y9BkO7CyGAt3qIFQZT5Sx4NhqRLYfolt0wHFMERe1c0dx6bsJ2D9LdR9xPV4cPfi8jJdhkpPTONehPg6oJ5Gaxc49/PdFZeycFkeccbBssV+oZsXTU2Yjb/l0kqFjONP4XRzaK//pMv3iyL/oC2SPkIH/pj4nxLE0AfJ6VuSZt0jc3BTb5F04/sYHOO5KWAmrivCeTRFWRtwTQ9W5yXEeNLSTtr8hZfdmeCpPqK3dbca/w74HGvfAMy/mRjJbG702axB2TjW4KXmcIz3M117lM0Dwx0c2fGrH5otw92sQ9Z0YWT91xeVC/axrBxGS7x9dg8juA3HGEvvFPO0U1T5AvhY1kD73U0iqurkaxxvV4kGE5xi7sbI8Ciwdh7CnDfNdfPBLQGk6bWyVvJu6VHpaEypzwCfI16gIkiuex9rP6JYZi7moXgHLGvTh3Uu4uXwm9g9aJC7PHr6V18wltDiyD2yFnJUlvfSqm+M13Nm1wi4cgE+ihluxxZvv6e374e6fcOJOBRf9QJ+jHWPJmO0rbvw0BQcUF1cZx/KO6oYcxTLaWxyqB8cB2k69a5MuRBKTtquvb4Zj+/riKNa5GtKku4Mro6th11w9nVuLJ+FGsSbIEq7s0ZQ1zD842bcDjm/XQbnfn3lT54D7sVH5ltl66gDOffYJDi874aLWvHEjMmGm8jo4H7uWhSFPi/JIrewL799A1J+LcPiTqbZ9pdlYLBatQz9H3to55eApyjKWbx9Pd+FA6VbBIbbUG4UXBlQU3/8YXJ/+InZ8rjfEOydPI0XOHNbBTR3UXuqLcqNrwbIucPg9ED/nneLnbInBUPtTlB9cFZaQGobfwyMLsaP+WNwIa47ii9sgvXh4KP7wD+4BSdJYJw4tnQryrc/kWxZB5yYe3H/C+swNmwtI80mo2KmUdA5FZLmNmJgQhMjCF+o3pKPnmjYXucukcTYJjxFLnoHiA2uJdaB23JuIOhmDVDmVjYf8HsGJRqA05oSQj4g5m8QlSNkI7cSxcm3hOFRnm7AMz1bJIEVRRLOmOHJO2tgWaWMWS5iTuDx/Oo5OcIjpkhAKHkR5VBcfNxb+hCT130Qa44ZdrAoqiFVBiPS702iMpyW2i27ZIn15+ndi9SL9W4k1cksGjOSprTF7ouTUspWcWopIoC0w79/Hw6RJHfq9/O2+/M1h7IreOBabOiy0UM406AcUfjOniQtJlIyP7WV8VFxI3IwXkzOi3KQaUBzXopZ0FcsPq3mr1WJHTlj9JVD4TWyRzNm4J9XmAGX8dh0TRhc9g80aUh8v7m+egI1t57vpeeo8KQvZG3fwMElyhKSxCv66xY/aTmKk3UHanf1k+FDaKBzbaEwkTjdpjMOK4OXNHGnYxJvO19q/u8tnEA0wjkXxqR2bLMI9rUEM/M3q86HEpfpH4lL950Js0fqZHETdj3qgj2kxItZ2E7H2f4axwzjvVRigjTO3FrYQS066tpltbFP0mI3yjfNJq1DHKm/WhNVQ8KeeyPR0WsshoHJIaKkbXMHlYY2wf7k/5iL1AKiY+28VMBNbCoooPFVEYRmxDeteZZ1utE70n9jizfcMYovJuKb3Axdiy0vSnsfKvKmt9a1reWU8vbvyU2xeUxpl+1RBKk3YVvYDUuDLG3DozSG4EKBDmHdt0nexBWdOIyosh4WXHptNT0cZi56QucX4eyiHkHvlENJyCO1pfwYv6tzj2CjrqaELUbi2soe0zT9JU1pFZbv9l2PlxVFsiZF1HmSd57D3vLP8Y/zZW7HEdR7n04tQU1Ti3FFoCcyOlODFlqtiFp57SFdky6tsDdRTTUNDlIHu/rE/cWbuIlz77z7urTqOp2xmfIg6gFNde+GI7CUyDhyPonXDpUNdx+Xhr2H3fN3cT0xZcLpzDxyWk2fFDD1T/qM4/dN+ZBq+GEWUE2DDCaJuwm07FS6jTjRXZZJrjt0/yOl1WAFkLpASF9fu1DdWOILTdZvgsHKCJKbxmcMO4aJy0v3SYDw//lWkVAbstWPxT2c5SQhvjOe+6YAMYgGhCT/a5klpaFLOXctx8rt1uBd1C+flO/wFBgFt4nJxmqFvAvUTKMcYLw+vR+LyrM9wOKgDfAZGfZnlQq3Duysn42rBdnIyq9dVjkm/IV+FtBIX4zNEvdzZcnOHJrZofdlgpRQmljDzxRJG+rIqbOgLTN1PXxETVNcQXPsLR9//CCej6qDIt72tt4NcWIN9r/bFBcMp8oN987G36wRZXpfDs5PHIZtiyaHF+TEGm3UcL+4i38KvkSOvPK9aWKkWO+LPZhR24lRLbmNRqCmbB8h1MsE2pKVt3LwSc27aTtTiVJIAetk3M+zQarWQ4shS2601hjlPq3dDO5H58mQHiU+03WAZpLg8Lu6KXYO3IJVsCovJpjCJQfDyao7c6G6+3mI5+PCczwCqAn9nxad2bCK2aKfL5msQu4W7ttaBIe6P2gddma4XROY3MuHWzxusgd0NY5Am1jYaixd7vyCubbpVnDbXGcU5f7NLYOk5bmxTV2mBvH1aImMWgxWe12tCiKBhC+bueOjm81ykuzHfLiWuzZPFtdnBUsnlt0wtc6RiqryGsAs7xcXRatGpjxX6QZT/xBZvvmdo38Z+MGG6HIApYQr0ucg5X4ax8+zv2FNjoEUQSC+WzM+JJfMTmsjozSY8sBqtV23SsP+wc5t2Y9milPLhrRO4suB7nNl+DQ+v/A9X9hrmG9M6UK1tPe/PLBQ9tTFPY6NhLNOFDn3+s7fUM9abN/XsxrJFkoo5uAB7Oo2T9ZthnafNy/Zj8eaFT6Nkv8piGBDL2E6B1eSCMjcJV2xxqg5jIzM0RMPAZ31FGu4a2aBkFEnCePJniI1hXSBkNn9O+25W5J3/E54WNwFcO4XrJ9SwvOmRqtjT+qJiv27Zopxm3z24Fme/nIHja202DZpli6SjmIr9vQInxs/VJiD9VMNgHi+PahYQJoN4zM7p2PL+174FUgvK5h14hYqN2KKUInXNrijQ5Q2EZlZOnpXffdxZORp/9/AxYF7gIUlwOVLrUFlURKKd5WpK6wIDtqtRlb76LZJPtF6Tqi4+9L58HVG7/kW0reTJchVBKhFb1IlbX8gZ+7xhYl47HH90/sXytjYOqOKdZuVnLyLo31YXK3p6ZuOF5n+vuhLlslrsJDW7OSi2NRhPYsvNuW/ir9GygPdqk6q4mtbEnkWxLUSgveeD2KLEO+vUCtnKhWum/FppNDFYT884X+ptVLXAkzcNc6hVDPNyjpzmbr5W0vUmn4FWD37Mj0/t2L1li+kaxHhKKubrmxtNsK4dDJYn1vp04UZUviki2tZBhjyZkcxiGaX/9I1XJRRcPhJZs6nj3J/iyjdDXPlkwyVCwJ9ysYEvVwL7kW5AJeU6GKnuFuD9mtC12OL7XGR0KS2o1Z3Rcto3sSUXsn7cCc+8JO7zmWzWN1pN6Nc8+09s8eZ7hvbtth+YWbbo+4qYC0dw89wda2lSZkXa/JlFgHaedxNczBannmJ0VYmFZYsEYjjfpS72i+Wb/jOsS4wuh5rlqip4udjH2eXRizo3WLaYjo3aekr2bocO4a6tWpOE5UfaLGLlq4kfjnDiKrbYu2o/PWWluEnLSZc2L+tt9d5fG3C3cEUoDhG8JCaghnO7zASB2CLuN9fO4voy45W57oIHuVqMOv49wsN978bTOPMKVgfT9M1GIH+bikidRrUJk5PkbbOwr/XXYppr4u8acwu3f/0M//T/BRnGLbVs5hx9Q50nIR8W2YHbHoM+Z5orhtduREYkcp3rO+0Q0eEVpFXaEk8EH0t7MYotf2x52Xpiq0y6X6ZGAeUqY8t10LuRa5W92GJ2bb1dAWynj+YLTL1/a2KCsg9Vxwd1EnZ1iuj0d0/jhe6OoliKnM3xmXWydxKv41AFXm0ivbRsMYsn4yb9jGIaXExMg53i0sShOIHxqn6dpHs3IqMbwS3c2fMXru45j5CSNZGlgHFRZ95OtHZ3ZQMOVu2Js5bCOy4wvZ0j3c3X3uYzMOjHSy58aseuYra4W4O44u+mPlVLCaOb2K2zuLFlG66fS4X0daohrTQj4ym31ucUN8QPziKbiKJpTGOXxQvFBJGos9hii7e1YIp2Vb0rAcLs764EkLjNReYiji9ii9E1417kNlz98ySi81TE0+VEjYP/xRbvvudtPzATW4yWomZNTZ3HvNmEB1ZT9aZNGsd+7y1b9Ho2E1vs0nEaAz2tX+zdf9y1Mbf7M0+3XbmMt+NNPbuzbDGue0zWeUaB3NBcKLYEVt8x5ibhii1ug0q5W7x5tmyx3nme0RroUhYM5otWw6mdUQV3Wde5kOmDFsjVsCpCn1L8EB2CTIprUVizDshdpwRSWkQZqxJ+rLzqr+vCskWLUO958AncZph4chbaey5KNoqQ0z8vA+SaoXFS+RMPv0AoqZ3Y0jXUNk4cw6W1qZCpSpjNHSiDzcrFzLLFYA1gUiBPYovxRMxJbPFo2aL6/XseL6wuURL7KXILrqQrh4xipaOb0vqhJvwmthhMio0CpMv09VN23a3KD+UJiCQMp85ur4Y3F2U0MdjEssW4+HVqd6Zii7dzpLv52tt8BgT8+MmET+3YHUtXaxDDOxaheKQ1Zp03li0ffY3KLQvLfGa0pNOFWrsNU+FuKDOnPtIkuYmrm08hffkC4l7hIYhz/BAN2FRdChaGHHu0bDHcWuQqPT2N2MxFcRVbqqHw70OQOYsUytDedAHc32KLt9/zth+4t2y5Z7A8dW5o3mzCA6t5etMmXYktZm7x7q2VXKxLnMZA20UELvdn3ta5ytrF2HhZjQfqqwWsN/XsL7ElSiylzyJpsQjxqDDcZBpYzSjR5yYRii2GYG1uY7YU1OMW2MVseQnZXs+N66NnIokas0UCJV36pLWYottuBlKEk5fy4tZ3S3GjSl3kxA6cVN2Gwrui9OIGlqt8lU3ToWMNkObQes1tCA3Ft7mP4ttsUzavqkHkvI/ZwqtmA7hfG04C3V79PL8Vtg2XgIEfTUH5g/Af0QAAIABJREFUF67h/I+LcHHjVtw4lwvZJ3yOfFWUq2vtBbgALnVQZc1ebFlmCxwrNzTEJJGAZqq5sMHM0+JitMw+/tKakdjRVXUBy4rQNyoh7ZEFOGsMkGs44XO2GrAidd706hsdb2O2uBwvVL/+mzdxX46pk/q7vflBbLFc5dxZbrUom9XivqAsdLeLi5Wrq59TV3kHudq1RJb8SsDxe7g5t5O4HAVXTCtd0I1B9O4fcXS41S01dYlX5cr4EkiyaSRObDRxSzPEAtPNlT1YttgdejgvMLU4DO7mSFeBVx0EHG0TY5rPoBpi7Atj0k9ct2MTscXDGsTOPUirp5TIPukL5K+gWNU6j2ma+4gh5oHqjpe62eco0aW05epx+7FFF0Xvy5iSVMYUz0Gcg7heTYrm1cZWE8E8rQkNosjZ1djXvB8uyPohdfgJ3M5tiAXo81zkQWxx/NabjgFyTdx1xFVQiyvmd8sWb79neE6CO5//uD32rzT2Ay9jtmixrWwVLDEYc5Z+AicXKIFN9THyzu/98XfPVbgbLnVyTOokQJu6V20S+rpDCyQcXg9FvuyGTEq8IbfxbowF91Zs8bQ/O4/sNstiqIfhZm3M09j4XSuU+LklnpT4RI5WI8oYnB7f4cxas4p7hGKLpXzfIbN6I6PbwL0B2sgSQbYSpdiCUtIRJjW2+Lg5/owdSg926/CUusAMEyuZ2R/bBhNbpGpZwltuG7qyDgde6YVztsWI9baih3JzgxrJ+iTOdmyIa/WsbkLWm4rkO9rtJNsRWb4D/hU3o2zjpiF/VWVz7fCzW8B6PqlOBO05QRQx/YdTULhNcSRziDSuZt5uUHdjxmh3c1aCKHlwZNJRbEkhdfS8RIG39E/NzcZEbHHoy/Z9Xk5O+tfCHrlZLE6WLZIFPSq9I28vfKztXjFYgMjf9WDcfqrHOIgtzjmQQOiHfsHBjiNxUb3q2G1MGIl5tHEqDnSYK66cwfYrLoExx8lNHyYTnLboNSxWbbcsIJUcAcg8pcxfT/jFskW4ejNHuhVbvM1nsNWhoTw+tWPXAXJdrUEOGgIUP4yJEcHYfmKKUa4hlTguprcRadYqkl/LjTeQG1hkY3IrBZKKha6jkKvHglLKp15GEMR152PRvNvYersmlIsfNHdJPSNqPCXjutK3uchcbHH5LTjfRqRZTaq3cCZNjRBpPDEy9oT4XWwBvPue3nfM+oHH24iM+wr1tkEpjeVGIi1AseG6c61KzNxpfGw48fi4t21Su2nRmBftRkV3QpXxBW/FFsDT/ixEtcx118Y87M8ObrRfTzmOoa7j7rhzK1Pr20+WLZpLpx5I9+GFdTjUtBfOqmuheGwfTNo7AolTbBE2KSSoW77ubyNDrgyWq/EeRp3HzbWLcGzibNs95laAZnew3944Cwd6zLea2oa/hnx9WiNLsWxIZrkjWrnC+SJurfkOh/rLM7W7o1T76kiTxXoltOXK1wvHcHHGQBz84QRCW49BoXdKImVG5Yo464Ll3tmdODtsJI4ptxFZfkqgp36IqJMfyZUAdJJG9OnduDBltOGed4ot3jX5wHgqRbUPkK9FDaSPyGy9+lfZ8Fw5jxu/GWMPyZ+rtEQReS5dvqxIbrmr3Na+1i/AUXFJCr6NYmDUj7tcOIotMGw49M2Fmdii9uUeyF1TAgM+aQ0mqUzg9yLX4+QnQ3AqzpYtyjcktk/LLsjTuCxSW8YVZ79/lz7WDgU3WkncUq2t/FVF/hBbLOPlUVxdOhsnvrTdhqLmz2STamF9ehcuzfoK//58IIiDchZH9oHtketV25yhtrPTW3Cmf1+cUK5lLtUKxUc0wZNK0G0lePuexTgyMQS5p4mrh3pY4OKWCe/ciGwV4WmOdCu2eJtPfzXKAEzHp3ZsIrZ4WIMYbyOK2bkEZ5KUR/YimSSop6wzjq1GZPshtkW7i3gwH05CweYlkELmsYd3L+HGwvGITNoSz4m7bLRq1adhrY+i67rhKQkIHnwufHFvO95tbL1dE8pzYVWRd1QXa33KTSXK2vTK529iz/dxmYtcBN519a1sJlc/iwhb4IsOyJon1DI/3T+6CSeG/YX045S24W83IoWDN99T27e4+E8djJsv2LhZ+sFaHOs+EGeU20KV5FzEUlT2FREd6yGTrNcsV26r67oln2HneMWyRfYe1TqjcM+61ssOLPuBP3Gs+sdiPxaYP6/bpDDOP741wp5V2pqy5jiAs2OXI2XvHnIhif/FFoWW2/2ZN3XucWxU11PtEN6gItKGGfdp+3B+bAccXWtWb49BbFHaVr0RtluJ5NZIuQDmr7bzg3iNE5j9xVWuEpzYkrDwMrckQAIkkHAJaGJLjCyAa8q1vzwpSbiVyZyTgCkBd3Fe/I1MF1vo7uxvtkyPBEiABEggEAlQbAnEWmGeSIAESOBxEyjVEiXGtcKTyrXUvE7+cdcGv08C8UTgUYktcvPi8C9QqEYOsWYwu/Y1norHZEmABEiABEjgMRKg2PIY4fPTJEACJBBwBBzdFhwD/gVchpkhEiCB2BOIf7HF/vpYCexqF5Q19jnnmyRAAiRAAiQQ6AQotgR6DTF/JEACJPAoCdQYguc/rYaUmt91PxxZqcaPepQZ4bdIgATin0D8iy3hszcgVzG5se3uNdzeNAeHuzLeWPzXK79AAiRAAiQQCAQotgRCLTAPJEACJEACJEACJEACJEACJEACJEACQUOAYkvQVCULQgIkQAIkQAIkQAIkQAIkQAIkQAIkEAgEKLYEQi0wDyRAAiRAAiRAAiRAAiRAAiRAAiRAAkFDgGJL0FQlC0ICJEACJEACJEACJEACJEACJEACJBAIBCi2BEItMA8kQAIkQAIkQAIkQAIkQAIkQAIkQAJBQ4BiS9BUJQtCAiRAAiRAAiRAAiRAAiRAAiRAAiQQCAQotgRCLTAPJEACJEACJEACJEACJEACJEACJEACQUOAYkvQVCULQgIkQAIkQAIkQAIkQAIkQAIkQAIkEAgEKLYEQi0wDyRAAiRAAiRAAiRAAiRAAiRAAiRAAkFDgGJL0FQlC0ICJEACJEACj5FAWB0U+KIdsoQ/iSRJgId3b+K/6e8hMrIqMmY7hYtzNuD2Y8weP+07gfQfTkLBZs8hRaqk8vJ9PIj8DQe6LUGyaqUQs/FXnNt33vdE+QYJkAAJkAAJJBICFFsSSUWzmCRAAiRAAomFQFZkbNkO4Q1eRJosaWzCxy3cO70LV76bjYMLdsYLiGemrUFEmVSWtB/evQckO4UzAw8i49AaUP56a2ELbPtkf7x8O9gTTVG+KSI61sNTEZmRNIUoWTH3cP/CaVzfvAD/Dl6M/+IDQIW+KPdZLaSSzynfi4lJjgd/jsWpVB8hvFRy4OYWHKnQGafi49tMkwRIgARIgASCgADFliCoRBaBBEiABEiABKwEsiLbuGnIXzUznnBCEoNb81th2/D4EDxqosiq/siUSfblO6djy/tf425YVqR4qh4Kf/Ue0qWKwn9TGmPnNFpC+NpSU9QbgZL9KkPRWBx/D48sxI76Y3HD10S9eb7LTFRpVkCePIfzXepi//+kPsPOI0Onn/BsjazAv0uxt86nuORNWnyGBEiABEiABBIhAYotibDSWWQSIAESIIHgJJCi8QSU7lEOyaR4D44sweEB08XVIyWerF8LOetkx42efXHiXHyUXRdb7q0Zij+6LouPjyS+NMMaodj8zsj4pBQ9KhJnRwzF8Z8PIKTEmwhr8jpS7e+HvfElYGliywGcLN4cRxMffZaYBEiABEiABOJEgGJLnPDxZRIgARIgARIIFAJZkWfeIuQsJCYQd3fh+Bsf4LgbYSVFtc4o2LE60uWwxViJOo+baxfgaO+5NrcUVUC5ikvDxuBOrY7IVigrQpLGIObiYZyfNhAHfzgBFG6Ewp+0RqbwNHbWNFbRJQKldjZGqCC6Mas8to+3skrfbDDyvFMRacNSWd55GHUTD+7bOB78ARtb/YLMPfojolZRpHwyuTwj37x1EVF/r8KxDpMSjTVFChE8nhfrkidwD9emNsTfU91YBpVqjILdGyBTPqWOFFeua7izawUi+0/ARVs7CBu3FAWqPoV7a0fj8OkayFuvgCUey8O7l3Bz+UzsH7TIElcnUxexjmpcBMmVUC3azyq63LKlgUvrcOCVXmL3Aji1pbu38ODeQ+ublzfg0JtDcM+pzq/izuE/cXrkEJzaGyh9iPkgARIgARIgAf8RoNjiP5ZMiQRIgARIgAQeI4HmKL6lDdKnkFCmmydgY9v5rvPyksTjGC3xOOw209bHH+yejZ1Npohrim6t8vD+fTyR1OFhVdApMQBl+1RCyjR6fBhlo31v3Shs7fess9jy0gCUGytxXJLEIHr3Kly6GI5MVfIhmRKK5MI+XFk0C3vuNkTFTqUQYhFZbku8kBCEhErkl/h0m3mMNefq07mmr/MuPkqY1P2PrZA+jbOv0cMLa3Dw1b4WUUQVWyD1+VDq097VTBd0wr9eiRyFUyKpGhj3xh08xCGcrtgeUY5ii/LtxdLupHoe/PsHLuxNgQxVSiGlEqjn2ilcWTkLx9Y+h0K2+C9WYe0JJFHay40/cLhyN5wOQPbMEgmQAAmQAAnElQDFlrgS5PskQAIkQAIkEBAEOmjChntXnqzI/c0PyF1cgpxGHcCprr1wZDOQceB4FK0bLhvw67g8/DXsnq+LLWKegMvD2mO3WLKk7zEbxRrnQxKxtvjvi8oSh0UpvCs3Ij1PqmVLxqELUax2DuDKBhys2hNn5e2IOZvwTNEkeChCzzoRejRRAEdwum4THD4mD4VXROawQ7i4OfHEfckzb7NYKknZDVYkZk0t0/DFKFIjTNSqi7g04iPskXpK3exzlOhSWlzK9Fg9Olfg3sbR2NlBLFlKdUbpyY2QVkS6mO1fYX3LmdZPuHAj0tJQ89R6Ciq1Ly7t4TBOVW+KI6LqZBn9CwpVywyI0LNPhJ4LWlpXpR01l3YkdRhWAJkLpMTFtfETsDkguiQzQQIkQAIkkKgJUGxJ1NXPwpMACZAACQQPAW/FljoosqY3MmV0sIAJk033Ctl0C5CoJV2xpX8GLegtTi3HrlpDcEWBVfhjlJn7JtLIf+quQf4RW7BvLta+OwloPslm2SIfuX9D3IdW4MT4uYnuqmHvxJasyDv/Jzz9rLCK/Anb6420BczV61kVUXSx5TTOdaiPAxuVCi2I/ItmIHuE/KfK319iiyrIONxsdPfgWpz9cgaOrxU3NP5IgARIgARIIEgJUGwJ0oplsUiABEiABBIbgbYouaMp0okniXs3IleijOPfoYstxk04nK1VfLFsQSkRa6aJWOPkRhSF69PbY8fnym1JWSVmyyfI18gQNyTmFm7/+hn+6f8L7iaSqlUtftxfs2ywQLKrJ+e/62KLfdBbTdSJjdhiCOJr70YUg7srP8XmHtZgyembjUD+NhWRWnN1uo9722ZhX+uv4+fq6kTSRlhMEiABEiCBwCVAsSVw64Y5IwESIAESIAEfCBgsFK65i4Xh2bLl7soBsklOFj9ii5QodZspKNmuOKxRYCQuy7WzuL50MvaPXmMvpIirSVizDshdp4TEhFHikRgtMnxAk0AfDe03D6Xqh0vuVdcus4J4tmxxds/yo9iiZKnmADw/qAZSimea8nvoFGxZzXcuZPqgBXI1rIrQp5TaN7qiJdBKYrZJgARIgARIwAUBii1sGiRAAiRAAiQQJARC5Sahko0iLLf3RO/+EUeHW11vUpd4FU+9WgJJNo3ECXEd0QKvehuzxZ+WLWFiGbNMbii6sQVHGnXGKZMbk0LfbIA0h9brbkMNx+LFPi9I/JHLuNS/FvYsCZIK81SMwt1QZk59sQISAeO/vTgzfgz+lauf74Y/h6wVXsaTKTfj0LTN0OLgeB2zxZ9ii2pBcwxn3n0Xh/aZFKpKXeTEDpxU3YbCu6L04gYWlzXjLVWecPDfSYAESIAESCAhEaDYkpBqi3klARIgARIgAbcEisv1z+MkqKpyFYzjzyBUlBLBY5IIHiaPPRBhZbfETfnPEPTWLpZHXN2I0ATFN7ez3F5j97sfhbt/z8N+cStJabvxRrsSOnlqJE0hikPUdkSW74B/E1ErSC/BZYvK9c8hJmXWAiGHibXS7I+RKYvZbUTrcKhpL5wVUSte3IhQHs/+MgbZnnH4dsw9RB9bjcj2Q3D2nZmoImV4qF4JndR201HMSZzt2BAHLbFj+CMBEiABEiCB4CJAsSW46pOlIQESIAESSPQEiiP7wPbI9Wp+JE+T3HK9r7LJvXd6C87074sTe62AUpRvinzd30aGXBkQIh4dVtePRTg2cTauWKxNXMUCiVvMlhTVOqNwr7eQzuJG4viz3pxz4FJLFHqnJFJmTGW9nliEmHtnd+LssJE4lohuI1LppG/QBxEtqyJtFuv12hAh4/6F07j641DsnabEuJFf+GvIN7gtsj6b2SJMPbx7DXd2/Y7jw8bhvHKbk/ziRWwp1RhF+jXHU+FpHK6Stn4zeuNYbPotN0q1r440dvk/hoszBuKg3JzEHwmQAAmQAAkEIwGKLcFYqywTCZAACZAACQQkAdWqRb9K2prNXAifMxu5iiaH+2urA7JQiThTqlXLfdz8rid2j9xii7mTFVlGTUWhV+U6ajsXtESMikUnARIgARJIdAQotiS6KmeBSYAESIAESOAxEajxKcoPr4oUOIxT1ZviiBavpbhcP/yFXD+cxHbt9ObHlEF+1jcC6g1YV3FpSE3sWaS+nRVPT5mNvOXTQb122rd0+TQJkAAJkAAJJHwCFFsSfh2yBCRAAiRAAiSQQAjUR9F13fDUk+K2dP00bh2/KqF80yBFvpxIkSopHt7ag5NtWiPS5uqUQAqViLNZEPkWfo0ceRW3pUu4ffAcHiA5kuXKjZRPigvb/fO4MPhN7EssAY0TcUtg0UmABEiABJwJUGxhqyABEiABEiABEnh0BCTGR8HuDZApX1ZLrBjL1c+3LiLq7/X4d6weX+TRZYhfihOBsKrIO7QdshbLhmRKEGP5PYy6ijuHt+HslMn4NxHG2IkTT75MAiRAAiQQNAQotgRNVbIgJEACJEACJEACJEACJEACJEACJEACgUCAYksg1ALzQAIkQAIkQAIkQAIkQAIkQAIkQAIkEDQEKLYETVWyICRAAiRAAiRAAiRAAiRAAiRAAiRAAoFAgGJLINQC80ACJEACJEACJEACJEACJEACJEACJBA0BCi2BE1VsiAkQAIkQAIkQAIkQAIkQAIkQAIkQAKBQIBiSyDUAvNAAiRAAiRAAiRAAiRAAiRAAiRAAiQQNAQotgRNVbIgJEACJEACJEACJEACJEACJEACJEACgUCAYksg1ALzQAIkQAIkQAIkQAIkQAIkQAIkQAIkEDQEKLYETVWyICRAAiRAAiRAAiRAAiRAAiRAAiRAAoFAgGJLINQC80ACJEACJEACJEACJEACJEACJEACJBA0BCi2BE1VsiAkQAIkQAIkQAIkQAIkQAIkQAIkQAKBQCCgxJbIyMhAYMI8kAAJkAAJkAAJkAAJkAAJkAAJkAAJkECsCURERMT6XbMXn3goP7+myMRIgARIgARIgARIgARIgARIgARIgARIIBEToNiSiCufRScBEiABEiABEiABEiABEiABEiABEvA/AYot/mfKFEmABEiABEiABEiABEiABEiABEiABBIxAYotibjyWXQSIAESIAESIAESIAESIAESIAESIAH/E6DY4n+mTJEESIAESIAESIAESIAESIAESIAESCARE6DYkogrn0UnARIgARIgARIgARIgARIgARIgARLwPwGKLf5nyhRJgARIgARIgARIgARIgARIgARIgAQSMQGKLYm48ll0EiABEiABEiABEiABEiABEiABEiAB/xOg2OJ/pkyRBEiABEiABEiABEiABEiABEiABEggEROg2JKIK59FJwESIAESIAESIAESIAESIAESIAES8D8Bii3+Z8oUSYAESIAESIAESIAESIAESIAESIAEEjEBii2JuPJZdBIgARIgARIgARIgARIgARIgARIgAf8ToNjif6ZMkQRIgARIgARIgARIgARIgARIgARIIBETCEqx5ddOpTEQg/HXxNeDr2qvr8foPqtQ8OMhqJUz+IoXTCXa/+2HGHm2Gab1KI9kcS7YIrTK3Q0Yfwxf141zYkyABEiABEjgMRHw79zwmArBzz4yApc3DECLtt9j781ohKR9DWO2TEXtNI/s8/xQYiBw4ijenn8XbbsWQuWkCajA186i07h9mHH8Pu6FJEXd1pXwffm4r7j9RyAGh377C68t/A9n7j1E8uzPYOPwgnjOfx9gSgmAQLyLLYcm1sG7q1/GvF86If8jAuJKbIm+sAkzPxmP7/dcQUhICPDgAZJmr4DG3TqgUYksHjbEv6JT6YHYZChDsjRhyFO5BQb1qYe8KR9R4SK/RMO3v0OBCWsx5IVH9E31M9EXsGnmJxj//R5cEX4heIAHSbOjQuNu6NCoBLIE0vjmDzRLW+PZDv+hzz8L0OxJQ4L7h6FKjWnAh79iba9Cdl9a2iYvOp/ugvW/tseudvnR6XR3/O/nNsge5/xQbIk1wugT+LlvN4zbcBy3ooEkKTPjuQYDMbLT88joIVHLmDF6Cn7ZehTnlJflZ+n3ZWvgw+7tUSGrNQHLmGMcHJAEKdM9g5JvfIBu7aohV1D0jWhc2DQZfT9ZgH8u3kGMxqIZBoxuYB3flTFicl98suAfXLxjeQJpwvKgbLMBGN3AOgO4ZPV2F/Rr/mLwjSOeGu6vnVDavvFY3sjeZB5+6eRi1jw0EXXenYMzSUqi16qvUD+dyUei1+Djqj2xOio7msz7BWpSTvyTpUFYnspoMagP6j2yicwTlIT879E4t3Y0uvT6FjvORcksKb0gbXbkr/ghRkxpgoLyv1f4dW7whZU1b20/mobdZcbiyIx6Di9HI/KHjmg7ZDWOKhv7VLnwyuAZmNAwwrY+uoZZDYtj6K3uMsdVwswX6+D70l9j98SXfclE8DwbdRDfdWuPkSuPQnBBgCF9RGG83etrdH/ZuGiIQ5GjV6DDc22xp8H3+KVXQUSdu42U4WHwU+o+ZWz/iEqoPfWk/o6lvGXRtO8ItK0S5odDJZPsLG6BvF3+5zKfVXgAZcdm3pjf0Hw3EFa1JE40y2zKLXLRRhT8+RZQtADuds9lfWbrXwideg9DRr2ALpl8ahaP8eEY/Pz5GjQ8kQWrhhRC0Tu3cStFOuTwUoi8fTISLb84hqVnRahRum/yZMifKwzDuhRCTS/T8Fj48wdQqucphL1XDgsqJ8Pxaw9RKHMqj6/FxwNq29DSTpoUuXJkRM/WRdEqZ/wobLu+W4cyK+64KE5KdBtSGcNsTTA+yhwoaQaw2HIOM95tgxuD9EWit9DMxJYrv3bF21Nlfzx6MGoXCNUmhTun1+LLfsOwKlsvzBpW1c3myyq23O2yBAOrWnNyaedsjBvzI/Y+2QzfLmrvfzHp3Ay82+YGBj1Cocol4yu/oqsVIAbXLoBQdfN45zTWftkPw1ZlQ69Zw1DV0+7V20oMhOeufYNGz32C0PH7xZpE3y2fmfw6Ko3aBxRWFpztDULKn+hb8h1saugswsS9OBRbYsfwumzuX8fgk9UxakJHvJgNOLtpBvoNmoubDb7FovauJWBlzGgweCMQUR2N2jVA7XzKCiQKJzcvwYJl91B7Sg9UsjULy5hztwuWqIODZXz4AgMHrsCVV8Zh5bBK8bMQjR2UWL11/feuqNNnB55p8DF6NC2OTCqLPc+g24C6CMN1/N61DvrseAYNPu6BpsWFV9RJbF6yAHue6YYBdcMs33VmJUxXf4NxM1cgMsUrGPFtkI0jnmgrYsuUrPhsWnOEG54NSZsJWbSB1iERi9iyDHefuoynm6/B9Led1ZbrC9vglWknkOFyCtR0FFuMbfXSTsweNwY/7n0Szb5dBDddwlNJ+O9C4JqI9FU6bEHupkMw8IMyyIxbOLF+Ib7dGYF+I9/2g/AeS8zRkVjQqSkGrEyNXNkO40heZ7ElenVHlG25FgX7zcLoGllwe98ktJNDhVxj/idz4FPyYesct6vVJixpvQHv5+uLpA7zYyxzlwBf24cxVetgWtRL6Dm2B6rnkt3Zxf348cfZiKk2G50r+alIlsOdTWj0x69oG/dTmzhlyiK2LKmA6T+0R14lpVvHsWLCxxiz7DoqTdqAL2vFgwQUdQWnr0Q553vHcNT+6DDeX/cbOiaCzZq3FadsqHueTI4rDzJixaTn4NwML6JTp7/xE5LiXM48utji7QcC6rkr6NN9G1ZXehFb6qTVc7ZjBzKueQpXVCHJLM8n9qHo4FO4VSwcM+pnQ4QcmJ87cQpzVz9ErZ4FUc1f5dy4DSlmh2DxVyVR019pxjIdi9gSHYHDrWUhrPz+u4yx845i2vGk6DGwEgbHQz+6d/sWzt1+6JTjq+v+QdnfUuKHyaXwRvzoPLGkFD+vBa7Ycv17tKw6D8UMi0RvETiKLdH7JqLxIGDQ3E5IOlksbeacsSSVJGVOVB8yHUNEPPm1UwNMzz/FzebLKrZg8F8weidF/zkINTr8hZqzl0Ks7/z6u/59S1SdV+yRWgWZFiB6HyZaAaJT0snWE1UrQOSsPgTTrQDRYHp+TIkP0cmvVH1J7LAspl7F/Oe/w7Zhz9tetJ7sfZupOrDsEt4zWr2c+QK1X5iOYt/vwKfq4758zu2zFFtih9Lab+/334wv3tAFs33jaqHpxhr4QdprhFnCJ0XofGsq7rz9NeZ1LQZPhmuurOks31lWHl+u6otSsStAwLz1e9ey6HOtK9ZMfxtmhhTA7+hatg+udTXf/KsFcenmeWcXRjVsgYVhvbDqq/ouvhEwOPyWkcgv6qGhWH+6bItmX7L+E+ouAAAgAElEQVSILVtQ5NWb+P1ILSz+oQ3svUqvY2GbV/BDhv+zd96BNZ7vG7++iCYalNqq9q5RtLZqbGITsXdCjBAhmiCDRBAhIUEINWtrjNqpGqUqao+YkdZMY0vq4Pd73veMnHNyTpxEEhnX+Yuc9zzj87zzeu/7ur9H/MHLaKEvtuin2SpOwKPdaJxqvwo7U/tClmqkMkdDcnTjkymI2Djoo0QfGKMkCSktA4vBc/FEPHarhInQF1uU1za/IotwemFbjTgcFdAGLdbWx4aTXqgrX+N+QXvpwf/OD/hmyFPMOBuMNlkici+Z+9e1OWjV6id8mybXe62xiHWrMfQFvG4vx8fOIJbFll/aYsdhVzlCS/n5F6Fd62GmpS8ur+6VTi8VFNg7ujbGxvyAk+v7ZajjLJl7UapvLj1Qj/6kMJr9FYtPHaywtl4O3T4izwnxVIEm5WOwOadWZEuqjyQ9GvwHA+0u4OmANvi5SUJ/h5eHo1Vs0kLS5Y2HUftwfuw3KEil3tijtx9DhcOf4U+/6qiZes2mqCVZbIHemr+5B7tx5/Brg3q41k8S1NPj8wzerscRUtl49FV6jCI9+0h/sUW+SRShW790wGUnP4RdiYVCnJ4Lfm0Lr1mOaCAiI+5vG4cBs48iVhm1r/w0VnuwqELZPdfjL7GBoZQA3Zt56aazN67a/wy3umaQ05pu2st+LrFho9DZLz+8j/igmeIwXNuuQZ1tRkKyYVhsQewaDGw9H59pRBjTxrek3HLMKLgM7ktOIFqE20vCT/OJ8+HdubSgcR/bxg3A7KMSG20EQuipKPE7qHXzHImATn1wsIV+yLneeNXct1jh2Lg5OBQt0gBE+HiZVu4ImVoeRzRpFiL9oVRbeIV6aaJUpDekva/a42e3ujBTtWN/KgAdYsMwqrMf8nsfgU8zBQ67tsWaOtsQYjCmPT1369Tr6w/XOuh7ojf2hE9UvslRCNGjylRYhoTi04n98GBqQtTL05U9UdcrL+ZcETdF4uZz25CyOje00v8DKm2G/+cLMNH/KKLi3hoI01bevBz1HQnn0D8Ro8gJi2J1MDy4C851c9P1bNELYTazLA+raSGakG+FCL/9yhnwVY1HpiLfuO1ANc8z2KDJjdJ6W+lQWISRu2C8/x5ckUPgzWD5RWXY+GyAa7M8qQc23VqKgHdLe0QO2oeV/dRhVwqEu1hhcvxkHBPnAUPPCYddm8Ipwhqhe11Myq1NUmxJStRJNw4f3pE8xxfOSYgtynPOC+cUii3S4SVE28bu9zBs20bYZRNPKu1rksmrJJ+HxXVgtjWOTTqAlvq85JcVW1F/dmPsnKR9vVBFFiXyNIvFmoGtMf+zLOp1ZjLYD99QPu+/cE9SbNG9NiiF9EP6XX85POGhVj7X28NnbxTi3opzcsUWcFsSiJ7lVGevCC80tVmDom6HsHnI+8Mf9K9Nyq53wL78eCDguohQ0BrMuelo1ukEeguBZdgfQ1BzgxVOiAfcu+LBe8grfxz3qvfh0DJjC3LEyWY0TkpskbfZg7a7D0NkACV85NQYYI5aQJH+P68Ctm2oiZV9JmHHrTjk67MQzg+nY8avD8Saq39aCsPktqKwz9cdc9efxO0nyut0oRq94PnjdLTRel5S3PsVi37wxvJjyjQnKZ2t/ex9mCvnSMTh6jonOEzfL9+L6N8/GFoSw2ILcHRiLQz6o5dyf5XnfB2Ol0chetAILPojBopvE44HaUxzx/2AtaekeSnvb/qKVN3JTZPxoPd0DfrUmYmCwWewMFsqfcYPGOUDdSVs/OSG/GB9f8wXyK21uSREdHlZCf7/XYS99oO3FIEhsuNXrPwGfVTbv469izmhNzD/yis8ewPktjBHz8ENsbx+bkj9eJWsh4Nl76B16CNcf50Lw8R9VZD00vn1YyxbfAE/nFX/Lg+sbcW+3Ty/ZiyPzl/B0LX/4Fc5hed/yPOpBb7vWQNbv/9M1fsbXAw/g74bH+NynEhJFikvVWuVw0aHsqgkIiGif/0TzdY9ln1Q1J+ybSui8183seCBsDjQ/NVwqoqc3nLss6TFFgNMpGbl30YUShBQpO1+zoPfXfNikW8k1on+C35XDn0j7yBYlaKkHE5BJd8Hf8N11S2siIxDrDT+XLlRp2lFbB/0hYiEVH/e4Z8zkRi5Xs0oB/J9XghLvL9GNykLSWZ8HhPPxOHVW/Fd8QKY41gHg4rriWtaa29QbBHngQCPw5hkqRJhDM6lNv4eIuXMS2O6jEEr7uHYE8FY2EmUKF8cy0ZXR7KyJiXBz/sZ7GY3gZsqFT/xHm1CX1EXUWXaK0yeVxR/zb+B5VGvxb6UA0UrlcCK5I4pja9BH0lsWY9H5sVhPcMPw+sWhtmjCAQ7T0JYoUkJbzTVN5N6kS0KcTJv5fQ7Ko1bjLm9ygM3NmDCiEDEaKUE6Dz4SDed/R7ARZWKo3Njqy0cCNAR3i2x/KvdOm/AE/gbiWwJd4HVpGuw3SjCr8UrclPH53nSDHlrjMJ8zw4oY6nA7bApGDM/Cu1C98JF5Zxk0O8mEZfkiC2Ce8GKsHX1wIBaBfD4Vw8M8TmOnPnzIr/VVPg51EXh5xEIHKe9Fs+wfqgQFVxU6Vw6zJR937RXRftEeKPl8q+wO6hzOr3dSOOjQ2peFifuwVkdwSL93068ZRICRn7n6nBEoCZfPdyxOuzuTdTcZBsSWyYfEetedyKWze2OcnlfC2FjHAbPuIlOW07CUw59UOAP18bou6MYhvkHwKHJ54i7ugHjB89CxOO3aKrJT1aFMKMnFi52RF2RsfFvhNh+xCaYTziIHQ4iHtBApI00Rsf94jbrq4RxQvuG8NU0NOx+CE2XrsSU5mVh9vwfXD3yCx7UHo42aRBimA4riOhVA2Cz8AWsZy/AhOaf4+81YzEs6ImIxFqLUdUMSS1KgeZ4Mt7yG00j8jqOMlM2wb9D5s+vk9NSxI1E7XHLENivgoFoH2U0hW9kbYxbFoh+Rvw/kjQwl0UCP5jrRSKlx37ysfqQrjv2D8cnz9Bdcx0IgsWUrtjZWFdsjw6xQddDbbHT4znsdMR5I2KLyt/lmu1GEd1pMNbrY+HJdP0+XWuLb90uoa447kOHVYah7HzDYodqqv8K8aX5JDx3/kMI4tIDaBQWdWiB+XHiXL9yGloVeoT90wdh9I7ymHt0KeTMjcOTUW/wZpRyOYxtdikUW+RIjR1ooS8MQBKDxAuG0IuYn02tWQzvhKfg/m1PrLe0xZK1Xmhe3MC1JDliy/SHqGb+L4oP8YNzuzLIl7cIiuaT39roCjPyYJ4iPDgIzxsNwffVhVfK/X1w72uPsBLTEyI9ngrxrMlYnCw3HLPnDEQ1Kcvp0jH8V90G9cUuEiXSoVvPjUOPxT9iSqvCiNnvhSEiZaxcgPF0IMNiSxQC2zZH0JeBuBrSEcr7id+Q76tHyFlnmjKVzqIgShYUR4J6TNVdsULcA31pEYc7WyeIe6BL+C40QuxfpoVI6URbZbozRNoOWP1A/bx5DIoFv8PCEPFwr07TePM3+jpcQa4RLdEmXC/KQV9YeHkHPSdcxm/FvhDnsdKoJafZPEJ86bJoJu435XSlp5Ywf/4JxgyvgK5FzZDvs0/xWa5YuE86hTkoig1jK6CBCIN9dO06egU9QJ4uDUS6j/jDyxtoNeYW3nWtjfVtCiH/m5e4fusuTv6vPAZVU4oF50TkSYM9wOBRNeFWUXT+7F94B17Eik9K48L0yqqI5Ch0GXgFGK4b2WJYVNDjLj/w30e+777CngElUNJQKktyxJb1r/G1mQKlWlWB57eW+CxPHpTIkyOxMCMN4+U/mL39DZq3KY7aBXPgbsQFtA18iFL9v8P+lp/IA318/BQqL36KSm2rIKRVflgiHucuvkWt74qKKNZnmD1VRKP+JxhPrI6O+eOwY81f6HUyD1bOrYeeRvxmDEe2SPvERZxrWR/nbYTQJc3ZyFzUY6rVqxZCm1jC4vULrAs5i0l3CmDbQpEmZVI6kNJnp/fzsvjHtTwKGDkcTOpLFlvu4p/cn2DACLGfVM0Ds9hH8JD2k8/KJ9l+2h6FiVv/SGLLapjbbcNGrVeXChFl0tD7E/ic9EdraZwGxRbJx8UaK0rNRvgsK80DvXxjubqCMMAUESripzo381I7QRWwXZX7IwsYl4UC714TB93HIPDFAGxZN0QZgi3eqna6PsqIKaG+Z4vk3bAJCwM34U4tT2wV7RcUESkmj+90C8wOnwUrzbXlEvytB+Bou4Sb3dQXW1ajsM5bZ+V4g9/Y6YShy2sxPZfImBLRK5AElSBU2C79W70ul9FrhztqHnTHmMAXGLBlHYYoAcKx03WMyggeM6l1JMm+LXNQXHWjKUe6XB8rCyp5pMgRN0ssuhQIK5yHtzALPNR1H/Y7V5R7NyS2TDzRDkE6Ydd6v5MjZybg8Q+nsGVYwpseOUpFmMSpxRbFXgfUsb+LcRE/Y6jWCyH5JmRJZYTIY7oE32YdsKe92kNGimAZipcDbXE68BbGqyJe5IicgApYK3Kg60s3dm7memNMLZgfqx0FojaMwcA5p/AqRw68K9gCvqu80NKoo7ORKLYkhp/Y9FXauBAaucyBd5caCR5HHwtBqvQrLvYhIzF+2Xk8z10KDXraYax9O11zcJEKFDJyPJadf47cpRqgp91Y2LfTFWaSrhanZH8rKXPYVJlLxmlE5iHEdzOFQo5klKI1K1mNgPfUzsaNlbWuj72O9oH1BnHzo4nCikaITXecsjmAkJor9CIhE3vmxEUfx6aFgdh0pxY8t4rzfObXBT/y4sbhdEBf2AX+JY6T0mg8cBxcHLugspbqYlxseYqddk0x4YkTfhfXGPnULgv+VzFc25tCZZoaNVp4pzi8X1zRB2Kwf2PCgCy2sBKeoZ1KcW8nfrBxws/CM7ZQDWsMnzYJA77RMopNjtgy/jDqeqoFNq3eDIotiUejcx0XXyvvBcobuZYfxLhqw0TE9yHsdlS/RVGm5oy65aDnRZfQVyLPFsmjJngqgg5aYPC2vZhcU9zQqgoI/NfnJxwW6dfa8ok8ppU18OMffmii+eL9/erMVqQ8ujXujdN9tcf+kQ/5DNR9wgN1LpFicxF3bRIe4F+fikCx1WbYFVATt/RTSvSEBdlEd4+FUU8NuZ9L+TB/XkOM1LLqkftY8B/cAxvBUevvyvbyKL1L5Ifkx+hvLLJBFoUuIrpLMxxur3XiVJnNfuXYEivrSNA/QGyRojROnIXV0oe4LeJt6nz7Bfx6lkdjIX5oPskRW5Y+RpM+TXGwja68nigKxuC+8h8WzTgE7xLqCBJlms3c4tUTRSbJP5c8aQJeYYI2PxWz69Z6/jVa/el7trx48BBLNt3C4vv5sGKWEOWk9ZLnbGguyjEtKlMTN+2KJ0RLmdCvzpSfXkeL8bdRzFCKm2ZDE/uS96O/8WnnhojolpDc/vrQH8grfHLWLBfCUwY5Nj+S2LIfzfU9TuSKDJIlivZDvW74s/wwb8A3RYSkoKV9BLqqokveK7asf4oCuV/jcY7m8Ns9E83VhgwmiC0JBUdU1UZ0KmgkY3xvpuK4TgRI4giV1BdbEnM3+OCjsxaGxJb1eFogt4hiy4HmfrsxMwFg1hNbhDvNog6NsbyW5NuSTxYvjtmqbnBlISYQFaQw4i8T+7UYFFsU+nnNeoKIHLK9H+313y7KUSp+KKqKbDk/vTG67u+glzstzip6N3fa4lD+CBG1YhOJ0aeH48+GY4EF0ptKhRCFqmJa3iXKCB3Vm6fDn32Hgc7OcGj/FaSXa5n5E3tiFkaM/xlxTQdjSIW/sWHDHkTlaQvvlQmpcrrzM3wcy8ejyu9J2l67Wkzi40iB51eEmbaTL05/MRGrQ3rqeWpkXqKK51dwYHkwQjaJFMjXedHM7SfM6qxdzU2a+wEsDw7BphPReJ23Gdx+moXOKnGLYove2sdex/knn6JQgQLiLY8Ii762A76TQnCmvDP2CH8cg9qH9suIYlI00ApUUkdFnp2FNsNvYLhUpei+ftpp4mpQOczz4cs6thg/ZTAaZ7mSch/vOFM8u4Bfgv0QuFKkjL7OhxYzf8FCG+WDuDGxRTbXdbwLu3DhiaJ6BjYcTaD0V/H5TBVNkMxpUmxJJrAkNxcv3n5fg4CZIdh1PgaoPBxrf3ZFHemZK1liy3NM1a98KPVrotiiu50Cm/pXwg9mhipOGR+XMhX6M8y/ISKmDMw5UTUiM0uUqNIKI/280VutJhpNr0piTKbOUYxJjhybBkw7vR5908CPNzX3jI/Rlnb0gpQy1PZ+adUb/v8Q4vMbvEt+LVcpShTloCMsvMOPs/bDPglPF/n38eVxf0oFneiEiDW/odEZrRQbNQT5wTgG3eTqM6rol5d50KdDBUxpWQxltHOdbl5ARc9/0TNRpRqlIe7Wut/gSm/pyvghYotqYK+f49CB6/hhTwxOPxV1L9rWxtHehSEnzSdLbHmD+cFCeNKLKjFNbFFGCmn8VN7cQoehkTDTi9hRozTcplKwmWBZFa/GfWlw19OvRiRXXxIpN7OGVkIbtcgkz9nAXJIYk0mRRKoRHV/5K5qf/hyHhODX0NgBYmpfqn2qo/t3mKMdkGtk3T7G8aju8yOJLfoiihiOKWKLutylQWIJ5S1NSiPyywvXVuKM7bVf+I0onyYlM8ug8tuSlUakM5SUjE/TQHqILYm5v19sMZZG5Ie8rq0wDV4JlVYu+cM6qDy2ZaU0IrE+smBxdigOi3xW+0Yb0FgjhCiFmA1Nd2F/uZmo6lFAFVGiXFSDYksiU0I9scXoTYfu20Wjb0b1b+7ktKc4zBQ3T+Ulc7vTQ0RUTl+cEG+wpuQLFQIS5OoS1x21PFyEP0BYwEzlQ8KbAvhm6GzMm/A9imVG0eWZEE46+OLN+C2Y300lCIjyxGHONph+q6sR82nDaUSK5w8R80LKBBa5tsPH4kSrhNQNowKCLAQfTxMD7Y954ZD7lso8zx6B8WHmGKGJbtMdlVQ6e/aI8QgzH6GJIDQljchSz4j8o881nQeg0EtPTdS9TuSnMn0roJAfjoiqV2dntcHoWBdl9KeBCNGkxa50nmh26E5xH4fc+8B+gwXGqUQUg+dvWegej7sjVWmgKjbytuFGQFkZeZh+D1eD/SeZRjQJORfqeblkh7VL5hzjri7F0B4+uGy1DCfFywuzZIktWh4u2v0auicQ+9SfK2djxo+/4Z9/n+KJxtTle5UPjH5Uq95EkiynrG4j8eSNebbobGk0QiqJMZkstihTlpZW0DVxTuYyZenNdR585VSZ5xg1tzEmWUipO/fQfKbSJyNpsUVf1EiMzNgDttEHbx2xRbQnUoeO7YuEsyRyvPgfKtQWfiwjyqG6JLoYfVhOA7FFMzXhEfPLKXy/4SXaOX4vImdEhEuyxBZdvxt1s4aEkdexD7Fo0zUEnf8Pj14phOeKamt1KW59Vnr4E5Vw1v5eu5y3od/pG+TqL60x9kmMyWSxRRUFc6WtbiRKor3L1L6MbUexRSA14sViktiiEIasDYUhq79kyGr8fGmqQW708j7o/nN9rJHSXhTiAavLElT+KZkGudrDSNH41A2kstii8j7QPLQY4f5+sUWkShozyJUrtvyM+mskPxeFCDDqgiWVf8pSBrny6shh3I/hOtsMHr5FsUpKt1Etm3zzcaQX5tQKxURVepH6ZUuKxBZjkS1yFI2nKEN9S5TgBEyNbIEm+mYnvhDRML90UEblyGlJ08VcNhQU+dqH0M1gWUlhoCe8hBydt+Jp702Z0whREnE9cyakJ6oPN0kYHHAU7VTRcLpnE4U4HTWG+71hBqq8SFsmPlaNPsCqBNiyWVU8kM9505ErifnppiUaM2hVrkCsqMDW1i8OI3aK1ERlpejs+TF2ndRcLnQjVmRjYV9z+IZ3wAErN7z1DMcsKUeVYkvG2H8UG0SZ5MmiTLLy/J1Y7FClD/1jj327RkHbHks+15/oYzS1IyUTTL5B7q/otD8cqgzZlHSZbX6jc202IjzIESTuwkxf2yBX2zBXm1YiIUIYvDvWFdFP1fDD6mD0qV1Q6Quks917Ilu0TI+TU076w8SWVIhskaJzu+9Ba43HXbbZrUyeqO6Dr1Kc2NuoIX7OdR4VTnwugq2qyH4nqRLZYuDB3bTIFu3piHSeq5EYHngHh0qqfDbSM7JFh+y/mOh0Cju+UUXOGHlol6sdXSqqa5CrZy6sbjaR2PJGVFAafQG7vyyHnaPL4tt8SqOT5ES2yIyvFsN14V2TnDoCJokixoQKU6NNkthTHx84gZLrgPkLGsDOiK+M/HNT+6LYkkA7USrMh4gtkHLRu2JLrSXYKVXGMbKohks/v8WUVU4wX5JQjUi42YroFje8nLgGXY44YEHxOdjgWM1Iu6b4OKRsfMppfJjYsr+5bslO5ZvRg6ijfgj6ALEFqtLPb6esgpP5ErmalFyNSDgMHBbRLW4vJ2JNlyNwWFAcczY4wqDnqMmXigy4oXyjHIg3jYCzhb00hrjySE+I8pd9L+KLKufxRiVkqGeQIrFFdtn3EBFXEVinFSOr9GjZjfpqg1xDefyiY13PFmkkyuibrXX7o+CqCDRXiyqyCLMKVQZ8jrWHvk6cjqS1DPLN460JuL68WwZcnPcMaZ8TvnX9D27Hg6BV+VlywxYRJxfRx8hDvUJ8b22/BxVctSJiNF2ZLrYoj8PL6JGCEvaZArZcjW0JSiYhgMeuGYjWS0oa9tTSnmSsOMd2c8fZOj7Y7t8625R+NrTOyv0mBqPCQ2FrqM62/vlcNrgVJc6tvsXJ8E+UFfbky4qRNKJE1Ygyxd6WeQf571J0rzsfpVTeX/rXBkPpQ+rJyud+h0dwPrkJsl9uKnwMiy1Psda2LnwLLTRe+jkV+s7aTShEZZ76GHRJRMIK0ayELLbsQitR/tVNU/dV5VGys34KxRal38qZAWovNiVRZYpPBU2b8v9XfWXYs0X2/BmNRy4GPGKSWKAPE1vE3Ygw5W22sLTemEz1bGG5Z1OOHf0Hatkr5ZQlBuABzjVI8PNIWmxRVdz51TJpzxZDURKG/ETEwHU8WwxMRPbZ2GmpEjCUJZ0v6EdApKpni4FBqMogn22t4iQLD++wJFQc0xrzV6WfiNfrL1Imtsh8nmOEToqUUhSbW0xdlln5/8WlDXu2yL44wa/hreeX877944PEFrwQprzH4FtEb0wme7Ykp9yziX1RbElY8hSLLc82w67lbMTYLsbKMdXw5gVQoIA5nomHp06up/Flfw942Kic/mOuYcefceg0pA2kl6GG3jLH7nKCbUA8eszywOCvE/wF4v85hCVTfLCrgCPW+0smt8Y+pogtIgokheMzJLbI1T9mx8B28UqMqfZG7Ooip/9O4pvn36c1x9jDlTBuwSz0qJILz66EYcq4QJx5+g4NU0NskZCIByEn2wDE95gFj8FfQ5PaH/8PDi2ZAp9dBeC43j+LmisqBYu5F3Oi+byEUs/KPUW68bHH7v/yocda4d3SIGH/SZHYIgSshLdW89Gzch5RjWgnpk3yxe+RzxPEFu0KFYsnoomQt/8+Oke3GpFqKNINUpe1T5C75BDs3DNO9dZU5UVzT3iBtw0W6USqgZ9aDd9r5dC9TR1UFAdDbOQeTOvnhIi2mTSyRRZUhdlkpXFYMKsHaojpPj7/C6a7CC+Viu4qY2tDx7wCl4L6YuiKaBRqZAuH4TaoLRz4pU9c9D74uy7AnY56aUT/jRfG21aaxmLOrMKcWZtwJSnvjfddHTPM9zex7ocf8aK5NVrWLCW/SY2LPoiFHoE4aj4Qa7aOQqWb6/DDjy/Q3LolapaSt0D0wYXCGf4ozAeuEVVuKsmzSVS5KS4ax3eswYr1vyOm1GCErh2V9QRbo+t4EPPGXkDpfh3RUGYGxJxZjOleu/HG9kfj4n8iEUVZznzSwTh83jMUexNK2hk2yKXYkkZH1jWsGLMIz1t3R7s6ZeS8/1dRv8BvwiwcsrDHz+ETIVUA1rk2qNKHbg7cLszVpbqp+h9V5bm47+GxyAPN5NqgLxF1eDNuVXRFX6ny8mEnfD1gO8q4fkA1ItGMQkQ8tOq0CSWmrMScdkXw6tJC+ZpScFryHsrTCG7Gana3N4acLYq+bduhirwmD3FqiTs8Vt3GtwvVFX1+g3ONQTgoVd8J7ofquZ7ioqhAOGzmKTx52yyFYovy2j3/f6OxYZUDaouKPme2ucBtXgSuP6oNX3W0jFzVagIiqo9DkFcPlBZvkqV98ULu4egq9pnLflbosigOzacHY9p3RWS2r6IOY8vNipjcz3A57w8VW6AQ90t1huE3icf8Xqic5xWuyhUZTahGFCV866yCUZrlnpM8DhI9UMsCRRQu5MyPBVoRBe8TW/BU+KG4XMHvX5bGxgFfoJzwtnzx4B7O5KqIPpUNRMZoRqVVKWdsZbQQu9bt81d1qxHF3MHsI+J++rvCohpPLrwSaTXz513AbIuECjU3hUD51c9v5WpEHjUsxeH1QFllxoRqRLIvyHFLBE3/GgM+fYNXuc1FlSRdbNvWncSfBUqiyzf55edGPPkXc9dcF2ax+bFGXdEnJhJNJt3G0ybVsc22OEq8eYaDm8+hz9F4vC5YMmViS8xV1J8Qhf91rIMdnQrh0/gYrFt+BV7XXuFB2cr4z1kZ1/hICD3Vlz5DrS7VEdDUUlQjeoObJ58id/vSaASV583rgggcXQWt5WrZ4vtzonpoyeqwF+tj6PNhYouoNi2Eoi8CHkOqRrSy+WfIE/8EKxebVo1I+dtXcEyy3HPCqE3qi2JLArAUiy2iib93TcKYmYcQHQ+Yt56Joz7KuoOxJ0Lg4bcWf95+KVdvMPu0GMpbT0LwxGby21BjIf2Sf8CKGfOw/kIscor64Hgr6oQX/Aq246dgcGNtg0dDu6lpYkvKx2eohPeWSU0AACAASURBVPPf2DVpDGYeihZFv8zReuZR+JRKLLZIkSfLHSZg+VlRlu2dMO4VVUDsPYchdsqQhLLMHxLZosYheTSsmIF56y8gVvDLKSrZv31bEF/pmARnrPuh1BqNHN0RWsKAgZ3SYHbiifY6fi1SvykTW8QPRT72Lq/hmC44xyhywqJsEzgFjBG5/D1wy1kZhi5/FDexydEO3vtv4IU4EMwsy8NqWgjm25TTjc6So2B24HNR1vHQ5ISbeTkKZt4NtNDOxT/lj87jViDy7xfysZXToiiq9JiCJdOsM6dni4RJHPfBbjOx9cJ9vBSTMqnaixIwHh5bgTmLtuF4pHRsSX+TjLHFxblcQ7Qf6YwhdZVhB4aqEZneT2rtpWnZzn3s9XLGgkO38fBZvPDxV3McDg/XbsqKRPf3wst5AQ7dfohnMizBqnAlWA33gGu3hIpEiVjlMEe+ImXQxHYCRvfSEnLTcjoZpm1xjp82GYt+u4H70s5phFmi4Ro6nx92RVOnCFirjXKlHzGyJZ1X+i52uNhjzt4bePAkTlwhVefQ9mMxe0YfTUUinWuDMf+ML4cnRBxK5/rJjpj3y2U8lPw5clrgs3LfYnzgj+grqTcRXmhqswZF3Q5h85D3VydKqvT0v3unYsiUDbj4SCGf/+uMCMJykbZiqIR1OsPNWN2dWgzbH5biyu1Y+forrsCwrNgIQ9x8MbJ5QkUixbkgDLALwun7Yn8Q61a66XjMGfsITt2uwzFFaUTSpX8Dxg31xIFbqjbbuGOpSwwcv4vAEHWb0hVMVEuaYTcDWy89gLTbSPcI/X88AFdZS1Hg5kYXjPffgyvS2MQdncVnZfCNcyCW9zMk+qmiZ35pm2QkrFFTYPXq/XsEvg4TsfaUNCbRZzHhiTdnESY3TTpsK2Lat+i1py02nPRC3Yy1J2So0SR+oFZGCXhYVNAphftesUXM6nXsHUycfxOr/v5P9hXJbZEHDuObYlaSYov44Zun+DH4HCaefYVnb5S/s7atKR7Q8yur2Aixpb/fdex8qPIryZULVat8icWOFdFAY5T7DpGHTsNm/WNcjhP3E9I2tYSvi0NZVNIIJ4YNcvHyAdzniwqvka/xOten8PJqApeSusv0+87jcNjzCjeev8Fr6St5DCV1zWLFnx+d+gutlsWoxiCqFjUtj81lHqDczjwpE1vE3ZM0r65rY3H99f8hZ24LdO5bC97CUL1q5BcasQVytaQL6PHTQ5x9Ip61xL1BvuLFEeb7lRBbVIxDL4iiMi9xV7QjHmpRsEg+eIz8Fvbaeaha0/5QsUVq6tF5ERG+7B6OSWMSfZYoXxzLRldHiyTNqpXmzOOQvHLM7+2LYkuGOvdwMCRAAiRAAiRAAiRAAiRAAiRAAiRAAiSQbgTSvBpRus2EHZEACZAACZAACZAACZAACZAACZAACZBABiBAsSUDLAKHQAIkQAIkQAIkQAIkQAIkQAIkQAIkkHUIUGzJOmvJmZAACZAACZAACZAACZAACZAACZAACWQAAhRbMsAicAgkQAIkQAIkQAIkQAIkQAIkQAIkQAJZhwDFlqyzlpwJCZAACZAACZAACZAACZAACZAACZBABiBAsSUDLAKHQAIkQAIkQAIkQAIkQAIkQAIkQAIkkHUIUGzJOmvJmZAACZAACZAACZAACZAACZAACZAACWQAAhRbMsAicAgkQAIkQAIkQAIkQAIkQAIkQAIkQAJZhwDFlqyzlpwJCZAACZAACZAACZAACZAACZAACZBABiBAsSUDLAKHQAIkQAIkQAIkQAIkQAIkQAIkQAIkkHUIUGzJOmvJmZAACZAACZAACZAACZAACZAACZAACWQAAhRbMsAicAgkQAIkQAIkQAIkQAIkQAIkQAIkQAJZhwDFlqyzlpwJCZAACZAACZAACSQQuOyD5u32oO3uw5hc9cPBXF4zArPuDcTSiQ1h9uHNsQUSIAESIAESyNIE0lxsiQzohD6r7yZAzGGOfF/Wge34KRjcuAgv1ll698o6k1Pc+xVzRzhi2dl6mHN7ObrqTU1xcwPG2c9A+LUXUOS0QOk27lga0AvlDN2NHhyLGnYPMfn0evTNr2zofe3LG8VdxU+Og+CxzwyDU+nGOeusEGeSXgQUD48h2NkNqy/VguepAHTQ6Tge17f6wGNpOCIfxeOdON8XrmSN8f4T0LpIwsGgiAqD2wR/HLn9EgrkgHnhWujpPguODQommkb89a2Y77sO+67cwbP4d+J7sX2+L1GltS1cxvZAxTziT5EB6NRnNbSuNIDZpyhW/jvYThqHfjUTt5tevNhPNiMgixtL8bfWtM0sS6BSm7GY52vkmpCWiFJZbNnjUAmO/zjj1zA7lEjLcbNtEiCBDyDwCI6Op7G0aAX841oeBT6gJf6UBEjgwwikj9iyvwEClw5GWfmBMRoHF09HUPhzNPTZDv/W+T5sBvw1CaQpAQVubhyLwW4HYVGuGK5frZBYbFEcxLg6w/BbdVesmNsehV9eRPAIB/xSZjYOLO+Gz3XGp8De0bUx9tV0XBDfmYlHzfe2L37/7xEf2I/9EbeLfIH/XX2D7hRb0nTV2bghAgpEhblhtO8RWJQqjJs3yyYSW2LWDUbHUKCLsxMG1C4kC4QbPTyw+kErLNnphrqS3vJsFxw7eCK67WzMH9sYxXEPx5ZPgcfaF+i5ZitGVVL3rcCloL4YuiIahRrZYnC/jmhYykJ8GYNrO3Zh1bUScJ8zAKWkzWWxZT8aBC7FYPlCo7zW7PCdhJAzJeCwZR2GyBvyQwJpTEAWN3ahycqNGFlB2dejU0vgOWU1bjcMxKGQjlBp7Gk8EFXzKRZb7mJRB1s89UudiJj0mSx7IQESkAmcPo2Ci2OBN5bwXdAAdp+SCwmQwMcikD5iy8EWWLfdEZp7aMRizcDWmG85FceDOjO65WOtPvt9PwFJSLEKQLHpIZjw2BVVxyOR2PJ0ZU/UnVUYQWeD0Ub98j5qPtp9tw7fbjkJz7pa3Sj2YHStCcC8M1gobWxC+0AUFnXuizO9QjH/6y1ol4oh4e8HwC1IQEVAcRiu3Zah6GQ/ODzxRkN3GIxsiY83h7m5FrXoENh0XY0K/kfg00z8fZcj6rm/wdTjQeisCXa5BH/rATjabiO2jion/1hx2BWtnH5Hrakb4df5PVGQsthyEC3WbYdjwoVGNBKGUQ2nI945HKG2FPa5L6cDASPihnydEMfM1LObMDA91ZaUii1Pf0SvWsvxNYX9dNhp2AUJpCaBdwhbEI7BOctgwt83sL1BY/zRyTI1O2BbJEACySDwkcQW4ITH9xh9uotKhIlEQKc+uGl/FEP/GQPnFX8hVlELzuGhkO6P5bB1txnYdPYR4t8ZCzlPHL6er+ogLFs5DPKte/x1bJ02Ef6HokUbZvi0TFM4zfVG59Kqu31FFMKmu2FxeCQeSaHqcgh6F7iGjEcjEaYeeyIEHn5r8ac67F2EsdcbI97MdlU+GIgORPj8NEwOOILbLxXy78s0dcJc785QdyE/ZCwph1XLqmK9vRf2RMcjX9clOOCm/TSejNXjpulLYNsQVDAgtuy0q4AJmIer4o1lwuc8vBt3wom+x7DDISHYWrHXAXVEG37awoz6R0ba15lkSm+c05cUe8vqBGTBxJDYYmDiKsEjl+cpBEg5RxHeaGkfiUH7VqKfOrtHEQ4Xq8mIn3xMbCOdk+9jeR9rLLacjAMhPfBemSRJscUbn/icFFGUWX1ROL8MQcDYOfqIM+r0PwkbLfFCTh8dNwkr/4iR00+L1OuH2cGuaKIOh/z3CAIneGL5sRt4IW4rclp8hjKNXRC0zBbKoJk4XF3nhLE+B3FD2sDMEuVbTcEi7RRW/fEYG5/W9af++qHoNjUcMaJJzcdqLq6LaMxtQ8piIpT/Vn4UuH9oDsZPXoPT9+Pw1tA85D6vY9Txbrhg54mN58V8xWu2QvUHwU97vhFeaGqzBkXdDmHzECYpZYj9mYPIfATeRKGL3TXkH90S7rePouqpQrjsU0X5LKT6rPPbC6+SNRGE2xh84BkevPkf8nyWFz841sfgl5fRZ5mIOH3yFm9z5UazzjWxq9PnyK367eNb1zFxxT8I+ycez96I81JuC7TsXh2b2yq3OffTb/hmT3wibu2Gt8HPTaQ/v8M/Zy5j0ApVHzlzokT54lg2ujpaaIToWLg6/4lL1k3Q7/YZOB15IcYI5M6fD2OG14ZPDSnKlR8SyBwEPpLYEo0Qm65Y9oUPTsp3wEqx5fe8lRGTsyacJw5A7ULmKFC8AMyf7YNTJ1ecrjQOCzw74AvzePy9yx1j5keikf9+8aZUKZZEBnVDv5XxaDJ5FiY2lMLXo3E86jN0+156zRktbty7Y3F8Z8xeMAHNP/8Xh+aOwaT9ZTBjuz+kTKazs9pg6LGG8Fs4AY2/NMOLe9dw4uAjfNXPCqWebYZdywC8dQiGn20NWCoeIvryPpzP0Qud62n3D3Se7YfhtUR25OOzWOo8CWHmI7Bl3RBlqLv0gDIvBpU/eYyivT0wukUpWFoWQpG8tJnLFIeLQTHkGvysWmNn6104NLmazjSkm9JpeZfhfEAL1d8V4ka1KqblWYjTC9smjuii2JIpdgMOUnUuM1FsUYS7wGpSNAbvFKk8xSR60Vg1wAYLX1irzsd/Y83YYQh60hOha0ehmpxqtB5DrfxgPvU4ghLCX4yjTyKNaIV2u1w8EkhrAkbEjH+XdUH9mYUx/8ZSWEtj0Eo/XRMySET+XsUquz6Y/bA/fg6fiKp4irW2deH7bgJWLx6E2nkVeHDrPHaeyYEBNkpz2st+VuiyCOixeDHG1hX3PTGnEChSWDdbjMe+XaNQWuonBWKL7ElmZB76YsvTncPRfPQfqDplJeZ0Kw2LuChsmzAQMy82R8jpQFjJA5XElh/xwOILdAsUY61fDGb3TwgfNDHWIh44ub6fMrXq8GTUG7wZpVwOY5sdxZa03lXZftYk8PjACZTckQcHA2qiYcxV1J9wHy28voOPfEJQfiSxZdjlnChVoxxWDyghbB6eYLbvOQQ+y4XPc+aBy/gaGFgiJyIPnYH1hjj0dvseAeqo0agbcL34Kfo1KYRqed7hzO4IWG2OR3/tbTQ9vUPET0fR9ER+7JlbC81yicej46dQefFT1OpVC6FNLGHx+gXWhZzFpDsFsG1hHbQX24hX3LLYsuBxTiEwV8WGLoVRItcrHNl8Dr2O5sZ8pkZlzZ03i84qfcQWbc+WmGvYscIXy46ao++PG+Ao31krxZbV/3VNyOtXAY8OsUHXjdWwcLcHGmg0CQXCXawwKXowdgoho5j8VnQSbvXfho12BhLzRTh6U6fr6L9tIzRfq34TPXgn1okngF2O9eBrPhvhs6wSPwTLN/LHYK39e+0dQtXWfft9WKl5VSs2MBg+fxy1nPeIkHYaNma6Y8qgGHIJvs06YE97w2KLzhvAp2vQp85MFAm5iPlq/UUbAsWWTLdLZNsBmxzZEomgbv2wqcwMbBfCuiZCRUQSbhgzEHNOvUKOHO9QsIUvVnm1hMZD11ikijHghgxyxba5K/SCrxDWm5XUzmvKtqvGiacHAYOeLXMw0WknMHI79jsrRfm7wR3QbGFpA+mnS1E5VLpGKK8tv3U/hN2OWk9J6jnIKakjcc/pFLYM03IGk1NY1W2IjdNUbIlCYNvmWF1jFX6f0zTh3kk1tqjRqshOlWmwxXjduSg29kfVH8wTBKj0WB/2QQJZmsB/WDTjEALKf4MrvaXnjP8Q4vMbvEt+jaiBhTUzl8SWwbeLYf9CIYCo/yr5vATEot0YK6ytl0P113/FuesUdnyjbs8QvAcYNfoMrnRsjoNtPtHdIOoSang+QDPn7xBUTWrzGbxdj2NRmZq4aVdcEy2DN3+jr8NFXLdWpzwpxZa5uUvrRuW8uYUOQ68hz4jW2NQwSy8kJ5eFCKSP2KJdjUhVIWKIhyu6VVDfACvFlh319VNqFAgb1RDTc3nilBx/rvXRvtm/5A/rAYfQSj9fX7W5XBEpkW/MM6wfagX//Mrommf7nNBJnADyCiNGB4chaFklr5boonxgWPm0HNoOdoJ9j2+hc+9utH/lvA62WIftkpGAPOYXmvSoLLQfZY+pfKDY8nStLb6dWxarTs9EfUPEKLZkj/0oK8zSJLElFie8h2Hs/lJw3yqqFmn0ZfH3WSMw/uc4NB0sUvP+3oANe6KQp603VnpZQd7MiNgiieLuxxIANlanJhnaPv4fHFrygzDejUHb4DBMVkUhZgX8nEMGJmCgGhE+qYR+S1bCrbmI6FANPXE6jvTFCbjV6Y2TffYJUaaiKnLlCSp0GQm3cf3QSDaIVn3OTUezTvvRPpGnit4LgLQUWxQbMKjiZOSadwvL9Er06cxPJUC12n4MbjW11s6Ua14GXmoOjQQyHIEHV1B30kM0m1QH44sqR/f4t7P49ldLHWFFFlveVsJzl7IJgkfURVSZFoNuOlEwStFja92kxBZj28TCfdIpIaxUx98OJZX9yGJJJMw0KUUJBOUxoQr+c5bEZWWbm2rXw7V+2mUmRIrUwCuAgd9nuLXggEhARSB9xJZEQoc+fz1RQvO1sb+LDbRv9t9z469/g67Te+MEISf++m4sCQzBphPRePvZ17B194aDujy1SB36a8NCzF21H1eeiNC75k6Y49UNsl5ktH9DYouJPgfcRTMegRSkEU3OFajycnmKlTa1sbjKJhz3qmd4bqbceNKzJePtF9lxRO8VW0QlIeEbMWhbITitDIKtxrhKKkbkiA6+bzB+y3x0U4WyKB6GwdlmOm51VQnTRtKI4h/fw2M5FTwcnh3n4ZOkxBZ5XZSiup85zdiz4276Ueasf46OCkJHq2AU9ftdCBJqQwKlILLsjuERfjFCHSkp/FD+/BF+XiHYdf4xcpVtBdfF/uhdWYguRq8X6Si2JHE9Siy27EFbfWHIlGveR1lEdkoCmZPAza3CoyXspYHB50QPrYgVXWFDtbmJYsur6CjMWH8Hq6Je4+nzN3it+nnZtrqCzLmNh9Eg3BKbNalBYkODfSgbMCS2JBZ5KLZkzj0ze486g4stqRPZcsnfGgNOdVOmHJmy3sJMd/dMV3jteoouoXvhUkv7Rwo8/GsFPJyX4VT5SUrzxmRFtlBsMWUJMuQ2KTDIPdRV+YYSd8UNd6OVqKNfnUh7oqbceFJsyZC7RrYbVJJiixBalg+FwypgQHAohsipogkfSfz2zKn260r4u3yePtoOG7eOEkZ+SqF6c1UjqZ0Q5aOVDr1K090k0o5ksf1Wf72KeNluxTjh9CKQ6BytwB+ujdH3QAusPSaiGuXDQYFN/SvBq6C2p1fSA1Tc+xOLJtkj6PdKmHZ6PfpGpW5ki7JaUt6EanumeLYkK7KFYkt67YLsJ7sSeARHx9O40F4/needEDIOYPQn1XB/zBdyhEmKxZYHwgPmhyi8alId22yLo0IeKTXIQGSLnD50D3VGf4+VddQpSWLTZEa2UGzJrvty1pp3BhdbRE2K5X1gvaIUZofPUhqtyR99zxZx493YHfeGGfZskQ0aJ8dg1B5R3chkqxRlKdKokaqbeb11V4SNQsPQSqobeFESVVQeuq7vGWPQs4ViS6Y9hIyIIXJ6kHdBBCZR+jkqoA1abPkOO4R/UFVjACi2ZNpdI9sN3KjYIsToMGfYeEejq8aTS5fOPqdv4fqfG44Hddbxx4rwbgn7i300onisqIjS1u8ReizfiEk19T1XTBVbVGbsxT1xTKgytCLPdntq+k/YkEjxdCuGNZyA6wMSvL3ka8LaOloCjAlDlcWNIFSRI0QOYly1Ybhqr+fpYpJnyy7opvQosHd0bYzaWT95YgvuYlGHxgguu0jX9N2gZwvFFhNWmJuQQMoJXDqLL/ziMM2AeezrUxEoFqyAr+q7lIot0SIVsMKW3Fix8hv0UY9Urn50BVdaqSNbDKQPaWb1ArOnHoNvkeoa4Uf+yohnC8WWlO8O/GXGIZDhxRYohJDRygm/S9WIZnRGRYs4XAuboleNSBWyvhZo7emJUbWFKz9icOa3x/jatpmIZlF5rsQ3weRZEyEVK5JKJkYf34Goco7oWRs4sykAN0t3xPc1y6EAHuNmuC9GTjsDKymypeheLN9ugW+6fI0qRcwR//AvrB43AT9aOmrKkkYLUaj74ni5GpFDA+Gif/cEgg1VIzKxgkfG2UU4Eg0BY2KIQpR5btEJm0u4YsXc9ij88iKCpSoLhabg942D8DmUJoK72xkxOlR3QLGFO1tmIWBEbIkVf+/mfhXNZoVgpF5EC3JaolCRvKLiiCtaOf2OSuMWYFaPGvL59vwv0+HiexoV3beKSBW1Ih6LXU494XkUKNd2MJwGtYDasiLm2lLMcNqOYjqRLfvRIHApBpdVQRQV6Q4u9EDg4bfovGQn3OpSasksu1emHqeRiJAoYYjbem4euJ7chIGSBcHTHbBvMhYnyw3H7DkDUe1TadYPcWXL73jVYxQ6lriLHcGbkKdRL3xTvZio8nMfJ5cOxYjgvJgsRbaIjCRlm3FyNaIJTURxgOgjygo/SVUjwm9wrjEIB6uL61VwP1TP9RQXN47DsJmn8ORtswSxRTZ098CjQWuxZXJNvHkOFCxokaj0s+LgWHw79JBcjWieTRVYvLqCTeMMVSMyQWw57ISvB2xHGVdWI8rUxwAH/xEIvEPYgnD0fl4W/7iWF9dVvY8sZlzCQ5vvsL/lJymPbJFNdJ+ivV1dLKxvCTy6h9lLb+DHu3HI951SbFGmD+XByrn10FM+r+l+Xos2vgh4LFcjWtn8M+SJf4KViw1XI6LY8hF2JXaZ6gQyvtgiTTn2BAJcPLHp7CPEv8sB88K10NN9FhwbaIepxOPc6knwWvYnbr9UADnMUbjRBKyY31WZOiSqX4RNd8Pi8Eg8in8nf5/vyzoY6ROInsK79szifpjy0w3cl34LqY9KsB7vjwmti4gShXvxw+hZOHLnmehffC1Mfst8MwzTZvdHwgtXBaLC3DDB/4iyf2kbEe0y17szNHYF7/U5SPX1ZYOpSSApMeTfPXAfNBUbz8dAkdMCRerZYeGP41BH8jOU3zTuRrvf9mKsgaISmiFSbEnN1WJbaUnAyLksSX+sEupUHhH9ciwYbjO34sL9lyJOUXm+tRrhjamdS+tFn8Tj+tb58F23GxdvS9tKHzN8WuBzlKrcBL0nT0aHL8SfDFYjEtuV+QZ9nT1gp3OtSEswbDvbEzCW6qkQ5reNe2P7V3NxdHk3Zanjf48gcIInlh+7gRfSzm1miRJVusNjjQes8guxZcwAeB64jSdxb+X93rJiI4yetQjD5AuLfGODmxvHYqTXQdyQGhC/L99qChYJv6Ryam3RwHgU54IwwC4Ip+/H4a24XpVuOh5zxj6CU7frcLy9HGqv2zvbRmKw635ExQEWnRbgfGC7RGKLcho+GD1xjaa9IvX6YXawK5qofS2NMdG/5kV4oanNGhR1O4TNQ1j6OdsfSwRgOgE9McXQD38JPoCu90rh+vTKOKJjRqva2iTPljgc/OkMBh94hgdvRMW//PkwZnhtNDlyDE4F6gixBcoqQo8Sj6Cdlqnto/MX0WfZPRx78lacg3KiRPniWDa6Olqoba0MpSbJTdKzxfSdgltmFAJpLrZklIlyHCRAAiRAAiRAAiRAAiRAAiRAAiRAAiSQHgQotqQHZfZBAiRAAiRAAiRAAiRAAiRAAiRAAiSQbQhQbMk2S82JkgAJkAAJkAAJkAAJkAAJkAAJkAAJpAcBii3pQZl9kAAJkAAJkAAJkAAJkAAJkAAJkAAJZBsCFFuyzVJzoiRAAiRAAiRAAiRAAiRAAiRAAiRAAulBgGJLelBmHyRAAiRAAiRAAiRAAiRAAiRAAiRAAtmGAMWWbLPUnCgJkAAJkAAJkAAJkAAJkAAJkAAJkEB6EKDYkh6U2QcJkAAJkAAJkAAJkAAJkAAJkAAJkEC2IUCxJdssNSdKAiRAAiRAAiRAAiRAAiRAAiRAAiSQHgQotqQHZfZBAiRAAiRAAiRAAiRAAiRAAiRAAiSQbQhQbMk2S82JkgAJkAAJkAAJkAAJkAAJkAAJkAAJpAcBii3pQZl9kAAJkAAJkAAJkAAJkAAJkAAJkAAJZBsCFFuyzVJzoiRAAiRAAiRAAiRAAiRAAiRAAiRAAulBgGJLelA22kckAjr1wcEW67DdsZLxkTw7jDmuB1DVxQvWpT7qgNk5CZAACZAACZAACZAACZAACZAACZDAewikk9iiwMNjwXB2W41LtTxxKqCDaQujeIhjK+Zg0faTuHH/JRTSr8w+RbHy36LdCGeMalJUbicyoBP6HGyBddsdkUiyiAxApz4H0WLddiSlZ7xvQIqHx7Bixjys/fM2XkoDydEMPif90drQD2PXY2hbP5xt+L65mii23FwCG9ufUGX+IXg1et9I9b5XXEJAr6E4Z7MLobYFTf5xsuaLWKwf2hZ+ZxvC81QApNVVXPJH90Gn0GXLOgyhQGQyd25IAiRAAiSQiQlc9kHzdkvxt4EpNJ93C8u6bsWwMhMA+d+JN9o2pCwmYi6uL++m/NJQe2aWKFGlFUb6eaN3ZYtMDItDJwESIAESIIGsTSDtxRZFFMLcRsP3iAVKFb6Jm2XfJ0CogMfuglNPTxxFObTt5YCeHSuikPgqLvo4dmz6Ba87LsLEZmbyxmkutkQKsWNgKP79ehhmOndB1VIFgMcvYFakAMwT7R/RWN6nP35+kQt3y45/j7BkothiaB887IqmWxrjyHuEq+jlfdD95/pYY0iIMrZvJ2u+gNRH/59fINfdshivEluE3ILDrq3gHDMaB0J6IF/WPo44OxIgARIgARJQiSO70GTlRoysoAvEomBJFLRIidii196jP7F6vh9WHnqGKpPWYqNDDSjvhvghARIgNpHGuwAAIABJREFUARIgARLISATSXGxRCFGg27KimOzngCfeDeEOU8QWSbDojsXxtli2zgk1EysaOgzTVmxRjmVFATeEBXXG+2JDJOHBZmdjDK+yHsEvJ6eZ2BLh3RL2D98n5hyGa1NnxDgeQEgPU+WO5M1XKC3oY7MTjYdXwfrgl5isEVtkFUxEFR2D9baNsGN0S0Y67jkWEiABEiCBtCAgR6LsQdvdhzG5qqEOUiK2GGpPgfvrhqCV61V023ISnnXTYjJskwRIgARIgARI4EMIpLnYoj24XY71TBNbpKgNpwhYh+6FS633Ty9ZYossAKzGXf1mGxsRgeTtf0FjU8YSGYRuA4W4sHEdivqZMldVZEvzAIx+Mg/e+6UUpRwwL9UcE+d7o3Np1bsqnVSoM5jXdTR+io7HO80cSqC/oTQpmeMDjAoPha2ktYiUIv/uA7D9K3/s92mmehOmQIS3NewPN8OSnW6oeysZ80UkgroNxDHrjVhX1A/13KFJI1IO7QMid96/7NyCBEiABEiABDIWgXQTW6RpX4Jvsw5YW3MRTi9sy+iWjLUncDQkQAIkQAIkgAwptshRG8fbY9VOJ1QzYZFksWV/AwQuHYyy+tvfWoHhY0+glRHPFsWlAPQa9AvqLtoJt7qJA3GfrR8Kq6Ci8D/ig2ZJjUXljfKHJDwIkxLThCWlGLH2fn5U6TsVHr1roYDI9P7V1wW+f5aFW1gQOkuhNAZ8Z0xp/5K/NQYcbYeNW0eJZCzlR/ZSGbAX9Zco56v/f5PnK9KELgX0wtA/rLFRvF0rtcvRgNgCIeSItbzYBzvFNsVMWEtuQgIkQAIkQAKZloCJYkv81KOY1TbxLPdObAIfc33PFuORMn+41kHf37pi27GpqJFpoXHgJEACJEACJJA1CWRIscUUIUF7OWSxZXWiWBWtTYxEfsiRGf2wve4i7HSra/CtkNz2by0wZ+A/CPI/gtvCHTeHeWHU6umOWY4NVGlFKuHhnA12hdrKfzNtDkqxZbW5HbZttIMm00ZxAh7tRuN0R1WVohSJLQqEjWoI7098cNJf28ZXjNW/OwbsrY8lYV3xm80A7K2/RDN/0+YriTZCpBp6Dja7RNSMcsIGxRZF2Cg09Mv/frEqax5fnBUJkAAJkEB2IiCLLYY8WyxQsGRBWECZRnQoKSZWpostl32boePiCphzezkM+O1mJ/KcKwmQAAmQAAlkOAKZR2zRT/8p0V9TfShZaURaSxAZ1A39NlWB334RtWLEXW6f07dwPZ0XpaoNhpd3D9QQ3rj/HJqLMZPCYD5iixzFIgsPDpEYuFUViWJAbFE8f4iYF281vZsXKI4C5kqxZX/zVdjppBvDoyPWpEhsSSKFR5VOtPdNETx+2xiLpPQh1fxNma+UjhQgTIsjB25FkBx6Y1xswT4nfOv6Fu7aXi4Z7jDggEiABEiABEggFQgYrUb0vUoQSS3PFuVYKbakwpqxCRIgARIgARJIIwIZUmwxmEakeI6HMS8gyRW3VgzH2BOtPkxskfxV+m1CFb/98DGmtIi+5LEcboXQvS7Qto/RpOhs+B4/dx+Gc12WYWY7ocSoPuGeHTEP47HD3QqSsPJoiW70TWPPUwjoYFwQSVOxRYzx4Y/90H7hFVQZ/QvWDCqiGfd757vVDvEiMmbYuS5YNrOdSHvSTBgd5wHjd7jDyrwAihdQuRrLQtFN2FNsSaNDmM2SAAmQAAlkGAImphElr/Tze9KIjvbADuHRZtCPN8OA4UBIgARIgARIIPsRyJBii0KkpDR2v4dhRqrY6EeyJD+yRZk+tKmKn5ZRrOHFvy+qC1kfaJnIc0T2NllXE+v8AGdDhrtazSmFFUPtK8WWHSKN54BIY9L+pKnYIspqO3bzREylGrhz2RzOam8YMYD3znd7O+yWUp+SytrSNhtmZEv2O6twxiRAAiSQXQmkp9giUo7dGvfG9obLcD6gRXYlznmTAAmQAAmQQIYlkCHFFigi4G1tjz0VXLFlfjcU0Uvx+VCxxZT0Ic2KRYfApvsf6LZH5U0if6HACY92GB09DOHCo8VQUeUP82wJh4vVJEQP3inSlIStbIrSiJ5h/VArBBX1xxFReSjhEyvsVbrB89EAbFnXBadHdYYfnBPKWqdwvkl6tnh/Ap+T/tB2jsmwRwQHRgIkQAIkQAIpJZBuYosC533boMdSYPjOcDgzrCWlK8bfkQAJkAAJkECaEciYYoskZ1wKQt+hKxBdqBFsHYbDpnYhJYS4aOzzd8WCOx1TlkakSh8qM2M7/Fsbkkn0WT8TtiOdMOV2K8z2c0Ddwgrc3u8LF9/TqJJEG8kRW7Y9K44vu07AjCGNUeTNFWx2GYP5kXXgs10IFNIQDYgtZ2e1wdDdVeC6dhY65otDvEjdyasnShmqBBQrooa6eT7CgC3rIOxmgNj1GNrWH3Dag1DZ6TZl8zUmtrAaUZodu2yYBEiABEggoxFIE7FF13D30aXNWDN3JXZcA5qLVOglXT/PaBQ4HhIgARIgARIgAUEgw4ot0uooHh7DijmLsO14JB7Fv5MXLId5PuQvVg4N24+E85C6clRJctKIjFYu0k590d81FA+xb64T/MKuIFYBmBWsglajvDG1c2mDFYykn5sutjjghWsovto6DnMORSP+nRk+LdMUTnO90bm0Sj0xILbgWQSCJvyANX/FQmFWCQ5rhXiiru+sHr/I4W7q9ACjwkVUjgQqNgyjOnvj8WClsa/6EytSopR6iyp6JwXzNSy2RCPEpiu21A3FXhdtxxseeyRAAiRAAiSQBQmkidiyFH9roTKzLIgv63WHww/j0bmyRRaEyCmRAAmQAAmQQNYgkK5iS9ZAlolmoZDSkSbjseMBhPQwJYonlecmpSR13YK6oXtBrSWV2bI5EiABEiABEiABEiABEiABEiCBDEuAYkuGXZrUGVh0iA267mysSblKnVZNaUWBw66t4PxgBPYIXxtVgWhTfshtSIAESIAESIAESIAESIAESIAESCBTE6DYkqmXz4TBKy4hoNdQnLPZpfJkMeE3qbCJ4pI/ug86hS5qb5hUaJNNkAAJkAAJkAAJkAAJkAAJkAAJkEBmIECxJTOsEsdIAiRAAiRAAiRAAiRAAiRAAiRAAiSQaQhQbMk0S8WBkgAJkAAJkAAJkAAJkAAJkAAJkAAJZAYCFFsywypxjCRAAiRAAiRAAiRAAiRAAiRAAiRAApmGAMWWTLNUHCgJkAAJkAAJkAAJkAAJkAAJkAAJkEBmIECxJTOsEsdIAiRAAiRAAiRAAiRAAiRAAiRAAiSQaQhQbMk0S8WBkgAJkAAJkAAJkAAJkAAJkAAJkAAJZAYCFFsywypxjCRAAiRAAiRAAiRAAiRAAiRAAiRAApmGAMWWTLNUHCgJkAAJkAAJkAAJkAAJkAAJkAAJkEBmIECxJTOsEsdIAiRAAiRAAiRAAiRAAiRAAiRAAiSQaQhQbMk0S8WBkgAJkAAJkAAJkAAJkAAJkAAJkAAJZAYC6Sa2xF/fCh+P5fjtxn28VAg0Zp+iQMla6P3DDAypmw+RAZ3QZ/XdBGY5zJHvyzqwHT8FgxsXgZnqm12O9eAOT5wK6JCY7y5H1HMHPE8FwMC3mWE9OEYSIAESIAESIAESIAESIAESIAESIIFMTiAdxBYFLi0fCofga8jbyBYOw21Qu5CgFnMNOzZtxv91D4R9LSjFlv0NELh0MMpKUOOicXDxdASFP0dDn+3wb51PRk2xJZPvcRw+CZAACZAACZAACZAACZAACZAACWRxAmkvtkQGoFOftcjV/0dscKymiVDR5yqLLQdbYN12R1TSfBmLNQNbY77lVBwP6iz/lmJLFt8jOT0SIAESIAESIAESIAESIAESIAESyOQE0lhsUSDcxQqTzlgjdK8LRACL0Y9hsQU44fE9Rp/uohFhKLZk8j2OwycBEiABEiABEiABEiABEiABEiCBLE4gjcWWCHi3tMfx9quw06lakigNiy3RCLHpimVf+OCkf2v59xRbsvgeyemRAAmQAAmQAAmQAAmQAAmQAAmQQCYnkMZiyy44CsfaN1OPI6iz2uLWMLFEni2Sp8sKXyw7ao6+P26AYzXl7ym2ZPI9jsMnARIgARIgARIgARIgARIgARIggSxOIGOJLdrViES1omLlv8MQD1d0q2CuWQaKLVl8j+T0SIAESIAESIAESIAESIAESIAESCCTE0hjseVD04gS06XYksn3OA6fBEiABEiABEiABEiABEiABEiABLI4gTQWWxQi7acx3O8Nw7aNdiiVBExjBrn6P5HFljcJ1Ym0v1eEjUJD70/gc9IfSocXfkiABEiABEiABEiABEiABEiABEiABEggfQmksdgCKA67opXTEVSfGiZ8WwoanZ2pYsuzzXZoGWAGt7Ag6DYXi7BRneGtcMSBkB7Il74c2RsJkAAJkAAJkAAJkAAJkAAJkAAJkAAJyATSXGwBYhHu2g+T9z1GUavBmNi/IyoWEj3HRePcgQtApyFoUwwwVWyB4hICeg3C2vgmGOsxGi1KWchtHVzogUA9M12uMQmQAAmQAAmQAAmQAAmQAAmQAAmQAAmkN4F0EFukKcXj+u4AzAr6BRfuv4RC+pMwwC1QshGcF85MntgiN3cdW6dNxsLf7+BZ/DsghzkKV7LCCO+p6Fw66apH6Q2Y/ZEACZAACZAACZAACZAACZAACZAACWQvAukktmQvqJwtCZAACZAACZAACZAACZAACZAACZBA9iVAsSX7rj1nTgIkQAIkQAIkQAIkQAIkQAIkQAIkkAYEKLakAVQ2SQIkQAIkQAIkQAIkQAIkQAIkQAIkkH0JUGzJvmvPmZMACZAACZAACZAACZAACZAACZAACaQBAYotaQCVTZIACZAACZAACZAACZAACZAACZAACWRfAhRbsu/ac+YkQAIkQAIkQAIkQAIkQAIkQAIkQAJpQIBiSxpAZZMkQAIkQAIkQAIkQAIkQAIkQAIkQALZlwDFluy79pw5CZAACZAACZAACZAACZAACZAACZBAGhCg2JIGUNkkCZAACZAACZAACZAACZAACZAACZBA9iVAsSX7rj1nTgIkQAIkQAIkQAIkQAIkQAIkQAIkkAYEKLakAVQ2SQIkQAIkQAIkQAIkQAIkQAIkQAIkkH0JUGzJvmvPmZMACZAACZAACZAACZAACZAACZAACaQBAYotaQCVTZIACZAACZAACZAACZAACZAACZAACWRfAllSbNnlWA/u8MSpgA7Zd2U/9swjA9Cpz0G0WLcdjpWSGEzkJkwMfIBe80ajntnHHjT7JwESIAESIAESIAESIAESIAESIIEPJ5DmYktkQCf0OdgC67Y7Iqln7g+fSkILxsQWxcNjWDFjHtZfiEXOnDmBt2+Rq0QT9J0wGr2+LoKkn/V3wbGeO+B5CoY0nER9Jik2RCKgUx8cbLEO21VKhMxp9V0dDGafFkP574bAw7UbKpibRij++lbM912HfVfu4Fn8O/GjHDDP9yWqtLaFy9geqJjHtHY+eCtTxZaDk9Dwh/sYuX0VBhT74F7ZAAmQAAmQAAmQAAmQAAmQAAmQAAl8dAIZWGy5j+V97PDc4z2REQYQGhJbYnc5wXYxMGKOJzpWyasRVuL/OYQlU3xwoPhkrPSxQkGjS5IOYsv+BghcOhhlVWOIObMRS4PX4/fnFeEQHIoh1ZKSgxS4FNQXQ1dEo1AjWwzu1xENS1mIlmJwbccurLpWAu5zBqBUeu1ypoot6TUe9kMCJEACJEACJEACJEACJEACJEAC6UQg44otz9ZjqNU61HxfGooJYoviUgD6egAeax2RKzghgiSHeSm09QqFlxWwy7EnQistwtZRxuJv0kFsMRQBpHiIreO6w+e6NUL3uqCWkR1DcdgVrZx+R62pG+HX+X1ROumwd1FsSQfI7IIESIAESIAESIAESIAESIAESCAjEkh/sUV+CL+Job90wGUnP4RdiYVCxJkU/NoWXrMc0UCEltzfNg4DZh9FrEILWWO1B4sCD48Fw81zPf4SG+QwL4xaPd0xy7GBJipFN7LlGTbb9cZV+5/hVtcMcrrOTXvZzyU2bBQ6++WH9xEfNFMchmvbNaizLQQ98hlaqo8ktkhDkZltRtXZ4ZhlZSi6RYoCssZiy8k4ENIDBoevPaVdjqi3pBxWLauK9fZe2BMdj3xdl+CAW108u7weft5r8NuN+3gp+EuCVAMHb8ztU00VDaRMgbo59Bd0iHCA9/7bYjuRqlSqAew9Z6N/TVW+k0psaR4wGk/meWP/7ZeJ1lkekjQWOTsrABqHnfjr2OrjgaXhkXgkUqFymOdD1UHLsHJYOcSeCIGH31r8KbenTJGqN2Y25nctlxGPL46JBEiABEiABEiABEiABEiABEggGxL4SGLLejwyLw7rGX4YXrcwzB5FINh5EsIKTUoQC4xERqgjOCqNW4y5vcoDNzZgwohAxPRco4lK0RFbpAiZfg/govKM0RZblCLGTdirHvQjvFti+Ve7EdTZkKCRErFlPxoELsVgdV6QZge7hRXDx+JEKz3PFqPeNhHwbmmP4+1XYadTtcS7qRwF5AfzqceNjF3vJ5LAMS8GlT95jKK9PTC6RSlYWhZCkbxi3sKwNuBkaXTsUBPlLBW4snYchi/8G9ahe+Eih9UoxZZtzwqiSDtX+A6uhQL4G7umjMH8M+XhvCcUtlIulsx2Le6bfYHOM/3g0KAUcgnPnMBxeuucSGyJRFC3flgZ3wSTZ01Ew0JAXPRxRH3WDd8X2wy7lgF46xAMP9sasBRRP9GX9+F8jl7oTHfdbHj64pRJgARIgARIgARIgARIgARIIGMS+Ehiy2qY223DRrsEBxGFiDJp6P0JfE76o7X8TG+omo0ygmNFqdkIn2Wl8V2JDrFB19UV4C9FqIif6ogtUjtBFbBd5Woriy2Xe2GHe00cdB+DwBcDsGXdEKWXiXjw73R9lMa0VnfJUiK2rIau5a1uiyX6myq2KAWO1WWNVFhKbsqOLHAcRy3nPQiVlZGkPkqh5+awcLGtFDOjGou5HbZttEvwgFGEw8VqEi73UM1JHpMJ66wntijCXWA16Rb6b9sIrd1DOUC5zWOwNvRdxjy+OCoSIAESIAESIAESIAESIAESIIFsSOAjiS370XzVTugEaehHOBgUEIwIHhHeaGkfga4bt2KUyCZ5r9iy/ikK5H6Nxzmaw2/3TDRXV/pJdbHFWOljI9WIjEa2pExskTkcS9irG6srKcmsX8A5XEShvDfnSH+syv/vb/7/7J13QBTX+/XPTyVijRpb7BVLEntsqDGosWtsSOy9YEEBkYAKqBhQLKCigmI3doNKYiXYS9SvXYNYCPaCigV00fe9M7sLu8suLFKFM38lMnPvfT73zuzcM09J6GWTgHsfI+ZZZ96vzuuEASFtDFSvUnm9vKyEdoNtMbJnQ5Q2skpTNry3aTIJkAAJkAAJkAAJkAAJkAAJkEAGEcggsUWPCGGM2KLyltDvLVIK/VXJdI0KI/IqAKc204Dp+zGrhTJsSNroL668IxXDiFJLbFF6l5zqHO8Jo7VeDIQRxTx/gOcx0pnBcOs8H7m1xBadPCmqBmPC/sIynxXYfe0JXj+X8qIoj3gvnIRCkXosCcUWI+ZZZ94Nle2Os1eEDv1v0yLMXbMf11/kRNmWtpgz3fjS2Bl0n7FbEiABEiABEiABEiABEiABEiCBbETg8xJbFIEY08QLX847IgQSw7NkbILciIA+6PFHI6yT8rkohKDx8zJU+z3xBLmxevOiKBA4pgncc8/C6XlyEJSBMCj1mJPn2aIQnjudRu5BfYN2K9vbWkM7vCqekI5HkL6ktNLJEQHo02MpYrqKhLPjzVFOyuGiChs62Eot9Cj72tVImVA3/lAymJFLFepkKLRJt+9kebZozrlIlPy/lXC1X44zlTVy/WSjm5emkgAJkAAJkAAJkAAJkAAJkAAJZE4Cn5fYggj4WXbDttrLsFts9PWlsZUw63pHKEs/f8CUNbYwXRZfjQhSBaI2zngzaR1+PmKNhV/PwSYbddUd3QmTqhq1hreJMwIXd42rfCSfFSlEoK7uUNgcgJ+6lFGieVSSIbYorsK79yCsx0Cs2z4GhgpTR24cinZeT9AzYDMc1BWB4kwwTmx5KMSnTr7FtCsDKcS15i643VdbbFlrIGdLxODd2DCkpGGxKQmxRSH+bu7yAMOMzMsi5/pZYWYg7Chz3nQcFQmQAAmQAAmQAAmQAAmQAAmQQNYmkHnFliip8sxsPLVaitXjaiL2NVC4sCmi9tmii9M5lOvvClfLasgjzc/TG9j1TzS6DGkLsc1PILbIekiQLay8Y9DT0xWD6xaPE2pi7oVg2ZRZCCpsg43zOmqLKDpzL4k2vQetR0yz8XAd2wplRefREQexyNUHR037YtUmG9RUK0CfIrbsbwwf/8FQFi96ihu7tsB30x7cQjO4bJmHjonmso1EkG0vuB0FKrUbDNtByvEp8fhjpu1OlEwqjOiwE5rbnoX5DH84t/4aeHAMAS7e2Hk7Avm6aYstW5/nR7F2rvCyboxSuIGtk0U1otB6mLVTJDiW8+jqS3AsT452qWfd/48Tl36Cm9sY1BHViPD0PA49rwsrswsI2JkH3/9cF9WLmyLm8f+wdoIdVuW3Ma7kdda+l2kdCZAACZAACZAACZAACZAACZBAJiGQecUWAehukAPG/RaCCJF3xPSn33B0VisZW+RJP7h6rcc/d5Q5RUzylUTlTg7wndQC0j7fUN4PhSg9vHLmfGy8HImcOXMCHz7gQ5FvYTVxCgabxwswic1NTNh2THNchOP/RSHmI5DDtBjMLEbBfWpXlNd0tfkUsWWtZjYaE+QrXBq1Ow3F+JHtUcWoRLAxCNu+AB4b/sIVFRtBR7TzFcpWa4ZfHB3RsYwewSPO4Eic9J6MaRv/h0gB1qSIEDime6Luzq7wKrFCVaVJ5ZXT8jcMfbhMVIC6gzeKHDAt2xKTFrijqxrCp4ot0lhiLmKtw3Qs/0dqW8m4qd1KLGhyAb+O9cQRFXsx8ajw/TBMm90fCZx5MskNxmGQAAmQAAmQAAmQAAmQAAmQAAlkPwJpLrZkP6RZ3WLDCXKzuuW0jwRIgARIgARIgARIgARIgARIgASMIUCxxRhKPEeDAMUWLgcSIAESIAESIAESIAESIAESIAESSIwAxRauj2QSoNiSTGA8nQRIgARIgARIgARIgARIgARIIJsRoNiSzSY85eZSbEk5Q7ZAAiRAAiRAAiRAAiRAAiRAAiSQlQlQbMnKs0vbSIAESIAESIAESIAESIAESIAESIAE0p0AxZZ0R84OSYAESIAESIAESIAESIAESIAESIAEsjIBii1ZeXZpGwmQAAmQAAmQAAmQAAmQAAmQAAmQQLoToNiS7sjZIQmQAAmQAAmQAAmQAAmQAAmQAAmQQFYmQLElK88ubSMBEiABEiABEiABEiABEiABEiABEkh3AhRb0h05OyQBEiABEiABEiABEiABEiABEiABEsjKBCi2ZOXZpW0kQAIkQAIkQAIkQAIkQAIkQAIkQALpToBiS7ojZ4ckQAIkQAIkQAIkQAIkQAIkQAIkQAJZmQDFlqw8u7SNBEiABEiABEiABEiABEiABEiABEgg3Qmkk9gSg7Dts+DqH4zQJzH4KMwsN3gzto+ppGWw4vEx+No7Y+3V2nA7442OWn8Ngk0DFxzTRVSqPzbstIFZuqNjhyRAAiRAAiRAAiRAAiRAAiRAAiRAAiSQkEA6iC1R2OfQDVOOfIX206ZiVOOq+DpPNB4r8qN4ARPViBQID3TGWI8jyFO2GG7dqmhAbFmCEj7+GFxRw5Cc+VG0eAGoW+IkkwAJkAAJkAAJkAAJkAAJkAAJkAAJkEBGEkhzsUVx2AltbC+jy5ptsK1pQBJRHIZT9+Uo4egF6xfuaOKChGLLrcXobnkQrTZvh45DTEbyY98kQAIkQAIkQAIkQAIkQAIkQAIkQAIkoEUgjcUWBYJszOEW7YADfj1R0Bj4QTYQ0UIJxZZQb3TpcwsjE4QXGdMozyEBEiABEiABEiABEiABEiABEiABEiCB9CGQxmLLWbi3HokrfXZjw5CSxllkSGw5647WIx9jIsUW4zjyLBIgARIgARIgARIgARIgARIgARIggQwhkMZii5TU1g057X1Q/qAbtlx4gpiPJshXoTls57qja3k9YUWGxBb530/DxEQBhUKwymGKYmYWGOU+VX87GYKTnZIACZAACZAACZAACZAACZAACZAACWR3Amkrtsh5VjYiskhZtHfygLV5OZjGXMcmu1FYENoU8/bPQgtdvcWQ2IJIhF16gXxFC6NwYeD5/RvY5eEAv/OVYb9nBayKZPeppP0kQAIkQAIkQAIkQAIkQAIkQAIkQAKZgUDaii1RGzHUYh5yOh6AX0+NjC2KQIxp4o7cs05j3k86GAyKLXpwKYIx2cIBN6wSlpHODHA5BhIgARIgARIgARIgARIgARIgARIggexHIG3FFogqQ82dAfcjmNVCE64yl8vjiWfg3TEFYgtC4d2lDw622oCdNmbZb/ZoMQmQAAmQAAmQAAmQAAmQAAmQAAmQQKYjkMZiiwLBky3gWXABdjvXR1zEUOQ6DPxpFcyWHYD4Z+3jEzxbno4Jxgoro2odZboJ4IBIgARIgARIgARIgARIgARIgARIgASyFoE0FlsErFCRt6XfFhQdvxAzu1aAyZOzWOPqivWve2Hd9jFI4I9iQGw5OH88Lpfvh85NyiKPNAdPz2PpjOn4K9YKqzbZoKaeXLtZa6poDQmQAAmQAAmQAAmQAAmQAAmQAAmQwOdAIO3FFkEh5uJaOLgsw8mIGHwUVYTKNh6Aya4j0FhfUlsDYsvdoGlwXHIINx++gbIYUTGYWQyHq1N3VDH9HFBzjCT7pov6AAAgAElEQVRAAiRAAiRAAiRAAiRAAiRAAiRAAtmBQLqILdkBJG0kARIgARIgARIgARIgARIgARIgARIgAYkAxRauAxIgARIgARIgARIgARIgARIgARIgARJIRQIUW1IRJpsiARIgARIgARIgARIgARIgARIgARIgAYotXAMkQAIkQAIkQAIkQAIkQAIkQAIkQAIkkIoEKLakIkw2RQIkQAIkQAIkQAIkQAIkQAIkQAIkQAIUW7gGSIAESIAESIAESIAESIAESIAESIAESCAVCVBsSUWYbIoESIAESIAESIAESIAESIAESIAESIAEKLZwDZAACZAACZAACZAACZAACZAACZAACZBAKhKg2JKKMNkUCZAACZAACZAACZAACZAACZAACZAACVBs4RogARIgARIgARIgARIgARIgARIgARIggVQkQLElFWGyKRIgARIgARIgARIgARIgARIgARIgARKg2MI1QAIkQAIkQAIkQAIkQAIkQAIkQAIkQAKpSIBiSyrCZFMkQAIkQAIkQAIkQAIkQAIkQAIkQAIkQLGFa4AESIAESIAESIAESIAESIAESIAESIAEUpEAxZZUhMmmSIAESIAESIAESIAESIAESIAESIAESCBFYsutW7dIkARIgARIgARIgARIgARIgARIgARIgAQ+awKVKlVK1fGnSGxJ1ZGwMRIgARIgARIgARIgARIgARIgARIgARLIAgQotmSBSaQJJEACJEACJEACJEACJEACJEACJEACmYcAxZbMMxccCQmQAAmQAAmQAAmQAAmQAAmQAAmQQBYgQLElC0wiTSABEiABEiABEiABEiABEiABEiABEsg8BCi2ZJ654EhIgARIgARIgARIgARIgARIgARIgASyAAGKLVlgEmkCCZAACZAACZAACZAACZAACZAACZBA5iFAsSXzzAVHQgIkQAIkQAIkQAIkQAIkQAIkQAIkkAUIUGzJApNIE0iABEiABEiABEiABEiABEiABEiABDIPAYotmWcuOBISIAESIAESIAESIAESIAESIAESIIEsQIBiSxaYRJpAAiRAAiRAAiRAAiRAAiRAAiRAAiSQeQhQbMk8c8GRkAAJkAAJkAAJkAAJkAAJkAAJkAAJZAECFFuywCTSBBIgARIgARIgARIgARIgARIgARIggcxDgGJL5pkLjoQESIAESIAESIAESIAESIAESIAESCALEKDYkgUmkSaQAAmQAAmQAAmQAAmQAAmQAAmQAAlkHgIUWzTmItS7C/ocbIUNO21glnnmiCPJBgRSe+2FbpkEn0e9MX9sA5gY5BcK7y59cLDVBuy04YrPBsuMJpIACWQCAtfWjYLng4Hwn9QkkedzJhgoh0ACmYrAVXi06Ig9HYIQ4lgzU42Mg8m+BDZ47cVgVMc7+/KfPYSsZEtmmoy0F1sUj3HM1xkzt1zAk5iPwnYT5CtZGQ0HTsOcXplrg5faG96MnGjZlrX3DQyhFPpv2Al5fx1kgwYuxxKcV6q/5gZcgfBAZ9jNO4I7bxTIYVoWLSctgHvX8glfFKX5XjkHS3aexs2Hb6CQWjbJh5KVG6L9KHuMaVYiI7GkqO+orSPQ2iMcPVbsxeTaKWoqwcWpvfYOOjTBrw9HY+eaASiZErFF5/41yVcBzW3n6p/71EWSeq0pwhHobId5R+5ALF+xfouhdi8XeNo0RpEkelE8PoaVc5Zg5+mbeChdLC/nkqjcsD1G2Y+BejkH2TSA9m2UA6YFy6Fe15Gws26D8oYVr9SzM81bUuDxMV84z9yCC09iID/NZRYDMW1OL6VAbcTz3iArq4mYMtgcxbMEq2RMhlHPYJ32Qr3Rpc9a3M9RD44H/NCzoJ7+FMGYbOGAg9Eaz3v5ka+zVuXn8w8Y4uqE7lVMkzFwnqqfgAIPQ+ZgouM6nHsYjQ/SfZK/FMyaj4LHkv6oIf5/j7UZbO7Z4+/AESiVrhiVYxs9zh+Xvp+LsIDuOr0rcGvzeIyefhA3XyuQM095tHYLwALLSqrf+pdYbVkHM97Y43BQC6w074KNDZbjknerdLUi03QW/S9+txsDz/03IXBBAEOhSt/AynE57Ft9mWmGmeEDUTxEiK8r5m85htC7r1XvhflRqro5uti6wP7Hr40cIsWWJEG9f47lSy/j1wtvERUrrcmcKFI8H4Zb1sP0ermTvDzbnBD7Bnt3XoPr0Ze4/CwW7yXDc+VC+dJf4pduNeBWN5/RKDJaoLj4+yF8vycmkfEWwcrV36OPERZ9si0Szy0XMSr4Fe6//3+ipxwo+FVetOpQAxtbF0HiYzSF3fQfMEuPVmX4OpVN4VdQfdpd3NZjW/vhbfFHMyOMTodT0lhsicI+2y5wOlcOvSZPwoA6RYHoCJzYtQWXy9lhWjfD28B0sD1BF6m94c0IG9R9Kl49xtPX0mue9hEVOAl915fG7GBPWEibGulFf0kJ+PgPRkWNU3PmL4riBZS7HsVhJ7SxPQ6zCQvh1qooov8NgL3DfpR12Q7vjhrb1cgg2PZyw1FUQrve1ujVuSrEjIspP4FdW/7E+85LMKnF57qTeoiAPp2wMiIP8nZahL2prLZkzNpLyrNFgcNObWB73AwTFrpBTL3huc/IxZ5o31FiiXeEW0Q7zF4wHubine7BsQBMcV2P173WYfsYw4JvZJAterkdBSq1Q2/rXuhcVV7NiDixC1v+fI/OSyZBvZzlDey7idjlYhE3mqfnF8PFZQ8iW8/D/lktPvsv2FH7bNHF6RzK9ZqMSQPqiHtbxeJyOdhN6yZEPeOe9wlZiXYOrsK8lXtwK3dreKybBYukVLBMu94+YWBGPIP1/FgJseVPvPvqGcoMDsYKq4RqiywO+4ej8LPc6KAW1+VHvs5afXoea+Z5YduVLzFw3XYkckt8gnHZ75KXu4ej5dhTqDBgOlxGfo9ieIPww1ux7nwlTPG0SmdxRYO/4ha22AzAtP15Uf7rGwirklBsURwcj4ZDQ1BjymrMaV8cb68ugvWoIJT3+hvLu30lGjsJ53q/4OKwY9g1/AgGVXVGrvnXxN8+19/1lKzPq/Cy6AL/6B/hMHcS2pUXm7Mn17Bt2xp8bLMGE1qkpO0sdO2z7RjZ2gEhqILOg+3Rr0cNcU8Ab8MPY9va7XjfcwOmtTJ2/VBsSXxlRMLF4QzmvC+C34ZXQbcSuYAXL7Hu6D18qNsQU1P5I+Fnu0pfhqOX078IQl70aV0RI5p/KX+UfP3oMdYdfISYZo0wr14Oo837ZIHC6B4SP/H92zd4+FYSOKTjAYbb3QKszOH/vfq6XCha1FRYm/Txaba8w5YFR9Hveh6M6m8Gu2rio03Ma+w/chf/lKyOpT/mh/YY48fx/NAFNNxris2+9dFVLFfdQxZb/imEXU6Vhe+Q5qGySRZbnqK1bX04lNa+Ok/B/Cj2RdI2p8cZaSy27INtQye8tNX/MpgeBianj4zZ8CZnhCk9NwJ+lt2wrf6KOLHg1uLusBShU5u3jxESib4jChuHWmBx0dkI9rSI2zBG+Fmi27b6WLF3MpTP7wghRvTA0hgrLN9gi1pZ7QNphB8su4WIG7os1i7JCfcjs5Ca71IZs/aSEFuitmJEa28U9giGp6zMKY/IjUPRbqUZ/OPmPqXrMi2vD4JNAxfETj2BxV3jbbg6rxMGHG1veN1HBKBPj6WIsVqODba1kNRyljewcMMZ745axsj9/NkEyw44o35ampkObe+zbQinl7YIXmEFfY4UgHHPe0OsEHMRsy2HYGtJRxzw62mgj3QwNJ27SPoZrGdAsmfLKXz702vsC+uEHZtHoKzWaVHYOqI1Nhf+ETEHr6GVrtiiu1YVJ+HafizOdFiD3bZ0z0/JEtg9ogomvJiCs5sHITP5NkhCSmufknBbOgnPnc0wCbpii9Jrxav4Epxb1C7utz7cuy1arW+ETaeno/79xejc9E90OB6E0f/9iu+HvMTMC75oa+xeOSVgM9u1N+agTZvf0XDjObg3zmyDyyzjCceSjq2wIHogfg+ainp5Ujouii2JErx3Fd85PUSLyeKdnY9xA6iiMHuq+L17VwrBM79F41TYjH+aQJHSe8HQ9eH4eeB14BO9Oj7Nlv/Qa8g1RPZuiYNtk+M9FQV3pxPwq1YP4QMlCTbhIYstZ4viH69vUEvfCSqxpbsBz5i0opzcdtNYbFFudF7bJya2KDd8t4b+iY7XbOEVeB2Rwh3TpEhdWE33hE1j9SfOKFzb6AX3dYdU4SnCTb9sY1i7z0WfmqpfevkF9BaG/tkRZ63dsf+OCGPJYYqyjUfCbXZ/LQFAER4I5wlzEBIh3OGFG3WFNs6YWGgRbELic7ZIm4JlldZgeY2NGDl9DyJiCqLbsgNwrm/EWISjpGbojRRKUzi/6q4u/QuWrRoiixtSmIKv80xsufAEMR+FTcVqo5eLpt3G8jFi6i94ou3Qs+ixYzNGqN7M5U3+rZEJNonxrUkbqCnAzNOY95NGH1fnodOAM+i+ewOGSJKw8H5pbnsWndIgxMYIy9L8FJnTqZ+xe3UFzLdwAdy0BQjZQ2hZJQTMLILlLstwUlpX0tprOQkL3LtqhZGkbO0JU2PCsH2aI7xVYTH6QnsSbmiV63HCnBCxjj+K5VgBbZwnotAiG4QYytki308HtTZqMuiojRhqsRn1Nouv4PoVujSfD+M7OAv31iMROmgfVvdTP0sUCBYvI44xjjgmxBF9+4TDTs1he7aThpiYeI+Jii2JiTrGG5LhZ8o2vrZPRGwx5nmv8qzQI0xJBirEfWTu8gDDNJ5RGW54Gg8g6WewngGo783ZnXDM4QBa6/KS79HtaDTbHLsdtO9h/Ws1EusG/oQFhRIKhmlsfpZrfseQipj02iVRsUU+J07s2I5hFezEl3+do9xw7BK/q1LYkXApFOEqIzFrbziiP5ggf9VWcF7mg16VVE+vs9PR3HIdSjiHYOuQpAOTtPtX97sLIytPBLzDsKyTxlguzkCLLifxixBYhp0aglqbLHByYz/c92iBIW/n4cT0BlluDo0y6NostGy/FeaJii0iRGG1G5z996vCZ3IiT8VmsPX2x+BaqrmT2wnDmOC2CBnqhgO3ReiZSX5U7jIHGzzMEGwzAu5ymJJ0bRd4bZ2HtpKTkXQ8OwIfOzcEHFOGMeXMUwgVzCdj8XIr4UcC6J9nXcFC+f9hY0+g26XhmLHxMp5K7+DFvsfAeUvg2FzdmXaImYiNQ5GCqnfa8oOxYftYuU+tQwh83w09ie7bTsPNmK8N/+2Fx7Q52HrqDl5EC89sk6L4xmoGAma0g3IUesSWJK55trk/Wv4aCetgIRCqwxSerULvhjOBaacw+0UftFpWDX5XfRDvlyq6OjsNTXqEoOtfh+Eo34SfwSFvPB+hVaJiyzuc23sVY/ZGqsJn/g95SxTCzFENxPucyptDbuctHD2KYu/8mwh89AEfRIhNjYbVsH9oAQT5XsQkOUxJurYYVjnXRVe1svzyAdz9wrDgujKMKecXJjCrURG/21aUn2X6N/ORcLL/B9vrf4/rv0jvacr/v9qpGfrdOQ/bI6/xSLT1xZcFMW54Hcz6Tq3afURoyDlYbnyOa9EisFmMsVie/1NOVLHS2O9STfn81DzOnUMR75fo7/wjvI3JZPHoLpzW3MbK0GhESuExub5AveZVsXNQGdlDSzoS2JTENU9CTqHamlg4/mYOB3VmhZdhaDVReKT0bg7/N2dRY09e7PCrhw6aYw+9iPLuz9E3UWEhMbHlFXb+fg3TjkQh9I2YUxHqU6J8CSy0qxU3f0pbquJQpUf45S9lSFBC7rpQlX2+6pNMsUW2JwojZjeDs4EMExRbjHruKL+ueYTWwYTlPuinNx5cKSZsfGKKrzvNhNfw+ihm8gRnfe3hEFgUDhrx6KFbvHG6fGd0rFUJ+RXXsX7CcCy6q7Ehkl9AdyCqSHG0d/LA4NqFgbtBmDJuAc5Xtsce8UVW3m5FihfRdvPwoJkjPKd2EMvqPk6K/n4NvAtFyb5xCXKll9L5T6sh9/MS+MV1LFqVzY/8RYtDiq5JciyysBGMur+txYw2xYHHgbC3nIHwDgHY6KD6Uh4lhIwuTjhnNgEL3TqijGmMGK4Lxi0IRdN5+zFLjlEwnk/iU6LaYD630fpqfNa9NUY+nmhYbLm1GN0t9+IHjS+jyn6kjZUH8ok8LiJCAnI7JzpgzW5bZD1B/QI82w7HzeEH4CeSI0gbcfs3Oht1SWxxOw2TAt9hzAI3dKyQH4o7gfLaC28f70mU8rUXisXd+2E1umK213BIS/z5BX8R1hUI01HbsGGIUkXT3VDJ3ijzHqCZoyemdqgK3D8JX/tfEXhXgZJ9DSTIfSi8OzptwDeywKixumQvn+UoM0tHgDPqmZD+J0WIvDWWi16j0+yFsGv5Fe6uG49hi1+g14r1GKMWarWGpRRoTiTjK7/BMKLpJ1BhyhbM0wy3S38EqdKjMmdRKOpMWA6fflX0ePsY87xPXGxRCnleMNXxREoVAzJpI0k+g/WNO04IXYw8U7pht7n2PSx7Hoa0w27XVxihI5jqFVtU+V1uWG0WoXWZXkHNpDOpHNbL9VZo6HwV9cV9v2JYNej7mK9/E6wyS4RdDGvpgFf2p7BpoLTFVHsH9MKi1dPQpugT7J8xCGN3Vcbco/7oJG1yDjuiweCtKDv5MHaM+ESxRfbU2IVWCTaXkhg0FflXXMGCbJqaRf+COwOXhr2wMb8Vlq2fjpZf63fvuSbCIo9X6oludc1QQHFZrIne8LrTQ+kpJDUsiy2r8KhYdQyc5YUR9Yvi2R57WDodRs7CBVG4vYf4rW6MEi9PwnOoNbYWd8VpIXZ9iZdYb1UfHh/tsHbpINQpoMCj25ew+3wODLBUJl5Ojtiy+kEelOm1AL7jRV9fPMQpr1EYu6k4pp3biL7SGpPFhz1osHin+D0TX9gebMLonxxxq8c2BLnW07vOTznVQ99D3bDj2FR8Z8xd+/Iglix5hSaDLPBNSRM83D8V/Yf/gVLuZ7FBHoQesSXJa55hS/8WmPJuEo4Lb7OvoPP/L4XwUnsOii07j0UaLlry2M8NwME9E/D5pD19Ahubc/DPXRI7HL9D2yL6Q2EuHriCv78ujT5VC+HL2Ej4zDsH5yfFEeJdC02keZLFlvu492U+jBtYExOrmuLJmUtoufo5cuXPha/qV8OmnsVQ6s0TOM+/gpWFKuOeCPMojHfwm3UIjh8rYM/4SmiY9yPuP4zElrD/w+iWJSBJc8kRWxY+zynEwxrY9LPoK9dbHNl6Eb2PfoEFCxtjhJRSRd6sP0Pz0Q0R0Fj8Q+Rtcd+EIrRpPZwZUExv2MzhgGC0uVwcx+d9a5y38Zt7mL0zFi3bfo06guf9s5fRzucxyvb/AftbK704EtiU5DXRWOV5DNaKCgifUkWINjr//0YIL9Z3UHKcBdY3iJ9DeexhpcQjo7qBSAR58hLxbHmHP3eGIapmBbSrkA9fPL+HCZ6Xsa5IFdX8qWy5mgMValXG2n6lUPGLGJwMuoqhexQY6NIcc9SCnNb9rJz3cf8VxGznBrApqyceKMH9/xGBC4Pxy6uKcX3re0QYK7YkDCMyPnTKmEdTSs9JY88WMTzhGu43eiKWX3qFL4QnSq8R4zGyveaLulJMWGs6QtsVWhGIMU3ckTuxDd1Zd7QeeQvDgldADllXJQ00HbEDm9WuG+KfFcGTYeFwDT1VgoH8JXFXPSz6yxWN434fVeNAfy2xxeVEbdjvEe0nlUNAZyz6wkJ0QxfkF+LNNXXGoRRFHCIGY/eGISKOMAV8NFeHLDAtRlGdkBD5xfu0CUwUCjlpmZQ81MxiFNynqrwxDHk3yGKL5OFxRuRtSWIDldJVmtHXS3M7+jEmHvNGR2m9SELa8JsYrpmYUk5yeQ6tZmt7vOjOeUrXnnItP8TIfasR56ghhiSvpbVVRBJYZXiT9oZKuYZ21VuEv1wbx3tyqO4XkS3ZQDUidWiYEHYW2qFl6Zx4dX0XXFwX41zYS9RWzX1GT0/S/Quvnk3jMHDOGbzNkQMfi7SCx5rpaG0wE6v22k66fT1JR+WLiqLp5Dlw//k7WaD9/I8YXPQbjYnLL+HVF2XRuNcIjB/ZHloaepLP+6SeFUr2tw2uyc+foq4FST6D9Zms8VzufbQPOm2qrRXS6WfZA2cshThca2UC7zRdYVDKqbVlkQ+2/FcbbtvFMy6p37qsNwWpbFE0znn3xQif/4n7pDzMB07AZJufUU1DdTEstrzE7hHNYffCVrUxFEOTvQP+xfBDezFevetT7MHY2qMRPlbkTrFOWlzRNVBv//Kmfw/a6RVb7ID5t0VullRG9Zk3p3iwG79a2uKPCPG0/64Thk9zwIDvSyaen+ukCL+yCsPYC1swUNIPZO7+KOF2XohraveA+yL8xhxzP9hobfYVwkujhoMJ5twJQDeV8HBIeF/8ZaNfDkiO2LI8r3ZfUGySc/LkXqT0dLomPJk6/9ku3ttKDP3SDHN0+/tn7AmelNCrRfw9UVHRqLlXhrYtqvI7/pklxWoZE0ake4247Jmwpbkzoiefgm+eCcLTJQb2pwV/2V1GJVoVXaQRPqfMTXRuoGG2Rg0/A056H/mf8Pj/F2ufQngtFIVdXzOMriY21omN5eoFlPF8C2ffJhgtiRiqpKOltTwVXovwm2OY+qG81mb/vfDSKLAyhyoBq9IjZW/TJjjbXX+wcXLElrni+aklLMTeRsehN5B31E/YIlQhfRvxsyL6oenFYjg/u2ZCrxZh2qeFyWjCe4clM0PgXqoO7g5RumMk3WbCa/BS2DLpBmJ6NMfG3BeFp8tHuM8X/OVHgEq0KlATD8eVUc3dI4wZex4nLQyzVY4yeWFEz/eeQMldebF/UW157yDbElpUJ4dKNLxdD+PX/NXxQlRc0ruW3j+Bu8cluN+MRW7hKTW6a1VMMS9sOE+M7MkjBCVrbUFJd5kazNnyhSnKFRSijsEEucYnBU6P2zTtxRbZCoXYpB1AgK8ftpyMwPsCLeD8uye6ypsd5UZwf0vdWHEjNjy6QoD8//vRcs1uaIeda7alQOCYJpiRK6G7tBw6cLmnttiSqNu8xhTpjCVpscXwOJQVgiQdQ7z4poSPxvAueLbF0GCLhGERkWG49CIfihYuLFTp57h/Yxc8HPziPYFSIraoK2aox1EqXshKj8WdOn0oxa8pb8Zho3Nz1UvURfj0ccbjkRrhcfKcxWLqicXQSA0i9D/NcuIpX3uyeBPSJmF5cp150hJbZOFyBnIlEEcOw6m5LS6LBHUGSz9HnoT3ZDdVmJuoJFZB3CPTamHnkFWopOvxkjrAU72VyJOeGDXxD0Q3H4whVe5i06Y9CM/bDu6rpxtIxKr/2aNb4UuzYpe+sC1ZmLL1wLkyk7DWr5dOTo1UNzPdGlS8uo4DAb7w23ISEe8LoIXz7/DsWlxjg5HY855iS4KJSuoZrG9mNe/3kpI30EqYqUM4NcXghwlDAXWrEeUwLYhy9awwccpgmGe7UlBpd9sooi7jT18v+Kw+ivD3BdHqtz+xyFK5ETe0CZWT69rcxwiNkAd9m1xpgyhtQmcV8sG/fp2TbQTFlmQjS+QCkeD7+Dp4/+aHoEtih1ttONb/4WQ4P4muqCX/fxDa7DwGZ42kBHrnaMcQVBGRXkqxRQggXhb4eckLVPl5tAiL74emZbX9qJIjtvzZZicOT9X0P1GGt6lFtlQTW1Ti0l01Uc1wOT2UtW0wRmzRf3/J4USuYSiY8wnKxHmNKTtU7LVGPetIOKq9eGSB8wHs1YJYai6XdGkrFneu3MbMTeJ9J1zU2SldBvtdvzGcn0Q374Xq/zu7/CA8GeIHrFdUOPoPcvsjrtrNxc2H0XhPLGo2Kguv7hXRspi2l0NyxJYtdRrgRj91GJs0Dm0hIdXEFt0Ne7EyhnOEiFHo2pC02KJfkJHDiTZEo1CO96jYrbnIdxJ//74/cxYlfRXwUHvxyOFP7+CuFsQMrqPkiS3QmT/Zlg9meDW5opaokqSHiTyej3hxJwKztwhvzGvReJfnK/jOqIdBejysTqz+Gy3PfRXvTWXAHoPViL5Tldpmzhb95KQcJbNHTUSg6ShsE54bZVViwsEEeSN0NzwxCPtrGXxW7Ma1J6/xXFWGFSK3f1wZY6OEAcNJQXUFEoOJHJH0WJQVfC6jpfdyOJurw4jcERFXASWR5KR6xJak+STyBFe5iN/ur+3xY+gKpffEDVhJOTmQWBiRG3KqPI/0hhEpXuHx09dy6cvbK4dj/Ek9IkG6/PCkoJO48ql62qik4Y2lNWfx52qvqZSvPYNrMjGxxeB9kVQ1IgPcZC+uK+ijzteTArxpfmmUeI509EDsxG1Y0F0lCIjyxIH2lphxu1tC0UoekP4wovgKXyJ+d/h4nGwTL1IZnBeZ1Ql0SCAAp7nlad+BVOZ59ihMDDTFqG0id5N2hlblS2yC571xYUT5PxuvqbTBrPUM1hfVo3VPK8O3vIt64YiI6ZSE9bGRk5UJzfXc+4Z/19LGlmzfqlT21qUPRm7KgwkqEUXvJvilyJnSbCLujz4ovFXiPRXkc4MNULTQV745aeJ6+080jMgBOVUeDkm3nn3PiP7XH0N7zsI1i+U4Lcphm4jwgH8D58Nz0TZcfvAKkXJ9aOkoi2FqDyIDHkXGiC3Sh8yH/6yC13RJ6BEhHhXbwGnpPPyicqNKjtiyp0MQQhw1g8C1xRZlparzaLNqM9xbqsOInEViy53Yb68/eFxvGJEiCo8ev4JUlThssSWGHu0Y5y2jePAP1nhNx+qQu3j+4oXIT6TCFbfOE4otSV+jakPxN+waDEEgfsbyM/PRUsvb9CAm1ByJx87KcKVgm28w+tGvqnCtz3s9v424ga7ut3Ch1re4a11abKBjceXYv/h11yOce/EBT6RcJ/KhUX7XwAbWGK6Sx8wAACAASURBVLFF2nDf+/cmXNZLQo8CuUoUwZxxdTBMFVqSHLElPoeLeg60hYT3QoAo4/0KP09sgEV11GFEN3DTogEuWep30dQbRhT7HvdfvJfX5PWdZ9H5anxC1veRj7Fkyw0svvQOT94q8Fa9JtWbfXGNrk3GXCNbFHsfQ8ZfwnoUx06fumirpUvdw8ARV3DfUhmu9KfvAfR8kXjIjZJSImKLKM98bF8o7A88x51XscocNPIR7wViSDgyTmyJv1feR97HRI/LWJm7PC7PqKYd9hR7F32tr+B6u6S8dPR7L2ndkRRbDD+gFIFj0GRGLi3PjaTEhIiAPuixNAZdZy/AePNySrd8vZ4tu9BI94u71pd9w94FsmBwqrO2Z4ueRI5GjUX8CF717YthAbfk+u1SeE7tXi7wtGmszBsj/m7Iw0afZ0tSfBL7OZBzLcyGVv6bRH8+tLgmliD3KNqrkqQmldgyY6rtpPxHUma3tDyW6FaTkRkdQyd1YkqjxJaUr73U9WxRigqnOifi2aIH4Wc1l3IunZyYdXoeNPM7Q07wHL9+tc1UiFvQHC4Phump8iKdmVCkSlwEW4uKWVU8MOg1FU9U+3mfuNgi5xbyisaoz0HIS/njxXALBgVS1SU6f5efvx6m8AjuiAMWzvigTuBNsSUtZ8n4tuWQDEdRJlkZipNwE6wKH7o3EvuCxmjliJBDNU72wWHx78kPGNI/xOQnyP0bXfYHw16k++KROAF5vvYrBYS8vh3x09xo9Fy6ApNbVkRB6b1Vr2dLwvAt48QWjeesECqWOIzE4uNmcXlW9M+zMkTmmKVaXDHkLaIttkjvrJfmdoLVwlAR5CAl4y2BegPnYJFjc1Xy2oRcFMIT59uJ9zBGMwRO4zQtbxmFEDzqDcOhb5yw0refyI+h/MqfqGeLUdco37cvebRFz+3FUd/0FO4LL579wotHU285O60hel+3Fomty8JFQ3jJCutdDq05rxQQ8gsPqm//+IDBY+rAvXZBFJI2+AY8W3QrvBgntsQTk0QHL//LmPlv3rg8K/o388oQmYPm2glykxJbJGHn7JbjsNj9RnwCl5Lx5oa5RTVs+OXruOS1uvP3XnhyFPJ/B2cDSVm1RIVYIXiMvYy/ylXC7rEV0VAKWxFHop4tRl4jj/33o2h+8guYm7xEhPDiuSi8eDRDdGTvj4iyeDhFCPUawkvia9KQ2PJRCDZ/o9vFfJhtXwfDRfy3XApan2dLTGXRZxUR7RB/JFdska7UDjGLb+v5gZMovQHxuXcSMSjJfim2GKYXuW4gflpWWpVfwtDXdU3PloeirHAn+BbTDv1RbvBvo686eWuiOVsiMFj1Aq8/pEZZFtkvRidnSwKxxcix4ALmdrTBrRHbRclZ/QrrQyEgdVpZFrODPRFfWVd/zpZPF1sSlntO6sdD+VX1qciOL+XCUX01LeyReOlnhdi4dxqJPVWcsG1Bd+h6o39WG/Q4QMqy1yvNNBLcxv1Nh6tRYouU7kVfOJexa090Lld9CkN/neojiedskRL8DkWwhY4dcqJbP8QkJz9GpLgvu7vhyYD4ZLxJracM/fs+WzR0Ej+sOuFdIqNzot45CvH3TiP3oIqThkdMnCHGiy26+aIylEVadB65DgN/WobSqkTZ+rrQft4nIrbIa8sFF+rNwk5R+kx/xHdaGJH52tR+BusZn66IInvgiRLnFg1xOjh3fGl6ii2ZY3Kf+aNH/QUoq0oyq7sJ1hc+pB64MsThiUaOiZSbpH8Tri93hdiHaZZ+TnnXWbwFBY5OaoRBV4cKcawbAqW8KyW0vY+UAkQYBqeKZ4sOTlnUW4zqqrbleVZ44Nra3vHCQvgCtP/BG9Gjkiu2nMHMpkMQNuFvrLLUDO1IZEpFSXln81+ws5qoDired0XOW61DS2yRQ3fOo69WziClELS8ipqhjjBk1DVCark4Cx26bcQ3fmcxp5gH2nTZL8K2DoqwLY0BySLY/zB4/tfwsn+N6ddFqFaWyLX2EQf9QtAhojTCZpTG71LelS9VIRiq2VAKEG8xQV3lJkWeLTrrQc6z8h9qq9rWG6by6DrqO4TjTbvkii3iuTjxIq51bYqglkbWFY8Vwo7defxeqiou2VVCaZ1crlqbezl05xVGaVX/UealmVsynqGW+GLkNe9vXUH9mQ9Rb+yP8C90FbXcnqGzbgJaeR6iYDM8N5wDPmCR3/fok2TuWUNii+QpcxmnflQzVs6TMkwnb1wYmP6cLcoSzXPLfItI4R1l7PHkz+Mo84epTlWlpMs9a7ZPscUY2rc24NdVr9GyU2vUkmNJRWzrwUVw9TkK04HrRNUDqe6WMWKLtMeUSrGaY4a/M1p/LRKhHwuAi/dO3I7Ih25aYstWPM9fDO1cvWDdWHwHurEVk0VFmFDNF/gIUWWlx1LEdJ0NL+vG4muRqEa0xhWzt97G48I6OVv0eLYYNRZVFZ/GAZvhUMtUPy2FyJnRRiTCk6oRzeyKqnmicSNwit5qRJ8qtijDmcLQR28p1YOYP/4yyvfrjCaqWN+n55dixvS/EGu1Cptsaso/0ArhBdBjwE6UnLAQbq2KiiqUAXL1m8K2e7BCI3Ow4upi9B26EhFFm8LKejgs6xRV2h0dgX3znLDwv3ivIWOWT4afI4sR21DfQDlrWeDYVl+ZB8dIsQUpXHsiFa4QHntgaYxUjcga0hK/f9I3yWpE8d5YqvtCVCNa4zobW28/RuHEcrbEPMdjRX4hnr3GrYtBWOTqg6OmfbFqkw30FvLJ8EnTffnUuMc8e+I7qXrTpT8xY7LIpVLVBdtFdmf9UqjwTFvcF0NXRqBoUytYD7dE/HLeh3lOC/GfhkeQ/mpEazDHcwuua1ZCy2x8jB7PLWz4dRVet+yE1rXKypUnoiMOqtbDQKzbPgZmRj3vVWLLu4nY5aIqtCmeDyd2rcPKjcfxtOxgrFg/5vNYW0azS+xE457BCVpIIKKoRPqD0fiql4aoSrElVWbJ+EZuYOW4JXj1Uw+0r1dB/nL4NvxPeNl5IiTPSPwhEolKpUi1xA5V+NAtg+EYV+Fl0QX+0T/CdYkrWsj1Rt8g/PBW3K7qhL5S5eXDtqgrfqMriAo2n1yNSPqtF2We23TZglJTVmNO++J4e3URrEdtQRFRIldZGYlHHIG/3DHkQgn0bdce1eU5eYwzy1zguuYOGi46IpLKKsNRRpxoibmbfkOHMqI4ZsgiTJq1FTdv50fvFIst97HLdwvyNu2N778piTzRD3HafyhG+RaIyz1y368LfvR8rfKsKYnY20cwd9RYbBXhHV8PT6bYogozM9++F671jNzYymtqDjr38EV4yR8w0N4G/RuIsHp5Cd/B7pnjRP6ZnsowovuL0bnpfPyfzRasGlVX2PM//OH4K7z/CcPTurMRFtBdXKQjthhzjeISPNp2w6bvlqlCuxQ45WSOvgdaYf2x39AoTlAJh0+7Vvg9siBeN5ylkSz3M1rzpy+jy83cGPH916hVSBp3DI4HhWJ8cDR+GNVMJJVVhqN0+7cwVotqRd3Fuv3vwg0M2/QIVx/lxLAUiy2vsXnnXeStWRbNRLWbvO9F2ErQefT4K2dc7pGIoOOoti1W5VmTF4qHj8Se8CpWPv2Icm2SKbbcu4rvnJ6g1RRzLKiapAoRN5Hvb11FY/cI3ChUGOO6V8Koaqo9WsxrbNlwFU6PSyhztjz9F43swvF/nethV5eiyBfzFBsCrmP6jbd4VLEa3olksdKhJbYYc03sMzg5ncXyCt+oQrs+4nDAIbS5UAT754pEtXGmSMLESfi9yYVXVcw0kuUmtiYNiS3KBMeuKIeQSVXR0DQWp49ehvUfUbj6sgCWrxZCjsqWsWEmKFa9AtYOKYc6ogrU3o3nRRUoYJJLC7jpy8V9T3wA3h2Lzs1KonEJafCxuHU6DEO2RiJfO+2QLmXo11vYJFLuWdM6Y8WWhNWIgDwF86NYopmh0+/eTtsEuQ/3Yrr9QoTceYyoGCkuMAdMi5nBYrgrnLqrKxIZJ7ZATtQ5DRv/FykcAk1QpK4VpnvWxc6uXiixYidsZN1GmQyw5W9D8XDZPBy58waKHKYo23ISFrirquuo2MZcXAsHl2U4GRGDjyZFUL2rI+bV2IYOK8ySDCMyaiy4h+2j+2LWP681ZlOMu3pXOPo4xifm1EpAKvGpjV4unrBprN4CGslH75pReqXMhoNWuef4U+8iaJojlhy6iYdyDhx986M8OzLYA+M9AnE9UqEMiRrgiYUjVCWsNfqWcjSsnLMEO06E4ok851IIVUF8WbISmnQYDfsh9T+bL9ZaYoo+vnJp5JWoIH3Vf6WZ1Dj+ZH0ePSlae1LTinAEOtsJz7A7kKbNJF8F4e0yF+5dy8d9vUoY1iIqyax1gMsykdRUzItJkero6jgPNbZ1wAqzRMKIZM+Qw8LhUdnP930nYspg8wSeS+n3yEp+T9Ka9HX+DdsvP5R5Jai4ZbBJBR4fW4k5S3bgROgTKJezuEcKfomSlZqgw2h7DKmv9L/QTTqqXPc6lb2SP/RMdMVD7J1uj4Uhd/A4Sjwz4+wbDlen7sqKREY97/WwEs/ogsUroJmVHcb2rvtZra2UT5Dxz2CtvvSFGcleb2fRSVMcptiS8ilKVgtiAzx5JObsvYlHL6LlfGVSuEX1DuMxe2afuIpEWmKLnPT074S9aCYOVdzCFkcbzP/zGh5LiSxy5kGhSg0x0WcV+krqzdnpaG65DiWcQ7B1SNLBRolViXm2dyqGTNmEK08UylCRUYsRYFNfb2nfZKHJaiefWQqrX/1x/U4klKlYTJC/alMMcfYQZW5VFYmeHYGHtS1Wn3oqv7cWbTQIXr6NsLW5G0puOwxHae4+OWeLWGvjBsDtwB28kJObKPsf67kEw+LEkGfYa9cbk3felMdoUuxbWLr449vtTbDYLJliC/7Dxr6dMOXYK42ZFDZ91xtuq2agbSJanOLB31gyfR42hqjWr3xfiLLDZaqgeTc7TBMfPb8UhG5tHo/hLvsRLuzJmac8WrsFwOHpOLQ6M1S/2JLkNZ1FxaRWoupnHfid84n3IFd53AS3/h2HRZUjtd6iLNt+CW10ykB/Nkv331C0XnkXF8S9GyUlIBHvKwW//hITrL7BJJHTRN53vnwAp0XXsTD0vUhxkAMlzEph5dhCWDMpDKWdf8AsaTP9yZ4tQmxZ/D/YnI9W5QNR9u88tB4mxIkh0QhcdgbDTr+Vx/jFl/kxpE8d1D16FB6lkym24BVWeJyG9TXZWNUhbCpfAgvtaqGruriXngmUcorMWSfCOi+9wX1V7pKcX4g92ld50LZpJXh1KSHCaD4iNOQcuq2PRJg4J+cXedC1b224i+TnNULL6BdbkrymLM6uO4KmRwtgx6J66KAWVlQeN7tr18ENUeVIrRHIITdrX6ObThlow2vScM6W9w9uY+D8mwh89AEfcuZElTqVsaP3e/R3EN4zGmLLiu8awynyKgYfEPmVYv8PeQsVwOhhIiH7dwZE1qf/YZTPbQQ+eKead+mafOjRtSZ8LDQrEimrLE2AulR40neWcWLLXdzW01T74W3xR7Ok+0iPM9JWbEkPCzT7SCrOPd3GE4plliIRV5lRcB3bCnEJ4p+egIf9LJyo7oZj4ot6lvBQTDem7IgESIAESIAESIAESCB9CVyFd9ue2Fx+IubYd0B5qTywdDw5BJcRzjjy7VxcFp4nn/s77cvVvVDfuwrWnxMeL+kLmL0lm0AkZjqdQ0Dx8gjo+TUqqQMIXjzGeJ8b2FcukTLFye4r4y7QLc2ccSNhzykhQLElJfQMXSuLPhfRR855on2SnIT31jAEr7D6bDw80gIR2yQBEiABEiABEiABEsjkBNT5TPSUQpYrDoWNF4llBwnvlM/5kMKIWuL3hltwYroUm8cjUxNQ5zPRUwpZrjh0v1yCJK+Z2h69g0tefpPPz77sM2KKLWkx1w/XYEAXf8QOmovFQxqisFBcpbKx14/6wMVlX4JcJ2kxBLZJAiRAAiRAAiRAAiRAAikicN8P3Zp7I9baD6utzSEVClJEPcSVvz0wyXb3Z53TRxEVhViTWJzz7S/y3eRN1UTUKWLOixMn8DQUzRz+g6L9t9jdtaScm+P92zc4/79/MXTFUxTv3RwH2xqfWygz4X7/VpShzvURpwLPinw3OeA+vwlGf95KZmbCmyFjodiSRtgjT/rB1Ws9/pHyxkh9mORD4dIiH8vEKRhsXvyzd7dMI2xslgRIgARIgARIgARIIBMReHZkASZNX4ETN16r3mnzo0iF+uinmaMmE43X2KGEeVmg3aLbIkdMDVj5rYVbcyaCNpZdRp/35NJ1DF1/D38/iBX5Z8SRKxeKFRP5RTRz1GT0ID+h/2ubD6NOULTIEZMPw8fXh7ehXCmf0DYvyRgCWUtsyRiG7JUESIAESIAESIAESIAESIAESIAESIAE4ghQbOFiIAESIAESIAESIAESIAESIAESIAESIIFUJECxJRVhsikSIAESIAESIAESIAESIAESIAESIAESoNjCNUACJEACJEACJEACJEACJEACJEACJEACqUiAYksqwmRTJEACJEACJEACJEACJEACJEACJEACJECxhWuABEiABEiABEiABEiABEiABEiABEiABFKRAMWWVITJpkiABEiABEiABEiABEiABEiABEiABEiAYgvXAAmQAAmQAAmQAAmQAAmQAAmQAAmQAAmkIgGKLakIk02RAAmQAAmQAAmQAAmQAAmQAAmQAAmQAMUWrgESIAESIAESIAESyIoErs1Cy/Z70O6vw3CskXIDr60bBc8HA+E/qQlMUt4cW0jl+SFQEiABEiCBzEWAYkvmmg+OhgRIgAQyNQHF42PwtXfG2qu14XbGGx21RhuDsO2z4OofjNAnMfiYwxTFzDph4jw7/FQ8fmumCA+Es908HLnzBgrkgGmx2ujl4gmbxkUS2B4Tth0LPDZg3/X/EBXzUfxdnF+wHKr/ZIXJ43uial7xT6He6NJnLe5rXm2SDyUr/wArhwnoVythu5kaMgf3+RKQN8/+uKthgUn+UjBrOx7zPXqjUnorFKm8md9jbQabe/b4O3AESn2+s5TCkW/HsAp2CEmklTKjghDiWDPpflIwP9H/boD92N8QfOO1eI4COfMUQoXvfsFkfwdYfJnEGC3mIiygu57xGb5ObdOOIRUxKVjPpeWGY9dhJ6SCppc0N56RsQRCL6K8+0OY9f8B+1vnztixsHcSyOQEKLZk8gni8EiABEggcxBQIDzQGWM9jiBP2WK4datiArHl6YbB6LwC+NneFgPqFAWi/8VmV1esfdQGy3Y7o7600YwKgk1HN0S0m40F483xNR7gWMAUuK5/jV7rtmOMmdpaBa4u7ouhKyNQtKkVBvfrjCZl84g/PsWNXUFYc6MUXOYMQFnpdFls2Y/GPv4YXFF1fXQEdnk4wO98KVhv24Ah8ok8SCCNCcib5yA0W70Zo6so+3pyZhncpqzFnSY+CPHrjC/TeAhazX/yZv4+lnS0wkuv1PGISU+T076vaETei0S0qqOwxZYYeugHrNg8BqopR64CxVGioBHK2qfOz7U5aNNpGd62mow59h1QPp9YZ1e3YsfaD2i1xhYtxOg0xxjP5Cw8O9jgxpAQ/GVTXg8qpdgSM/UoPNtp/1ltkyy2xDjj0Jz22ifkLIDiJQvS4yntF2CG9/Cn7wH0Ow/EVKiIe06VUTjDR8QBkEDmJUCxJfPODUdGAiRAApmHgOIwnLovRwlHL1i/cEcTF+j1bImJMYWpqcawI/xg2W0tqsw7glktxL8H2aCBSyymnliMrnF7kauY12kAjrbfjO1jKskXK8QX0ja2x1F76mZ4dS2e+Au8LLYcRKsNO2ETJ9ZIjQRiTJMZiLEPxgqrgpmHJUeSdQkY2Dy/XN0L9cU9M/XCFgxMT7XlUzfzL1ehd+0A1E2l8KOsO+HANY8W6Pxnu0/z6vjE+QnzskC7DY2w/txvaJQMuIq91qhnHQnHcxvRV+86VIotmH8by7vpb1gWW2DIMyYZg+GpnyeB2Lvoa30dubqXweXfn6H3XHM4iG8rPEiABPQToNjClUECJEACJJA8ArJgok9s0dOMSvDI5XYG3lLM0Vl3tB4ZikH7VqOfOrpHEYzJFo6IcTwmzpEUmIcI6NMJS/M74oBfTyQpkyQqtrgj96zTmPdT8kzk2STwSQQMbZ6P2KNe/9Ow1BAvFA/+xtwJDlh96ikUOfOgeIN+mO3rhGZfqXp+dgQ+dm4IOHYTr0WciBwmYj4Zi5dbqTwoovHvBluMn3UQN6UTTPKjcpspWOKtEa6kOx5D49sxBFUmAnPuBKDRxqHoPjUYT6XYFPWhCjtJuNFW4GHIHEx0XIdzD6PxQZ8dcp9hGHOiOy6PcMPmS8JeIZ8WbTQIXpr2np2O5pbrUMI5BFuHfD5BSobFlpe4vNoNzv77EXpXCvXJiTwVm8HWW3jg1VIpzar5aLPKAc/df0WQFBIkGJZv6wJ/zXnUWYxyn5vNkym2vMR6q/rwKLoI5xa1MyBgU2z5pPs+01wUiyvB59F383NcixZht7lyoUbtSthsXRFmuVSDDL+C6tPewnF+CfxvwU0EhL/HexGeW8KsFFaO/QatkhCD3x/9B4XW5MRWvyr4n9MJbG/QBGe7a/xKq9v3KIq9828i8NEHfJDG0bAa9g8tgCDfi5h04S2iYv8PeUsUwyrnuuga1+cr7Pz9GqYdiULoG3GdNK7yJbDQrlbcORu89mLwJV3gprCb/gNmyc5aRjAQNuT+Iy8OjfwCs/zDcUAaY86cqFKnMnZosso088qBfM4EKLZ8zrPHsZMACZBARhBIhtiiCJ4MC4cIDN4tQnlKSoONwJoBllj0uhNmL7RDy6/uYt34YVj8ohdWrB+DmnKo0UYMtfCC6dQTWBzv/mLY0kTCiFZqtpsRrNhn9iJgQMx4tvxnNPqtGBbc9EcniYjiICbUG4ZD3zhhnd8gmOFfrBnRB7Mf98cfwZNE3gvVxvijHdYuHYQ6BRR4dPsSdp/PgQGWyuS014R3w89LgJ5Ll2J8ffFp+ekZ+IyyxtY8E7EvaAzkfccniC2yQ4MBO3TFlpe7h6Pl2FOoMWU15nQvjzzR4dhhNxC/XWkJv3M+sJAHKoktq/AoTxl09xFjbVQSJg9PYq401uKuOL2xnzK06rAjGgzeirKTD2PHiKwgtgjT183C8Uo90a2uGQooLmPFsN7wutMDm05PR/04zgF4ULgmBs/2wmBpHv/bg2mjp+F4FXeErO0NtfamdSOdnYYmPTYgfx9/rHX7ESWNiFhC+AK0/2EDGm47DTe5c32HkWKLnjAio0OnstcTIV2tvbj5MBrvAQaPqQXnqsLFNOoZ3H2uYGXu8rg8oxpkv1FZDLmPe1/kxoBR4rwaeWES+QSu0nmFKicRFvQOfrMOwb10XYQPLIaIncdQ5XAh/OP1DWqpLVW3/2U+jBtYExPFOJ6cuYSWq58jV/5c+Kp+NWzqWQyl3jyB83zdPt/hz51hiKpZAe0q5MMXz+9hgudlrCtSxcC4orHB6ziGxZRH+JQqKCbGYBQDSWwJeIEv8hTAzInfok+pL6C4H46BXrcQ2qSebBsPEkgtAhRbUosk2yEBEiCB7ELAaLElFIu798OWCjOxU7iWxH37UoRj07iBmHPmLXLk+IgirTywZnprxOXQNeSpYoivvgS54twvqvSGx9xxaFFaM64pu0wS7cwQAnpztszBJNvdwOid2G+vTJp637cjWiwqj8UXfNFWvVGWN8P+qLbiCha0ugqPFh1xqIeB3BqKPRhbezQe2J7BtmEa23GtNkRHaSq2hMOnXUus/W4Njs9pHu8poRpb+Nhj2GUtRBNV0uA8E7VtUWzujxq/msYLUBkyYSnvNFlhRCd/xfdWYRirDiczxEZ4QjUVnlA9DIZxCY+i3ZPRe+IO3ENRfNNlBKbYD8L3XxtSXRQ45WSOvuf64OCeCUohTu9hKGdLThQoXhJSGhpDCXKNTgqccuRsQR8BObznCiJ+boHDHaT8Zqrj0XXUd7iLb21aY3U98W+yGHIX+bpqe6S8DzmFAsJjZV1AA/QyRPhNGFpZ30MjtRfJm5toM+4/1HT8Ed7qEF5V+6X7tMTBturkua8xe+oxTP1QXjwOqitFH3HIfa7MgZWrv0cfA30+33sCJXflxf5FtUUuIu3j+YkzqOavgNv8JhgtKbbGMpDEFv+X6DnOAusb5Ihr9Oy6Q2h6sRjOz67JRM+8y1KNAMWWVEPJhkiABEggmxAwSmyJxEn3YRi/vyxctouqRXEFgcS/e47CxD+i0XywCF24uwmb9oQjbzt3rJ5uAfk0A2JLkE0DuByLZ2yuDk3Sd37MPYQs+1Uk3n2Kdr6BcGxgzKffbDJ/NDPtCOipRoTcZui3bDWcWwqPDlXP+vNenIRzvV9wus8+IcpUVXmuvECVn0fDeUI/NJUTRKuOizPQost+dEiwGVeKNHs6qKrhpKXYotiEQVUdkUtPfg8t+1QCVBvxFdw57vO3sEMjdMlAepC0m6dUbDlZYove+QhCAjZI2sNENiH6PxxfvwCey3bjyhOgyqjfscOxPjRWitLSl+vQp54rMP0sNuhP1qIiYqgaUVkMU6015mxJxcWTmk3duoyqbs/QKy6cRt14JJzs/8H2+t/j+i/iF1YWQ56is8sPmKNWPaRTZQECiQoft7YfRY0TX2Lv5IoqweQ9Vvv8g2UV6uDukBLKDg20L4f/oDre2WtIfUb0aXBcb/5DL7vr+K9DY5zqovqUYywDud+PWLaiEQapw6vE0C/+fgjfny2q7amTmnPEtrIlAYot2XLaaTQJkAAJpIBAkmKLqCQk8g0M2lEUtqsXw6p8vNARJa7t6BGLidsWoLvKlUXxOBD2ljNwu9sG7JQy3BoIwAmNxwAAIABJREFUI4p5/gDPY6RxB8Ot83zkTkxskc2LwsahFvAynYoTi7uySkYKppyXGklAdzMdvhidLXxRQri6L++mTkygFESW/6e/zXgPAeG98M8qeE33Q9Al4YJfsQ2cls7DL9XEVtqgUJGOYksiyV0Tii170E5XGMryYovIqRM4H56LtuHyg1eIlPLqyEe8cGEoXAvGii1xS0j0tXwwrGZexQ8rzgrPKG1xOdy7LVotq6ztSaV3+SUt8lBsMfJZkN6nGRQu9Ist3XVFmSSFjyi4ixwt0+/pMSx3UWz2rY+uknChElt02zdKbIl9g2P7QmF/4DnuvIpF5Pv/p+qsiI4I9A5bFhzFwGciSa86PEo601gGBs6j2JLeizZ79EexJXvMM60kARIggdQjkKjYIoSWgKGwXgMM8F2BIXISlvhD8k5xyzkLp3Uy1l6d1wkDjrbH5u1jxBezUHh36YOtNWYj2NNCj0giykcrM/Qqk+4mEnYke8Pc7o8NO21EXgweJJDGBBIIEKrwjQOtsP6YqBwj3w4KbOlvhulFluOSdyujBqR48A+WOIzE4uNmmCZVkglPXc8WZbWkAnKCXKNztiTLsyX7iS3hIlTsp7nRIqfOCkxuWVEOwdEf1rUV5hvPwb2x5lJIWvRIuHAuwd28C/Z3Vnk1xZ1wBi4Ne2Ffuy04Mb1BEust6X4pthh1y6b/ScZ6dRgQQ5L0bAm9iPLub+DoK0J2RKnxuCM2HD+PuIF81qqQnE8WWz7iT9+/0e1iPsy2r4PhVUyR14CAogwfegf730QlJJVDjTweYxlQbEn/9ZmNe6TYko0nn6aTAAmQwCcRMCi2KPA40B6W7hHotmoTbHSEFqmvfbYN4fTOOYGnyVn31hh5pQ92bxgCKY9upKiI0s7rCXoGbIZDLd2cK8aKLRHws+yG5V+74ZhQZRhI9EmzzYuSQ0Cft8dLsYFtYoewAfGbYNnTYH09DQHGiE5kcWMxqsseIiLBbs1h+HekTk4Xo3K26IatKLB3bB2M2d0oeWIL7mNJR3P4VlyiXd1Gb86W7Ca2KNnMLaFdIlkhvHm+nRiGwWovH0M5W6QSzSPDYX08CKONzRWsOAKHRgNwbZgqV45qSSVd7jl5Ig/FFiPu1Qw55R4GjriMy+10qgPpzdnyFMn1bDkcEIx2D8vrSVT7EYELg/HLq4rKv32y2KIc/6kfVeFOKoayt8mevPGeLfrCh+J4G8mAYkuGrNDs2inFluw687SbBEiABD6VgAGxJVL8e3eXf9HC0w+jdYWWnPlRtHgBUXHECW1sj8NswkJ49vwOhfEcl/6cgcke51DVZbvwVFEnd4lEkG0vuB0FKrUbDNtBraBOWfH0hj9m2u5ESS3Plv1o7CNKqlZUGRUdgYOLXOFz+AO6inwGzvUptXzqdPO6ZBAwEFqj9HLIC6fTWzBQymf7chdGNhuP05WGY/acgagpfyl+jOvbjuNtzzHoXOo+dvluQd6mvfH9NyVFlZ+HOO0/FKN8C8BR8mwREUnxnhNLYdesrCj0dURZ4SexakQ4BPvvBuGgqIK00rcfvsn1Elc2T8Cw387gxYcW8WKLKsfHk0Hrsc2xFmJfAUWK5FEmR0W8gKA4OB4Nh4bI1YjmW1ZHnrfXsWWCvmpERogth21Rd8BOVHDKGtWIgm2+wYgTLTF302/oUAa4G7IIk2Ztxc3b+dFbS2zZiJdlK6D3NG9Yi7w+sVfWYWz/WbjWxAchfp2VlZp0jj3ug3C+ZD+0a1dDrsCCJ//Az2Ua1t9qhAVHRcWruIvChejTSghiiZV7/gSxRU81IuQsgOIlC1LUTsbjIrVPvSXyIn37xwe5GpHrd/nFI+WRsspQgmpEyRRb5MSzV/HY8gfsb61Oehs/+vdnzqKkrwIeCxtjxFNlTpjkhxEpk+i6ohxCJlVFQ9NYnD56GdZ/ROHqywJYLifRVYUP3f8aJ0USW80UUOrRGMWAYktqLz22lwgBii1cHiRAAiRAAskjYEBs0U1gq9VoKXUoj/B+OeYL59+24/LDNyKgIgdMi5nBYpQ7pnYtr/OiHoOw7QvgseEvXLkjnSsdJshX+CuUrdYMvzg6oqPYxCjDiNaK7+yahzivwvfoa++KEY3jsvMmz06eTQLJJWAoj4lCJL81/wU7v52LowHdlRvoZ0fgY+eGgGM3IafzMMmPUtV7wHWdKyy+FGLLuAFwO3AHL6I/yOs+f9WmGOu5BMPqqdOfKnBr83iMnn4QN6UGxPWV20zBEpEvqZJaW9QzHsXFxRgwYjHOPYzGh5x5UL75RMwZ/wS23cNgow4jEj3+t2M0BjvtR3g0kKfLQlzyaZ9AbFGaMQtjJ62La694g36Y7euEZuoiSYaY6OZsOTsdzS3XoYRzCLYOMdadI7kTlPrnG0yQK+bXw9oWq089Fc8uExRtNAhevo2wtbkbSm6TvJPEWCQ2fV9h5tY6+H2oGw7cFnOibx51hn1maS84+4vkoM9eK5+L0jXmQ/Hrb2PQUrMikVwieg9+SrTcs2bjRoYRBevhWG44dgkxXTKLR0YR+IjQkHOw3Pgc16I/ArlyoUbtSthsXRFm6kSwnxBGpCWmaIYQxZmp9Ci53skcp2qHf6LYIqoTPbiNgfNvIvDRB/FsyokqdSpjR+/36O8QBRtZbBEhSwOv468EeE1hF5eDxggGFFsyaoFmy34ptmTLaafRJEACJEACJEACJEACJEACJEACJEACaUWAYktakWW7JEACJEACJEACJEACJEACJEACJEAC2ZIAxZZsOe00mgRIgARIgARIgARIgARIgARIgARIIK0IUGxJK7JslwRIgARIgARIgARIgARIgARIgARIIFsSoNiSLaedRpMACZAACZAACZAACZAACZAACZAACaQVAYotaUWW7ZIACZAACZAACZAACZAACZAACZAACWRLAhRbsuW002gSIAESIAESIAESIAESIAESIAESIIG0IkCxJa3Isl0SIAESIAESIAESIAESIAESIAESIIFsSYBiS7acdhpNAiRAAiRAAiRAAiRAAiRAAiRAAiSQVgQotqQVWbZLAiRAAiRAAiRAAiRAAiRAAiRAAiSQLQlQbMmW006jSYAESIAESIAESIAESIAESIAESIAE0ooAxZa0Ist2SYAESIAESIAESIAESIAESIAESIAEsiUBii3ZctppNAmQAAmQAAmQAAmQAAmQAAmQAAmQQFoRoNiSVmTZLgmQAAmQAAmQQPYicG0WWrb3x109VrecfxvLu23HsAp2gPzfCU/aMaQiJmEuwgK6K/+orz2T/ChVvQ1Ge7njl2p5shdfWksCJEACJEACnxEBii2f0WRxqCRAAiRAAiRAApmYgCyOBKHZ6s0YXUV7nHmKlEaRPJ8itui09+QfrF3ghdUhUajusB6brb+DSSZGwqGRAAmQAAmQQHYlQLElu878/2fvzgOiqv73gT9fjQL3zC3LfUntk5qaaagZamqipika7qigaCKISqACKgSKCCjuu2ju5pobZCpppuaS+0pYkgsqLpBj/X7n3jsDs8KADA34zF8ld+4993XuLPeZc96H500BClCAAhSgQO4KyGHLLnT4/gB86hrbdU7CFmP7UyFptQva+V5E941HEdg4d0+De6MABShAAQpQ4MUFGLa8uCH3QAEKUIACFKAABdTTfvIibJGwzyGkVSesqj8XJ2Z34OgWXn8UoAAFKEABKxNg2GJlHcLmUIACFKAABSiQTwXMHNmSNvEQQjsYnuPusS0QbKtfs8V0ePOzbyP0+bEbNsdPxHv5lIzNpgAFKEABChRUAYYtBbVneV4UoAAFKEABCuStgMmaLXYo/VZp2EGZRrQ/s1Y5mB+2nA9phc7zamL6jSUwUm83b8+dR6MABShAAQpQQEeAYQsvCApQgAIUoAAFKJAbAiZXI/pEHYjkVs0WpbEMW3Kj07gPClCAAhSggGUEGLZYxpV7pQAFKEABClDgZRMwcxpR9pZ+zmIa0aEe2HbAF0br8b5s/jxfClCAAhSggBUJMGyxos5gUyhAAQpQgAIUyMcCeRm2qI7Az/5LbG2+CGci2+RjNDadAhSgAAUoUDAFGLYUzH7lWVGAAhSgAAUokNcCeRa2qHAmpD16LASGbo+DN4e15HVP83gUoAAFKECBLAUYtmRJxA0oQAEKUIACFKCAGQIWCVt2oMXydRheUzn+nXMbEDNjObZdBlqH7cX8bm+Y0TBuQgEKUIACFKBAXgswbMlrcR6PAhSgAAUoQIGCKWCRsGUhbmpp2RQrjcpNvoD7157o+o5dwXTkWVGAAhSgAAUKgADDlgLQiTwFClCAAhSgAAUoQAEKUIACFKAABaxHgGGL9fQFW0IBClCAAhSgAAUoQAEKUIACFKBAARBg2FIAOpGnQAEKUIACFKAABShAAQpQgAIUoID1CDBssZ6+YEsoQAEKUIACFKAABShAAQpQgAIUKAACDFsKQCfyFChAAQpQgAIUoAAFKEABClCAAhSwHgGGLdbTF2wJBShAAQpQgAIUoAAFKEABClCAAgVAgGFLAehEngIFKEABClCAAhSgAAUoQAEKUIAC1iPAsMV6+oItoQAFKEABClCAAhSgAAUoQAEKUKAACDBsKQCdyFOgAAUoQAEKUIACFKAABShAAQpQwHoEGLZYT1+wJRSgAAUoQAEKUIACFKAABShAAQoUAAGGLQWgE3kKFKAABShAAQpQgAIUoAAFKEABCliPAMMW6+kLtoQCFKAABShAAQpQgAIUoAAFKECBAiDAsKUAdCJPgQIUoAAFKEABClCAAhSgAAUoQAHrEWDYYj19wZZQgAIUoAAFKEABClCAAhSgAAUoUAAEGLYUgE7kKVCAAhSgAAUoQAEKUIACFKAABShgPQIMW6ynL9gSClCAAhSgAAUoQAEKUIACFKAABQqAAMOWAtCJPAUKUIACFKAABShAAQpQgAIUoAAFrEeAYYv19AVbQgEKUIACFKAABShAAQpQgAIUoEABEGDYUgA6kadAAQpQgAIUoAAFKEABClCAAhSggPUIMGyxnr5gSyhAAQpQgAIUoAAFKEABClCAAhQoAAIMWwpAJ/IUKEABClCAAhSgAAUoQAEKUIACFLAeAYYt1tMXbAkFKEABClCAAhSgAAUoQAEKUIACBUCAYUsB6ESeAgUoQAEKUIACFKAABShAAQpQgALWI8CwxXr6gi2hAAUoQAEKUIACFKAABShAAQpQoAAIMGwpAJ3IU6AABShAAQpQgAIUoAAFKEABClDAegQYtlhPX7AlFKAABShAAQpQgAIUoAAFKEABChQAAYYtBaATeQoUoAAFKEABClCAAhSgAAUoQAEKWI8Awxbr6Qu2hAIUoAAFKEABClCAAhSgAAUoQIECIPBCYcu1a9cKAAFPgQIUoAAFKEABClCAAhSgAAUoQIGXWaB69eq5evovFLbkaku4MwpQgAIUoAAFKEABClCAAhSgAAUoUAAEGLYUgE7kKVCAAhSgAAUoQAEKUIACFKAABShgPQIMW6ynL9gSClCAAhSgAAUoQAEKUIACFKAABQqAAMOWAtCJPAUKUIACFKAABShAAQpQgAIUoAAFrEeAYYv19AVbQgEKUIACFKAABShAAQpQgAIUoEABEGDYUgA6kadAAQpQgAIUoAAFKEABClCAAhSggPUIMGyxnr5gSyhAAQpQgAIUoAAFKEABClCAAhQoAAIMWwpAJ/IUKEABClCAAhSgAAUoQAEKUIACFLAeAYYt1tMXbAkFKEABClCAAhSgAAUoQAEKUIACBUCAYUsB6ESeAgUoQAEKUIACFKAABShAAQpQgALWI8CwxXr6gi2hAAUoQAEKUIACFKAABShAAQpQoAAIMGwpAJ3IU6AABShAAQpQgAIUoAAFKEABClDAegQYtlhPX7AlFKAABShAAQpQgAIUoAAFKEABChQAgQIatlxCZBdnxLZZja0etQtAN/EU/jOBS+sxNuov9Jo5Ek1s8qIVO+DRxB8IPIbITnlxPB6DAhSgAAXyUuB8zDCE3hqAhWObI08+VvLy5HgsywqcD0brjrvQ4fsD8Kmb00M9RFzgV9jxvymY8UWVnO4kW887H9IKnXd2wLYDvshxs6Ujnl8J929uof/icWiWZy+ecwhp1Qm7PtuB/T71snXeL8XGCWdRZ9JddJ/8MYJzfDn9jZ0rT2Fj1TpY3LJEnrCd/vZHfHC8DH4Jexf1X+SICVfRe+3fGO5VDx+/8iI74nMLqkAehi0p2ODaFiEJX2Dx7vFoYFHR3Albdng0gX888EbPxdg93niLExc4oduCa4B9II7p3R2rbsdjjrcfVp5rIO6dI8F7Z4t2umV2HjsOzb9OwvCtK9C/gjjEpUh0cV6JP9OPVgi2JSqjUW9PTBhkj3Iv/OFvbtiSjNMxEZi2Kg6X7qThX9Eem6JV8UEfY+1Q4Xb8HPhNXY9T6dtWQI2mAzBpek+YjiOV53n7rcS5BobXtz646ngQHN0247V+mYWcymtzZQagejf2lnuNqBKwxW8Mwg/ewBMVUMi2LBr09EeoRzOUzuKqkV7DS6fPxdajV5EkPVl2luw6Ypj3CLQor+xA816RsTv1ddHVDWPc26HKC18Xlrm8s7dXM64j1W3Ez/HD1PWncCdNvipRtEINNB0wCdN7KleaSatcew1l76z+8613eKCJ9EGj96iY2etI8z5UqBF89i1AD2PfTVVxGO8wDrGpFdFv9VZofncw8Lcpigo1PoZLgC+617T9zznyfwNUSNo/HZ4+MTiRlIp/pFdBsYqo3XIYQub2k280d7nXhscf3vhhiysq5ukJK20b/tVCnPlgBq4s6a53dBWurRuF4ZNjcfWxCoXtqqBt4BJEOFVXh0IPsdypIaY88caBHa2w1L4L1jRZhDORbfL0LKzvYMfg37Qn1lSfgqNr+qKkJRuYK2HLZUS274hl/1uMX2d8LLd2s0s1jI3TarhNMVSs0w7Dw4Lw5Tt2L3xG5octD7Gqd2P4X3PG2qOT0Vj/yN8PR92Rf8Dr4FYMze6LZ7MLanr+YHAubw/LKkTJj2HLHXh4nMDC8jXxh28NvP7CPZjJDnIlbHmAqb5HEVXlPdx2e1M+2Oqw3Rh0Ruu4r7yCKm+Vxrih72FIpRdPNbITttzfdwRvrUzFUL9PEKn/pfnoMRSf9wyTp30EzzKWhH6BfV86jSpBSajd72PsbfvaC+yIT82JQN6FLUlL4Oy4FIl2ReA4ezdMZBc5OQcjz8m9sGXmhTeQ8k8rzN3nZ/imj1MIbT8UcSiBe3U8tcIWFRK2+GFkyEHYVSqLa9eqWe5GMpfEuBszBeSbnL1oFrUQg6pJz0lFYuw8TImOw6Pmwdga/qm4Gl7kYU7YclMEl30RcqY4HAaNRb/OtVBGasfh9ZgbvRFnS/bBsrUeqKe+wU/Z44UuvidQued4jO3fUL3tNqz/rTLGTOoGKUMyeMgBxUiEHLRDpbLXcK1aFmGL6gB824XhtxIiRcl0RJny2jzfaxv8HbSPaovX33wduX+rlyJu7jshMLEDpkWMgr34DL8VvwQTAlbhcc8YbBphOmpK3uGFnoGHgOod0Mu9JzrXkj5FJWdht/MZOs8di1ZqY/kG9m9PbNM6qbsno+HvvwvJbcOxN7hVvv8FO+vrKAV7vLrA90Rl9Bw/Fv0bCq/URBzeth6/VR6DSd2UK83QSnoNLUP40l249poI5GOC4ZBVCvYiLzFre64Utswtj6iFgyC/pagfhYuVQbniJlI6+X1oJ/5+4x7eHhSHxb0N33VSNrii7cIEvH7vNXymH7ZoX6t3T2JFeBg2ni2JATGbkMlLwtrkrLI9D7cPReuRP6Nq/8nwd/sAZfEECQc2IOZkdUwI7Z3H4YoWkeoa1nv0x6S9RVDlzcu4UtMwbFHFjkLTwftRd8JyTO9YDk/PzYa7uBGtEvYDFnV7Q+zsCPwafYnTQ+KxbehBDKzlh1dmnhd/KxBpcs6vJ+H23lexwN/vwefEGvSxZNqSK2GL4anKYUuaH36c3lH5451fsGDKZKw5WQpDt8fB+4WGo4gBKeaObPkzGp0/moMbRYqi+8qjCDRIW3LeTSJRQs2wCli8bgRqau3mleLlUL6E+hqWjt/7IabpjMDJh2HLiRMoPS8ZeF4MIbOawbXoC7hl9dRcCVsMDyKHLarquDxUCV/w4B5mrL6KhTdewVj/VgjM8SgaZXfmhy2PMW1iPEL+Kozi9g2QMKBsViJW9/edc/ah70kgrWo1y4dvVnf2/32D8ixskUeA7G8Lr0orMbdwEA6Kmw/LPXIvbAmx/RSNfjgI25A4hDrofaE4FYr2I5PRsH4sYl/RuhmVbjy7L0J5nzC4PwhCc3lWCEe2WK6/83DP8k1OrMgTMn4plo6eHDMAn0YUw8TD0ej6Qt87sw5bEpc444t5aeizbC08NImKhiBZPL+7Py50zBiNtcerKXwfeiFucW+zgyCV+KLRfVF5+IS540FQc/gjs7BFhQO+7TApzQXdkqIQ+2FmI1v2wKvpBGDqUYhcKg8eiufziYcRrdUx58Id0f9QR6zbNALVjbUiUYTDX8xDWu9FWO1VP8sQSA4QjBjJx9nZHPONhrV5cPq5eIisryOpb33x0Mv4zb+mKaaskHYa05xcsKGCD/Yt6GH2tZqLp/if7OpadHc4xbYxfS0aa5X8PvQz/vfpY+y54ojN61xRSWc7ZSTputc/QVrseZ33K6P+qiMI6DgSxz5bge1iKDQfORfY7loTox9MwPF1Ay07wiGbTZSClLZRFRA4byzu+9XGWOiHLcqolbByc3Fidof0cDghsj3arPpQGWUg3wjvxGc/7cDw37/GBy4PMfXUHLR/oc+8bJ6I1W2uwu6RDeFdeAyGXpyCvV1EEOWe3SEX2TgpS4Yt+teE6iDGfdgfR7ptxYGJ72WjkYabmhu2yNfbno7wq7YQ4YWjcnXU1JUwB3TY2RG74sbqhC3arX24vCcaL35fb7pTfgtb/sWWWXEYVLgqxty8iq3N7PFzl2Iv1H+ZPtmSYQvq4G9vrVTl+S24jj6NH5o1weW+UgCc84fZYctfF9B43D10/9IWMzb9H2IWNMJnOT9s3j/z+U30cb+AV7q/jd++vYdeM+wxzlpH4OS9Tp4cMY/CFiX8+Pnz7VhedSYcpPAhLhTa2YX0BXB+9SWYajcL41coQ9BtStdBV+9wjPm0XPoHv3nbGQtb0nBl0ySMDd+PRGnfYspFS68ZCOpaxeQvzsqX0omYZhsm30jFhTrobHs8qC1Gp/jCO20cppi6GZWHiDNsyZOr2RIH0e8/E2ELjgTgk5En8Lk6hEk5vwZhQTH48WqSeupKJTRzD8IM53pa11AyjkSOx6Q1vyJZJaadlG2A/qEdcdYlOJOaLcq1vaHuNIPrUXP6crC5sqaYNhMMKdKUr+PH3tkKW7QpTd4cqzeSRzwE22Ly3oH49YusaiVJ4cd8VNcLqyzRdco+jyOorRsuDdyD5X01wyVUiBvvAJ80H8SLqX/G7hMO+LaE13FHs6c8Zhq2ZBbqWO7Ec33PWV9HSrD12DuHYYtosUq83uz9b2HI5nVw1U0Pcv18rGWHlyK7wPmam8E01Ezbp3kfmuaI+HH70FbfK2UNBjtswofT7LF9nG44bPxaTUbMgE8RUSrr6YLW4mat7ZBHCDz2zzRskbdJv7HdhCFVx2C//glVHppxw5d6Ed+OcUPw7gSk/mODYrXawG9+FHpWV797HZ+Mlk4xKO+3Hxtcsr7R1z2+5sDb4FbDE4i8gvmOWo05PQWtuhzBlyJgGfKzC+qvdcARMVXmTzFSweVpOA5PbmKtXZE37VKJ/qszEcUWnIXnbyIo+L4jYneNhvaP7pJ3ZO0NCLcLxch5J3A79R/YlP0fnPwXYoJjBfVnkHJDf2XkYXT7uS/8tl7FY1Vh2FVrAY8ZczGkkXoqj7GwJavrw0DCMDwwfk3cw+JuTfDN65pgLgF7QvwxY81R3HggTZGzQZn3eiFw2RS017rvVV1bi9GDA7HvuthGTEeq0eUbfF1qGobszapmi9Ku+N7x2FRjKhqJyzFMP8yTpwIB028sQTfpvKT/n1kTm9fWx3LncdgmjlnC+Vv8EtzM4KzlwOfSaCPT56RN/8TaIV0RsO8ulAnDyqP1zOti5Jbaq90SjBU/oCp9I6YHlv0AA8Lnwqfli9305/qF+jwBn7teRsmRbeF/4xDqHiuD88F1dH5YkkaNTH6rEZa9dgVffv8Ifz77f3i1ZDG4ODfE9GZF8arcqGT4ev+Cc44t0PfiCQw/+hQpz/8PRcqXgv/QRhhdSz2Vx1jY8uw+Fs07g7EnU/H0n0IoIUYuT/dohIFvFjJxusqxNjX+ABe+VL6rySNb9MMWMbo4MuAAxhXThDCPsPXb85h0MAWXnvwjrslCKF+lPGaNqY+uWiPMnt26jgEzr2LLX2IbMR2pbtNaCC16HV1OZl2zRQ5lzlXAFf+i8BGhBVwdsKqJ1nkc+gWvLQSWLv8AzlLDpf//rgh+8i2OuSGXsFocs/THDXHTRT3vXEfgX/xx8jwGLr2F+AeibYULo2KNN7Fo5Ltoo2m/7PsUPjPL49eIq1iS8AzPpPOsXRFLtbczIftMtKfUisLYsKAmfvU9jE1NmuN4d+3RsJp+bobPT5+CZ3qflcGirxug7q8n4LTmPs6n/ovCr9rBWYzYXNREM7Xwb5zYfQ4jdifjt3vPRbuU62PqsCYYUV0xkv12pRm0ruPQ9viuhfTPljfI9ddYNneYN2GLNAJk6FUMleeWi1EfLb3xxCdeFADNuM2RvgAGniqJ8vUGIXhiJ7xtex+n5nhj3OYn6Dp/O/waK9uat51h2KIZDdB12iyMaf0G7u2fga/G7UXVqVvFL+zGJ35ovpQe7noADj5p8IkXo1M0TZbnw/ujcNBB2G80/qu2usH/x46wAAAgAElEQVQMW7J5UVrV5maGLXLAsehtBB8NhzxgQxTWjTxaBZ071Uf1YipcWDUaQ2ffhONizRQ6FY4HOcJtb3n0C5gKl2avI/XyFkwYHYWTD/9Fc1MFcuWbqDAUy6yA7rlwOPbfj3aa4EeaTiDe8BuOXoSovjWzHKWh759p2CKPpJmOopP3IrjV9awLU8vtX436eRa2AIkr+sNp9mM4ql/7N2NGYUj0A/RcvAoj9EcGySevBDSHs/Erv8lpRJMPo+qE9QjvlP/nxcjTUjK9jtR1uS41xOhFUehrov5HpteT+vq21RuJZFXvCbncGCm0d7utPQ3VjAOkh77RsJvQDdvtdUeTKSNJO2B7wCO46o3EMz6yRanvcrn3OjG1zuhYLzMaxU0kgYereqOp3zk0Fq/7xUPegbFqF8ZvbNV+98TNe+txeOT9M9YOkG7iEjC3UxtEpPbE7OWT0K7MHeydMhAjt9XAjEML4Sh9IT/ggyaDNqDS+APY7JrDsOXydLRrt02EBfqFV6UwSIQJi88i4mUvzWLkEpf7WxRxWJ0+8mct7PUMpf72+eV1VGg4HJEhX6Cy3V0cDxuGkasfo8eaeATJlV6VG/q198ugfLcgzHJvgjdE328ePQDf/PIOJh5dD/lyMAhbzLg+DNptZtii2oWRDYbjosse7PWuJV3diJsTjUcfueCTd0VIlLQH/n3csKWiVq2ae8vQq+lU3GwzGdEh3fAOEnFInOuotb9D9ZZL5gVyj09Cc6dLGClPxYrF6HpueBykN03NWNgy5Tbq2d7Dmy5h8O5YFSW0pwVpnfvPvo3QJ2mCibBF2dD4CBzFa+kfNqjca7aoxdgSVV9Jwv6QwRi5thwmWXrqWDbfWuX6ItuKIDayPprfvYgPxyShjV7xWinIGHLFBpWqVcLKwZVQ7dU0HNlwGr1+/AeDxn+M6HrSjbJyE77o8at4u3ltxHR+Q0yLfIzV805h3JUiiJjZHMOl9x+DsCVFTLsRoyX/Lo+1Y99F55Kp2BbzK3odLYLlM5qgp9EpTWaGLfIojbM43fZDnHEqJQ4uCutuvYKUelXRoaoIie7/gdGhvyGmtFatmodX0MbzGq7Xr4k1LpXxP3EOseJcnQ+l4Vnpt7IokCvVvvkV5zortU6k6Tg9ntbCAzHaRgmkxMNY2LLmGd63UaFSuzoIbFoMpYoUQcUihkHT/cPH8M68h2jQqwEWtygGu2fCd4Hw/f11bJ4tRtBIeZbs+yf+ePU19B9WH351i8Am+Q4Cos5iaakaWUwL+hsLgn9E0Fvvy9OfErfGo+aBUnrnrNjPuv8qGrStjQWdRD+n/ImhUy9jT2EblCr6BuaPegctSz/DwTUn0evQq4jQmpp2et9Z/PDmW3CuVQolnycjKvwE/O6Uw37p+jO4dv/F8W8PoeWRktg1owFaifOzvEE2X0AW2DxPwhbpy+Rw8WVS8yvyqdD2GHp1qM5QcfkL4Ik2mKYz4iURC5y6YdGbgenPNW87/bBFCni8cKXfZqxL/7lU+XV7XOIgbF/tYrRuRcaX0uJyQHTXYx8WqCsRquLGwyG0NGaLYr83TUwhkPuLI1sscNnm4S6Nhi3aNVvu4vK2pQhZdAi2fZZhrYf2yBXtdio38NeGqH/1V4mQwt4fD0Zpj7jQ/LIfbzpsMTWyRvtQ6uKZ1dIDmTScXjAcnovO4NGrYoRNT1eMcusIc2thmr45ThaXd3dElZuB7X6NxW9cZkzfk9u2CnfEd0uVSl1AteoH6OMdANdmlgokRA2ltV9hwPRjeFqoEP4t3QYhKyajrclqxllP5dK/Ag2LvkpblMFH46cj6PP3YKr0Rh5eyblwKDOuIzEVaMFwTyw68wivVmqGnq6j4NZRN+DLfKSUYn890yLLuXAqVrQL2eOoDWxUKvkXVamAc22HYQia2NV0YWWt94Feh5zhuFZ8UUsvPC99bn6BY07i86r+UoNpj/rBYGriYayfHYX1v4tC7pvEDwqWehlakbllm5KKE5F94Br1q3i/rQL7AaMx3uNzaNcYNR22PMR215YY88ALP4lpSPLv5VI9kMEXMfTH3RilGS6hvglOGJmzKStGj29yeooy8gbyL/yWlct/e1emXi1tpCmwqhR3nV17jc6IH9n7SEdE64zSSEBUh9aIrjgDv4lCxTbqsGVREQ/dkTHqvv6tv/oY+v2Uo+vDRNiiVbPlacIBxIR+g1XXmmD6fjGKxMTgDXnaTWRNrDrxDT4UHSiHFeuaYtnPYWiR/nuqcrxF0BqtZaSzpTCkvwhDFA/xs8ekpnC+NEq36LCxsMXzABoHasJJ01eR3A8HM95rC9uVR53PPDEzpBc0g8QyC1sM+2atXLfotdl6o8H+0wv5b8yduh+RNTQjRHRvtjVNk0eNXCqDdXMao2t6rdkUBImRD0FiVoESJig34TPE+5jOyBh14HH8E/Ux9MMWqV5M5FOMmdYCfprBHOrnXHE0NaXJRNiiVbPl8V+3MX/9dcxLKoGloWIUiYnaSPd3H0YFETbtnS1u5sUJyyMr4ktiZ0RDtEk/V/W54e3Mw5Zzp/B22DNMWyCOJz1XKjQb8hR+2nVwjIUtC++jhXNLxLbPrLi04j23an1cc30zI7zRt5J9b6JoV90RKc/2/4ziYsRKzBIRYJm65p6IoMn9D3yoCdueXEW7r35HPR/tQr9qCxHcJE2omV5MWQ5mNv4/TNLpx+voNPgSbNJHpRg5sGQWKozmiDBOP1hLOIf3Av9CK29NoJcHBv/p61E5uOXDFnkEyAQ8+WoN/Fqq33lPR8HZ7zbc4hZDU9dP/gL4fCIOR3fVGdYvD7EW89lXb/WQV00xbzu9mz4TN6gpawbDIbxkxmgEvQ7RvimQA6OEYeqASPkFd2GNhfIqRZnePDBssYLL/AWaYDRs0V6NSFlt5WOXAFGnJ7NRI3rXpN7ok/QWyoWk56CsqZEr6gK9rVdsh8nSCgZhi7J31aML2LdkDhasP4LEZ8XRyu9bhHbNmKJnSsnU9Z0sbLrPr4I5G73UxXjNCFvE7WTChQtiuGp5FHvdDqn3b+B4tD/8d+mOYHuBHjN4avKRUAzz/A6pLQfBpeZNrF27CwlFOiBo+WQThViNhy3ye5HWMkraq8UYGqnw6IIoAuwVghNvj8XKBT31amrk5hnm7b6yvo6kc9+HJXMWYP2RRDwr3gp+34aiqzrcYtii11/JV3DmQVGUef118SXnPv68vA0h4xbgZA1v7BJ1loxmH9qfaRWk0WJLUVszak57JGmSYY0p/WCwkG0JVG7UG54TBsH+xZdTy9uL0YqPpkr5TfwKGoao5YeQ8KwE2nyzE7OdlCkjpsIWubiux59wjRM1UdTBivGbP+UmP7hUFC4u6JxtBYYt2SYz/oSECHT8+Ds0W70KQ9T99XD9MHRZ8b/08EF6ouytChGrFvfS+X6r27dKILGznWF9FJ3+0gtbcnZ9mAhbtFYjKmxXClU/HICvvxmB1m9mUpRHJ/xQYX2/2vjaxrD4cpzHu3D9tY/pkS1yqDQaj7/ehSBNjQER4HT+6i94nBKjejQ31kbDlkeYqL2Nqe69dxEn7xVD2TKlxftqMm5e2CCKWEfgeF3/9HAzs7DFsG+sMIiU64vcRqtxjeCpDjru/3gKTX8olh4+SDxy2PJPbTwaXy3jJl/8u24dE+UmfH1Dw/ooOlN89MIW47VQlBBoTLG6eDq6spEeMhG2aK1GVPhVG9QWU2dCB9dG+9KmpiOJXeuEH/9iWeheuBXWq/0iNpNGqXS79mYmYYtS+6Z/ajWcEFOAlFdBMvwmncefXVuLIEW9qo/RsOU5IoyFDdpn/tx0cGHMt7P/x5iuPfBU/7hGVK9tEtPIDpcU96rV1NPInmF51C+YX1V7WpOJfja6fzFFbYCYSpVZ2GKyhk8y/McdE+HSu7jp/pZy3eWBQS6927/QbiwetsgjQMSc8VQjzazumjHSxNQXcKNhi5H6KLrb6d30mVhaU2mS6SVnddokfYEdfAq9tq+GS5ENcG27Dk02KnUFGLa80DVo3U82cxqR/kmkXfke86MWY/v5O3h8/0n6HOD0G3STIVwWoypyMI3IAFhannfaMHhuscWwjeJ6zqI2htHrO3kLRnSdizcCFmB4+lSc61g6dBR++igKCwfVRLEy5cwc0aEewfZ2MI7mdtXcFOHZKQTPPTciors6WBLnv8XbCVOud0sPcXWNjE8jUj26jbuPpYVclfM80i5j6obJ9wCxHHZbt8P4LLNwzLpfAaZbZ8Z1JC2dPW2YJ7bYDsNGMYJQutTMmUaU6TS5/OqVjXYrn5uX0XudWB3I2KwenR8QlPA/skyYXHheGjk6Mnm8UtPJyA8NmYdd2WgkNzVPQCWmG/g7w22tHUarQxSjYcdDUTOlhSf+HB4rCqxmVPwwWJJX+6gOxpZvzrpZRo+f6TSicShsVb/eZ32OebGFXMx15iUjhyqCDvNPYra6crCpcM1Y2LLrM8NliDMLW3J2fZg5jUj/zMS1/MvyaZi67Ef8ce8hHojaM8rjE3UNFdOFZLMqkKva7Y5Gbt8bvVeo5bkf33uoXxNGwxatGi7Z7HjluBcwYK9YcUnMlMosbDHsG+sLW+Sb6y1PjCgURo+vMmqNGK+HYjxs0a6jotlxZmGLwZLN2q15zzD0UP5s5jQi/TN7/gTxey7Be9993Hj0HMmi9ozyKK2uoWK4X80usiyQqx5hsuFvI5xvaY32MRq2aNVwMXVNZlJYODPf9N1lGbYoo0Ym/2GkAa9pj2oyYWRW2PIcZ+Mv4uttf+GEqDlzR9R1UR62GKM3de30ugNoFlcMGzTTo6TNLG6QzTcEC21u4bBF+RI4r8pc7BPTDLQfcjgSn7GKgqnii/JqHvvb6Y5sMVLsU3c7Y6MIjqG7FJQYXefWuK7ul1Jln/GOmxH1yng47mqdvgIEwxYLXZ3WsNuchC2alWy6TkPEKHtUlueQmDmyJcswJfsFco0yqkRY0nwKXsms9ov6iUav70wDTOmJFdEvG3VZLHYDKLUzsLDh6DV5ZNEhdDR6M6sSgYA9/G8NMbLKi3RuhiN4TLbfxCgja7i0c6UNZlxHqi0j0HzKK+krsmXW18litGGHsFQMy+Z7da6cizXtJKvpgnp/lwsLh9giJK4T9jn44Z9A9ep5DFuso1dV0nQDH7FMsjIVx/DmWz196A837NkxQqe46pkp9uh2xBkHxL9nXY3FvNPNfoHcH9BFfTNq3hFehq2Owb9pT1wYcVLU1tGez6AS/VsXk4rMTl/VyVTRZLlv93ZSj/ZQgoqNLfSLu+qNFtEb2ZKz6yMnYYuYeu/RWIy6qoevV86Bc8PSSj0iM0e2yPVSDvUwMbJFmX4VUT3GoLCtHH7s754xtSqXwxb9Gjj5O2yR6oucwG+faY26kF+K/4qRLPsw8rV6SPrqbXlEgXwzn6Y7bUTa8njMj/govWischO+op5+cVe90SJ6N8zyPi6KgrJT3snGiN6chC3/itEpP6Db6aKY5t0QQ8Xc+CLSSZg5suXAkji0O1fe5MgWufbNd3bYpZ6OlP6uJp/vffTTTK/JadiSzVEd3fXCC4NaMfpvu9KUp6An8NEfYaMuoFzUXRO+5TxsuSamGv3vO1HnZ0RDBDUogVLpNWbuQqe98vShW2g08hMsb6Q1KsnSBlbyUWTZsEW+cdQa3qx90okL4NRto1hiTSkYmlktlpU1w9OXijZvO72bIXkqkw/ujtiFxb3Nn5Cuf1MgFx3cVxedsAOXO2zHanVyw7DFSq5mSzQjB2FLklia2XFOWd3lvtU1Wq73UY+GSJFGR00DxEoimjpAUvM1I8EaZRKCZHfpZ6MsyTEY8Ol8vBV+UBS2zRzO/CDEnGlExo6ljGxZ12C+QSj7wl0qVkpq6vs3/PSX5JZHnJyFs4mbepX4u6PbLtT01RoRk94Y88MWpT/Po0c2gqcXPue83IEZ15G8LPr8t3RXxzK2ept62fJTjYKxVYxwMl62PC9P7r87lnLd3MUIram2Oq3RD1HUBdufOzTF0bjXEKReiQwMW/67TtQ+8r2F+KJxBCqpi8zqhx3Gpg9pni7/8u5+B96aAqm5cEbGwxblhjekTEZIIB1KZ+nnXDh2gdnFEbH0dZ/rGG2kOKrSZ8nwUf8ts5otC99ZpF7eWF3XxETNlvT6PHphS86uj5yELVLB2iE4qakdo+5IOZyYVzN9dSCpzkqvXR2UpcIz7k7l+jRRT03UbHkoiuo2mIM6G48iUPd3WXEBSlO1VqOp5m+5HLYoI1vE60s9DSlfhy1yfZFUTNKuJ6Lug2fHjqPCHBVC1H/LrGbLjLf/h2QxzUMz2sRUzZb0+it6YYtyrGcI0hTQNetFn5Ow5Q8McP0NP2tqx6iPo6x+UyR9daDDy39A6xNv6BVsVY/6eGaqZosy7SmkUiO5sKzuQ3nugnfUf8tp2CIK9U6bGI+Qcu+mh2DycYzWbNELL6TtshjZIoVJHZKqGCmgq0yP+vJRNfXfchq2KO2fWFJ3tJK8+tHCpxidHg4ZmT6UDmpZA7MuvTzYyKJhixxObGxsYvlU5QZrY+PF6XVPgk7Ywa6uGyKmdkUtu/s4EjUa47YAA2LEUGqpYIt4SDd+WW9neDN0Kbo7+i5PQwufUIxtriwwLhUG3JZQHR49GxqlNrjJlAOiBbhWqBF85JWVMtokLQ19TCwja/BgzZY8uIwteIgchC044CuWFT8O+ykL4df2TeBWPJb4R2Lr9UQU7aaZeqISm7WD10+1MXrWVHStJeqXXN6LkMlR+OX6Y2QWtkgjK1b0d0XU5eJwGDERw9pUkn9huntyBcLDNuJsyT5YttZDXUflGlZ/vQyPWzuibX1lu9TEWMwOiMIh2wGI2TRCroWU2eNFwpYksRJQl6jf0SFqPyZ/BFxb/TWWPe6Inp1rifKxcmOwLexrLDr3P/hbojinShTHbieKTdYejVmhPfDe66Ly+ZmdmDJe1FKp5Y9N4jVrPH5V4Vx0HwxemogyH/WG+1AnNFTeNkST9yDcdxZ+76w3jehvT2zzd0inlPpjeuh6XMis9oYFL93c3bUZ19G11fh62WO0dmyL+pXkKw2JsbNFxXxRPHpAjFjlRrnS9Au0StfA4W0xWLrmJ9ytNAiLV41QX7u5ewbWubdYzBz1G6r07Yzmspn0Op6HKZO/x/PemRTcNghR1AXfY1PxRk/lM1V+MGzJ426/jKVfzcWjT79Ax0ZV5V9ZnybsRNiYUOy3c8N3cWNRV/ybTtihnj50bcBWseJLPSPtPYcwhy5YmPoJAuYGoJX8vf8JEg5swPVavugjrbx8wAvv99+Kqr4vsBqR2I1KLPPcrst6VJywHNM7lsPTc7PhPmw9Sk/KuvhoHkP/x4dTYffIhhh192vd4q2aVsn1R0Yi2e84VvcpKff3hCNFYFd/NBZF9MI7Re7hkLySjSh9sF1MX5EuCnWB3FV3i6PC52Hyijdv4wJWu4vViM5+iAjNylMGhYzNuD4MtHIStvwpVsWyR8T/jcTaFe5oaJeKk5vHw2/mcVy50xAhmqWYE6LR2WEm0nrNUZ+DWI1ogTcCVlzFX2WM12zJPNBTCgl/23S9UnQ4x2HL9wge+Cuqu/ZAyypK1c47x8Lh470F/wzejJ0+78k1OeTVpSbdRv9vv8O4957jkfiGUNrO1PQoa5pGpH8Drdfp8g38Odx2UlbVkcKW4ZcKo2jVKvhuWBX8zzYNsfJKM8BY/1YIlGdtKTfh81JewVvN6mBtj/KoigdYOFtaLackYjQrCxlMBVFurqc/K42okXXwqbRoEJ7j2uk/cPGtd+H2jrGXb07CFuVGPQCVsX9sLTS1fY6jh36D+3cpOPewOBZplmL+S6zI9HUCnrZ4V30OYjWiHefg8cNT/FHCRM0WufbNLbTw0y4km9FuebrWjyWUACfHYQvwTBQTfjvyvrwa0fLWpVAk7QGWS6s9GaxGlM2wRa+/9cV1w7echi3qujcXX8dy8frpLj6bfj91GUPW/oVzfxXGEHXYokwfMr0SlcUM/uNPCe3DWzBs0Q1TjJ2zPAJgaVX5F89H8oo+ozG7+o8IXH8Kd9L+hU3p99F7cig8tFYpUW78strO2C/sojDnlinwmxeHS3fSxKC6QrAtURmNhgcjqqfx203Dm8wkLHF2xLxiPoYrKTFssaLLOhebkpOwRXxAHYkcj0lrfkWyWF5Ecx2/v7UrwsovxlYP9fUmal7smeGFsC0XxHbiehSrt7gHDUHSOBckDD8mlkbP7DyScTomAtNW6V3PvT0xYZA9MupcJmH3ZG/M2n8Dt1Ok616z2slQBPh2N2tFohcJW1K+c0f74Iv4LCIWE0XYknJ8CSZ8E4MTv6dAvMQFTlFU/aCPRYtzSnVD5vh9g02/JeGJ6A+zVnuR6VW4Hb8U0+duxuFLd5T2yu8bJVGhenN8NtwbLo2VxFW/6Ki8pTmryuTipWrZXZlxHSXtxmTvWdh/4zZSZCxhVbY2HIbqFo82sCpkixLlqqJF7zEY2et9rWvXsmdkHXu/iR2TfDD3x6tIki5OE2YGbTU2zUgd8mYsLy+exbAlj7v5T2wb74bpu8WN5YNUSBUtlBVPRmHaVOf0FYl0whb55vEHw3ZW1hoFoLqG9T4emLnzPG5LdTIK26FU9abwjFqGPtKN+vHJaOkUg/J++7HBJevJRpktPX1v90S4TFiLs3dUctsbDYvGEjF9JLM1NfIY+b8/nF6YYqxBckHYK+7y9K+fpQK58MWy2nsxbvkJuQ9tyn6AAeFz4dNSs8yP+oa+3WyMuDUTQXuv4rGqMOyqtcOkxVHomb5cTjBad9yFDtrLS2d1fRg0MCdhi/hEvLYWowcHYt91cW2La7BKe38sHH8XHh8fh4smbBHHSj2xECPGzES8tJ1NGbzbewrmv7cKLWbXNTKNSC9MMYL555xOaDW7Bhaci4JDjsMWsYz2mJGYufsi/nwsvdcK2wp10X5UGKY4ay/RLrYTAdek3Qni5wI7dJp9DpEd80HYksXNtcQqF4S9VUme3nNQmkYkSqbufOsuhsQ9wp+i1smrJUvgq6Gi8PZ7mle7+ia8YT34JN/A2FNPkfL8/1CkfGnM9GyEgW+qp4MYq7vx/CGWLf5NjPB+Iu8bhQujdLkSCBjeFG4ZJam0ejsnYYsIK25dx4CZV7Hlr3/ENVkYNRvWwOZez9BvXAo8NGGLOMrTy6IG2sIE7JO2e+VVNGpZCxuq/oHq24sZnUakE6YYe4HLS2onoo5HWyx/+gteW6hVoyXLWiq6O7xzRoyyXnQL8aLmiXQOFWu8iUUj30UbzexEU3VNMjmO/kgmw1NQRgVdkFeHeiaHaga1ecyp2fLwFnxnX8CsS8/wTHx/KS8KGC8dWQorxl7BW34fI7iKeqWjO4Yt6KhVZNcSBv/9B0VGCywYtmTvNM29oTN3u+wdnVtTgAIUoAAFKEABClAgdwUyC7cyjmS6uGzutoZ7o4C6ZgtMFavVCJkuLktDClDAfAGGLeZbcUsKUIACFKAABShAAQqYLcCwxWwqbphHAqZWI9I9PMOWPOoOHqaACzBsKeAdzNOjAAUoQAEKUIACFPhvBBi2/DfuPKppAYYtvDookHcCDFvyzppHogAFKEABClCAAhR4iQQYtrxEnZ1PTpVhSz7pKDazQAhYTdhSIDR5EhSgAAUoQAEKUIACFKAABShAAQq89AIMW176S4AAFKAABShAAQpQgAIUoAAFKEABCuSmAMOW3NTkvihAAQpQgAIUoAAFKEABClCAAhR46QUYtrz0lwABKEABClCAAhSgAAUoQAEKUIACFMhNAYYtuanJfVGAAhSgAAUoQAEKUIACFKAABSjw0gswbHnpLwECUIACFKAABShAAQpQgAIUoAAFKJCbAgxbclOT+6IABShAAQpQgAIUoAAFKEABClDgpRdg2PLSXwIEoAAFKEABClCAAhSgAAUoQAEKUCA3BRi25KYm90UBClCAAhSgAAUoQAEKUIACFKDASy/AsOWlvwQIQAEKUIACFKBAgRQ4H4zWHXehw/cH4FP3xc/wfMwwhN4agIVjm8PmxXfHPVCAAhSgAAUKtECehS1pVzYhOGAJfryahCcqYWpTFK+/1QBffj0VLo1L4FJkFziv/DMDu5AtSlRuhN6eEzDIvlz6h/oOjybwRyCORXYy7JgdHmjiDwQei4SRv2bSkck4HROBaavicOlOGv6Vm1cVH/TxxIRB9ijHbxQF+kXAk6MABcwXUN2OxxxvP6w818DIe20armwKRsBC9XupeB8vW9sRnuFj8KnWG6kqYQv8xoTj4I0nUKEQbMs2QE//UHg0K23QEOmzIyJkNfZc+B0padK7s9i+RGXU+bQ3xo/qgVpFxD9dikQX55XQ+gSRP2Mq1PgYvceNRt/6hvs1/4y5JQWyISCHGwtxU+spNsUqonb7UZgZ0gvV8/r7RC6HLbvca8PjD2/8sMUVFbPBUpA3Tb24GiETl2DHmRt4kPqPONXCsCtVFe92HogAn76oU7Qgnz3PjQIUoAAFMhPIg7BFhXNLBsN9zmUU/6g33Ic6oWEZ0aS7l7Ft/Qb8vy+i4NZA+q4swpa9zRC1cBCqSS1OTUTsvCmIjnuE5sFbEf5pCfk8cj9suYkNrn0RcqY4HAaNRb/OtVAGqUg8vB5zozfibMk+WLbWA/XM/YJ0wBctN9rjoLEwiNciBShAgXwroELCFj+MDDkIu0plce1aNYOw5e7qQei8GPjc2wv9pTf61ItYFxCAlX+1w/ztfmgsvY+m7IBHp0AkdpiGiFH2eBO3EL9kAgJWPUbPmE0YUVsDJD47ovtg8NJElBGfHYP6dkbzSnbShwcub9uBFZcrwn96f1SSNpfDlr1oFrUQg+QPEOUzZFvIOCw4WRHuG1fDRd6QDwpYWEAON3agxfJ1GHOGhh0AACAASURBVF5TOdadY/MROGElbjSPwv4FnVHSwk3Q2X2Ow5Y/MbdTbzwMy50RMXl5ynl3LBXOhHWC0+wbKNd6IIa79kDLKlKychsXNm7CwvOVEDrXFVXyrkE8EgUoQAEKWJmA5cMW+UvwKrzSbxnWetQzOexUDlti22D1Vg+kf9dGMmIGfIqIYhNxOLqr/NzcDlsSlzjji3lp6LNsLTz0E5VkcVPQ3R8XOi7G7vEiETLjcTyoLdxuexofeWPG87kJBShAAasUUB2Ab/dFKO8TBvcHQWhudBRhGtLSbGFrq3UGiQvg1G0laoYfRHAr+U1cjEB8jomHo9E1PcQ+h3DH/jjUcR02jaguP1klgut2Xj+hwcR1COuaMbrRqI38OROLNqu3wiPjA0TsZAtGNJ+CNO84LO6tBPZ8UMCiAibCjYfLe6KxeM1MPLUeA/Iybclp2PJwGXo1WIL3c2n6kUXN/6Odq2JHoeng/Wg8bQ/mOlXgtKr/qB94WApQgALWLGDhsEWFuPEOGHfSEYt3j0dmcYXxsAU4EvAJRp74PD2EyVbYcmoGOg3dgHKjN2OpcwUj/XAJkV2csaHuNMSFOhj9oExc4IRuK2si/GAwpPsE+SZADKNfOnUmVv1yQ54SZVO0AtpOnIDS0d74NlGZhqQ8KqKf/OU/BefXhCEo5kdcTVIPm6/UDO5BM+Cc1ZCZtCvYFByAhXGXcEcMoS9kWwJ1By7C8iHqGxJpSL/fVKw/dQdp/xofji+Zza++AovqroHb5F1ITCuBbvP3wa+xaKK0/0ljEb4/UTzfBkWrtoTXjCB0rWLuUB5rvrzZNgpQwCIC2ZmyqQ48Xgk8BnnA3/EgtHW7hIF7lqOvZnaPKg7jHXyQ5hMvtpHee5KwxNkR84r5YN+CHsgyJsk0bAnCa8FHxehIi0hwpxTQFTAVbhz0RqN+R+GkFV6obv2AGaPHYfnPd6EqbIdyTfpi2hxftHhDvct7BxE1JhBL4q/isfiuUdiuFKraj0f0ot5QBs2k4uJqL4wKjsVVaQObYqjRbgLmRmpNV9Jvj6n2bXZBTU9g+o0l+HDNYHSfGIe70pRvzcNhBq4s6Y7NLtUwFsp/q78RIWn/dHj6xOBEUir+MXYe8jGvYMTh7vjNNRDrzojzFd+4ynw4EGHa53t8Mlo6xaC8335scLH2SUrSyB97RBSfgqNr+po3WkmM9Pt2jBuCdycg9R8bFKvVBn7zo9BTM7fMXCe+5ihAAQpQIN8IWDhsOY6gtm44/NkKbPeqlymK8bAlEQucumHR28E4qv6mnK2w5acpaDN6G94auRUr+hsJW1LWYLBDGIppbgKMtfBcOBz770c7zS+mKXvg1cUXJyr3Q0CAE94Ro9rvXv4Fz2p3QWNxCFPtu7Q+EkerdEan+tVRTHUBq0YPxeybWYVQlxDdvS+Wp7WAT+hYNJdG5SceRkKp7vhE+vVW05baozErsBPetk3DzR3++CriEj4K3yt+RVYCE6lNM+++g9ful8eXASPRplIxFCtTDsVtEsUNzReYl9YV02aNQes37mH/jK8wbm9VTN0aDvXMrXxzMbOhFKBAHglkI2xRxY2Hw7hEDNoupvLIb8OJ4v3YCbMfO6rfd24iZtQQRD/oicWrRihTNtXvzbYTDyM6Y/iL6ZPLZBrRUu395hEPD/MSC5gIM+4t+hwfflMWEVcXwlHiUcVidKMh+PFdX8QsGChG9F7ECldnTLvdD9/FjUVdPMSq3o0R8u8YrJw3EA2Lq/DX9TPYfrIQ+jspxWnPhzng87lAj3nzMKqx+IJw9xiihrljg50n9uwYoUxfyUHY0s3Y89Rdqh+2PNw+FK1H/oy6E5ZjevcqsEtNwOYxA/DN2dZYcCIKDnJDpbBlGf6yexvdo0RbPxSjQJKOYIbU1nIBGWHFAR80GbQBlcYfwGZXKw9b5JE/gbCbdgnLnMz5cSpBhDNtEJHaE7OXT0K7Mnewd8pAjNxWAzMOiWtCGu1krtNL/PLiqVOAAhTIbwIWDlvENBxRsfa5GV+YDWq2SDVdloZg0SFbnSk+2QpbsuoNU7+Gaj9PXXixmjqQUUa6VMO0uFDlS4TeI9P2aW8r/7p7DUPiFsPU6HblJuU6+m1eB1cj9Qbktqyrh9nfB6BZelvUo4kSB2H7ahdI9zZymw43gPcucSztOpFSfRmvK7r7l39hHofEQduxWrkz4oMCFKCAroDZYYsSGK+vOhVbRWCePkJFlYC1Xw3A9GNPUajQvyjdJgQrJrfNKEZuznuzkfdpnQK54u+v1uyFEBEgt3pLe14TO5MCFhQwWrNlOsZ6bQeGb8Veb+WHpz/ndEKr2VUQfWoO2ms+vxMi0PHjhXhn8VlEtDmHkFad8OMX+/G9h5GqH6pdGNlgOG55HcPGIZqhMGLHOvsQ/2/RsCUBUR1aY+V7K/DT9JYZo4PVbUsYGY9t7iI0URcNtvPUPRfVun6o+7VtRgBlwW7J9V1nd3qWmHL03uCLGPrjbozSdOfL4JTr8NwhBShAgfwlYF1hi/ZqROqVJFwCfNG9ZsYX5dwPW/ai9YrtMDnwRidsUWHLiOaY8oqJ1ZA0wYap1ZIMbg40NQZUeHT7Lh5LRezlhy1ef/N1XAt3RP/97fTq2Gi2yaQtejdCstljb8Qt7q0zHN/4aKIUrBnsgPCSGaOJ8tclzdZSgAIWFzArbEnGkaAhGLW3Evw3iRXi0oNe8e+hw+D5XSpaDhJTF26uxdpdCSjSIQjLJztA3sxE2CK/l8VnnJ29ZlSise3T/sD++V+Lwrt30WHOFvg0MefXZ4vL8QAFXcDIakR4rTb6zl8Ov9YZdT0Mp+NIMEfg1+hLHHXeI0KZWuqRKw9Q8/Ph8BvdFx/JBaLVj9NT0KrLXnxmUFNFCWl2fbYD+31EsGPJsEW1FgNr+eCVmdexSB4Ok/HQOT91ANVuazz86utslD51Se/p1n+VmAhb5POOy2h+a7XN+ZBW6LyzA7aJH7kyVuB+iOVODRFcKgoXReFkpa92oEA5WX9PsoUUoAAFLCpg4bDlRacRGZ57roYt2Z5GpNR4iW2zGlt1qjBmtNN4+8RyqN/PR9Ti7Th/5zHuy2tfSw9NTRdlvxlZk728yocYFmR6mWtk0hZjYYuRAEj/xkVH2950oGTRK5I7pwAFrF8gy7BFrCQk6kYM3FwGXsuj0VurBlSKeG6nkOfw3BiB7urloFW3t8DbaQqud1O/t5qYRpR2/xbup0k8cQjsPBOvZRa2yIpKeBxmm1Fk3fpx2cJ8LaB/E54Qjc4Oc1A+7CcRSGgq4yqByKLfjZ/p28PUQYmobJL0yzKETV4glhW+j1eqtYPvvHB8Kc1f1qqxohtU5GHYksnoDsOwZRc66AdDJs8hH1wBJqYRpSb/geRUqf3fY7x9EGzVYYt+CKNzhup6OAbBmGaj/OyUD7qSTaQABShgSQELhy0qMYXFHv63hmDzOldliU4TD1MFcvU3lwOC58a/OKu2jEDzoNcQfFTUGzFLLbsFcnM2skWz4lHXaREYZV9Z1EoRjTNjmPy53BzZYiRskfd/rHv6dCOzyLgRBShAgUzDFhG0LBkM9xVA/zmL4aJXBFx6Dw8sbDhyTn4/OtQR6zaNQHV1mGy6eLkyRVWk0krR3UzeT+XPjOv9TIwQZFdSIJcFDAIIFX72tUeffW2wKv4bfCgPsFJhfb/amFx6Ec5EtjGrAapbv2DuODdE/1Qbk06sQZ+E3B3ZoqyWVFwukGt2zZZsjWwpYGELlFBrVf25ODG7g5EFFjZhSNUxgDpsOTPFHt2OOOOAqKVjshqNGcWL890IILOubm5EAQpQoOAKWDhs0SzfeRDvTtwiCh1qFwzRRTU3bEnZ4Iq2kTbw2yKWDdXZXbKY4tMVQSoP81avUB8+u0s/y+3cUDcbNVuUVTXmlNUdKaISNyv2/tfRR3+pUi0WZZtbGGKiZkuSWLbacWklvbaYqNliJGyRa8L43MUI/VouBfd655lRgAK5IWAybFHh9hZvOAUlotuytfAwstraHq+m8P3bD4eju+rcoBwPagu3s87p4W+yWBGlQ9gd9FiyDuPq69dcMTdsURdZfzMQ8SKV4USi3Oh87iNTAWM3zA/FjXfzMbjSXzNiRZRWiWyPNqsaaQUwZrjK4UY06sgjRESB3XpDcNFNr6aLWTVb9KeqqLB7ZEOM2P5h9sIWKCvyzKmmFzgYrUVS0MIW4J4IqD7y/wtfbtqNgEZaU7zkrtQNW1S73dHI/Q68j4qlv7VK7Oj0OsMWM14E3IQCFKBA/hKweNgCJCPOty989txHeYdBGNuvM2qJovliWR2c3vcb0MUF7UUdVnPDFqjOIbLXQKwSK/SMklfWER9wYl+xswMQpVdMFz9NQutRu1B5lInViOS+uiRWxnBF1OXicBgxEcPaVIL0kXn35AqEh23E2ZJ9sGyth7JChvRIFl/yu/vjVG1XTPPpDOXwsTj/al90agicCm2Pwd/Xge+qUHQukYo029fxq79YTvm4PaYs9EPbN4Fb8UvgH7kV1xOLolsmYUv6uYpxOoGBI9BQcrt7Ej/efx+9Wwk01QH4tvPCT9JqRFO7opZdKi5vmWB0NSJ/o3VkDFc7kpaSTDy8DQnVPdBTnA8fFKAABQwETIQtyeLfu/tfRKvQBRiuH7QULoYy5YoDomZBO6+fUHv0LIT2eA+v4z7O7JyC8SEnUMt/kxipoknRk7HDqycCDwHVOwyC18A28vut9Lh7eSGmem1FBZ2RLXvRLGohBlVTt1bzuXDgH3Sdv10sdc+ohVdyHgiYuGFOEAVxP51RBL6am+2H2+DWYhSOVh+KadMHoF5RqW23cWHjT3jaYwQ6V/wT2+asR5GPeuGDdyuIVX6ScHThYAybUxw+0sgWMSNJ2WeqvBrRmBZi7HDiQWWFn8xWI8KP8H5vIGLFKkhL5/TFu688xNl1ozHkm2N48E+rjLDlYQycGwXgzsBV2OhTH88fAaVL2xks/awShV+bDt4vr0Y006kO7J5ewPrRxlYjMiNsOeCF9/tvRVXffLAakXwp3ROrJrWDTyyUujpun6GK3I/AnXNR8B26DhXT69mcQ5hDFyxM/QQBcwPQqqy01RMkHNiA67V80aeJ+F+GLXnwAuUhKEABCuStQB6ELdIJSTVLIhEavRO/JT0RA2jFQxTAff2tj+A9+5vshS3y7q5g0yQfzP7pd6Sk/QsUskXZ2g4YFjQRXbVqA+DUDHQaugHlRm/GUufMVtZJxumYCExbFYdLd9LwLwrBtkRlNOrtiQmD7DNWyFD3jer2Hszwmontl+5AOrxN0apwitwATymcSDmO6DFfI+bXZKhsasN9lVjutNQRRI6fhDXSv4nfVku/3xuTQ9/H1q5hKL94K0yUf1GOlnYaK8dNxqJfbkAq9VLItiw+GrMUEd3U55Ms7TsQ609JbRHtLtsAPf1D4dEsY9hPpnVuxKogW6b4YV7cJdxRW5ao3AjDg6PQU1pemg8KUIAC+gImwpZM60BV1EzlEaNf4ufA75tN6s8D6X2rNhyGBWFi1yp6o0/EZ8emCISs/h5nb6g/O8QWRV9/A5XeaYEvfXzQ6W3ROHUhc93ViMR2VT9AH+8AuGq9H7IzKWBRAVM3zCpR/Nb+S2z93wwcWtIdcvWWewcRNSYQS+Kv4rH0xcimGCrW+QIBMQFwKCnClq/6I3DfDTxIlarn26BYrY8wMnQuhqSPolDh2rpRGD45FlelHYjn12g3AXNFvaTqmmzRSHtUp6PR3zUaJ5JS8U9hO1Rp6Ynpo+7Aq/sVeGimEYkj/r55OAb57kWCqEFi12UWzkR1NAhblNMIxsixMen7K9ekL6bN8UULzQgOc0OE45PR0ikG5f32Y4OLlS/9nH4RpeLi6mD4L/0Opy4/Vr7fSn31RllUedcBA6dOQbfKmi+P17DexwMzd57HbalPhX2p6k3hGbUMfaSqueY6WfQC5s4pQAEKUCA3BfIobMnNJnNfFKAABShAAQpQgAIUoAAFKEABClDAegUYtlhv37BlFKAABShAAQpQgAIUoAAFKEABCuRDAYYt+bDT2GQKUIACFKAABShAAQpQgAIUoAAFrFeAYYv19g1bRgEKUIACFKAABShAAQpQgAIUoEA+FGDYkg87jU2mAAUoQAEKUIACFKAABShAAQpQwHoFGLZYb9+wZRSgAAUoQAEKUIACFKAABShAAQrkQwGGLfmw09hkClCAAhSgAAUoQAEKUIACFKAABaxXgGGL9fYNW0YBClCAAhSgAAUoQAEKUIACFKBAPhRg2JIPO41NpgAFKEABClCAAhSgAAUoQAEKUMB6BRi2WG/fsGUUoAAFKEABClCAAhSgAAUoQAEK5EMBhi35sNPYZApQgAIUoAAFKEABClCAAhSgAAWsV4Bhi/X2DVtGAQpQgAIUoAAFKEABClCAAhSgQD4UYNiSDzuNTaYABShAAQpQgAIUoAAFKEABClDAegUYtvyHfbPDown8EYhjkZ3+w1bw0BSgAAUoQAEKUIACFKAABShAAQrkpkCehS2q2/FYOn0uth69iqQnKvkcbIpWQI2mHTHMewRalFdOSw4g4rVO0aYoKtT4GC4Bvuhe01b5w6VIdHGORZvVW+FRW5/jEiK7OCO2zWpsNfxjlnYpG1zRNiQBXyzejfENstz8hTbI1bBFdRvxS6dj7tajuJr0BLKwbNcUHYd5Y4Qa2Cxf7IBHE38g8BiM5UDG2p28wwPdo8phxnY/NLYRx1YlYIvfGIQfvAGpuwvZlkWDnv4I9WiG0i+kxidTgAIUoAAFrFTgfDBad1yIm0aa13rmdSzqtglDqo4B5P823GizSzWMxQxcWdJd+aOx/dkUQ8U67TA8LAhfvmNnpRBsFgUoQAEKUIACeRK2JO/wQs/AQ0D1Dujl3hOda5UR8qlIPLwN63c+Q+e5Y9FKukEXD/lG/m9PbPN3UP7h7kmsCA/DxrMlMSBmE0ZI4YrFwpYkLHF2xNJEOxRxnI3dFk5bci1sSd4Br56BOITq6NDLHT0714IsnHgY29bvxLPOczFWDWyWb3bDFtUB+Lbzw5OxO0Q4U0IcOUX0YycEJnbAtIhRsH8TuBW/BBMCVuFxzxhskjuRDwpQgAIUoEABE5DDkR1osXwdhtfUPTe70m+htF1Owha9/d35BSsjwrB8fwrqjFuFde7vQf0VqoBh8nQoQAEKUIAC+VvA8mFL4hI4fzEPab0XYbVXfajHpphUMxpAqI4goONIHPtsBbZ71bNc2JK4AE7d9qOtVyWsnFsYQQeD0cqC/Zs7YUuiCIi+wLy03li02gv1swA2yzebYUvSEmc4rm2AxbvHQxkMpIyMeT7xMKK7ZnwFPBfuiP6HOmLdphEiFuKDAhSgAAUoUMAE5LBlFzp8fwA+dY2dW07CFmP7UyFptQva+V5E941HEdi4gDnydChAAQpQgAIFQMDiYcsB35bwOu6odSOeuZrxACIZMQM+RUQpdX2TbI1sScF37u0RfPEzRMROxEeZHP5SZBc4//w5ti+vipkO0jSaOIQ6aP1eJB/3Ggbv7ITj7kHYe0NM1ylki0rN3BA4rV9G0CGm1DSZXx1Lptph1vgVOHUnDf/alEadrt4IH/MpymmP4tGp2aLC7fg58Atcg1+TVeZNvTngi5Zex+Fo5rQns3yzFbYoo4FWvzsf+/w03/aOI6itGy4N3IPlfTWThlSIG+8AnzQfxIu5SfwVrgC8e/AUKEABClBAVyDPwhbpsOcQ0qoTVtWfixOzO/BzldciBShAAQpQwMoELBy2KDfdhzUjUsw4eeMjL+Iw3mEcLvdeJ6agiDER2QpbkrB6UDeEX2+HqP2TMwlbTiG0/VBcHboPC3qUgBQSeT/RCwbk425GSuly6OgbgkENXgdu7sCEryJwsoY3di3urdQjkcKWwFMoWb4eBgVPRKe3bXH/1Bx4j9uMJ13nY7sIJaSwQf9cVSI4aef1E2qPnocZvWoAV9dizLAo3M1k6s3xoLZwO/wZVmz3ghjzk+XDLN/shC2qLRjRPAivBR9F+KcZh09c0R9Osx/DcdosjGn9Bm7GjMKQ6AfouXgVRtRj1JJlR3EDClCAAhTIfwJmhi1pEw8htIPh6e0e2wLBtvo1W0yPlPnZtxH6/NgNm+Mn4r38p8UWU4ACFKAABQq0gIXDlswLrRqT1a8pItUdWT87Cut/b4DATZHoJKUZ2QpbzOy/40FoO/w2POPFMaQs4FQo2g+9iqH7FkBkL8pDPu5K2LpuxjrXSuk7VsWNh8O48+ihKdgrhS3+J9Bmmu7ImMQFTui26E0Eqo+hG3yo68VUmoa4UIf0X6jk56ysKQrNGp/SlN2pSGb5ZidsORcOx/6H0HGdqKejMzdIhYS1X2HA9GN4WqgQ/i3dBiErJqOtZliPmd3CzShAAQpQgAL5RsBkzRY7lH6rNOygTCPan9kJOZgftpwPaYXO82pi+o0lMFJvN9+wsaEUoAAFKECBgijwn4Qt8nSdlX+me1bsl7FykP5qOYVsS6Byo97wnDAI9pob9VwPW5QpLhOefIU1fi3VQcdpRDn74bZbHBb3Vqct8nH3ovWK7ZBKx2Q89EIlOWx5jomHo6FVssQgJNINSkwEU1II5HYc3QzCDOXoRsMWdSiULlyxH1Zv9YBUltYs3+yELfK5SgsXiZBKSyT5SCiGeX6H1JaD4FLzJtau3YWEIh0QtHwyHKTALO0+bt1PS39G4WJlUK44R7wUxDcZnhMFKECBl0bA5GpEn6gDkdyq2aKIMmx5aa4snigFKEABCuRDAQuHLcanEake3cbdx/8IrutYOnQUjrTTC1t06pgYUc3tsEWlTFOKTTVyrOqu2LzOFfI4FpPHNRa2GAYQ+s/XCUr0AxKdplREP6PLXANGpxGpHuH23ceQhZcOxagj7XTDlqx8XzRsSREenULw3HMjIrqXU8IrsTT1Fm8nTLneTWmLHNJkrPGtHbjlw9cRm0wBClCAAhRQL9WcFwVyFWx5GtGhHtgmpiEbrcfLPqEABShAAQpQ4D8TsHDYohIjKezhf2tIRmChc6qXENnFGbFtchK2GBthIu38HMId++NQR3V9FzNoUza4ou28Kpi7zw86Bf3lACQejpvXQZ41JP//Nnw4fx/Sa8HKQYJUt2QKXgk8JpY+Fv8vBwmP4R23GJpBMXIz5Ck3+9FOHZzohC3yPsJQMvwggrOxBJJKHMve/xaGaNqod77yKKLYNjkKW/RXE1J2rcKWEc0R9FowjkpFWoyNbJFr1hRG8NFwaJVxUZ+/sSlHZnQSN6EABShAAQpYu4CZNVsw8zoWGZn3s9mlGsbCzGlEYqVGP/svsbX5IpyJbGPtMmwfBShAAQpQ4KUTsHDYIm7NxTQYR7ddqOmrNcohnTmHYQukYraDEd9+BTaK+Tzak09UItD4ov9u2Ju5Og+QgjWDHbC09mLsHq8sXJzxSMQCp27Y2Fj9t0xrtiRi0PbVcKmgCVtM1GzRqr+iOwVIfawGGQV0zboaVWL0kKMbdtX0xcaI7ukrHWmem7OwJQUbXNsi0sYPW6K7KkV/NY9kEQp1DYLKQykkLIbWiGlOZ+GsOXdpuz1eaOr7N/z0p1EZ29ask+RGFKAABShAgXwgkGdhiwpnQtqjx0Jg6PY4eHNYSz64ONhEClCAAhR42QQsHrZIIyHORffB4KWJKPNRb7gPdULDMgpzauIehPvOwu+dszmyRTw3WYye6O5/CpV7jsfY/g0h7fLuyRWYHroevzcIxCYxxEQJCZKwon8XRP3ewfhqRIkL4NRtIxqbCGfkArUbGytLV8thywbcL1YWHQLC4N6sInB5A8aL1YguNQrGVjHSQ67uIo3sCDoBO7u6cIuYiq617HD/SBRGj9sCDIgRKypJ1VMM662kiJCii+8JVO4XgACnd0QhPemkLmPbL6no4tIeUo5j7KE6F40+g5ciscxH6O0+FE4ZwNgT7otZv3fO5sgW0WvnItFr4CqktRiFgJFtUEk0JjUxFrMDonDItg+WrfWAvKhQyhoMdohGee0ROaoD8G3nhZ9qj8as0B54TyzadP/MTkwZH4ITtfy1+uZle7nxfClAAQpQoEALWCRs2YEWy9dheE1F7s65DYiZsRzbLgOtw/Zifrc3CjQpT44CFKAABSiQXwXyIGyRaFS4Hb8U0+duxuFLd5D2r/RvhWBboiQqVG+Oz4Z7w6WxUoTW/NV1pH3Ogd83m/Bb0hNxBMCmaFV80McbAa7NtEZjpOA79/YIvvgZImInGiz9rBOmGOvFpCVwdlyKqlKYUEEKW2LR+pvBSJofjoM3xHEL2aJS67GICOqKKpohNuqpNaNnV8ePgetx6k4a/rUpjfd7T0aoR0bbjJ1r8pEFCAhbhV+kfcvnVAE1HMdhzthWSpBj4qG6HY+l0+di8+FLuKMAQyouXLJCdTT/bDi8XRrLzzffV9SwvbIJk3xm46ffU+Q+K2RbFrUdhiFoota5ijBribMjVr87H/u05lZJ7Znj9w02/ZaEJ+JEjD83v75s2G4KUIACFKCAEQGLhC0LcVPrUDbFSqNyky/g/rUnur4j/yzDBwUoQAEKUIACViiQR2GLFZ55TpqUaWFerR2aWKEnJ4fMD8/JMrDKDyfBNlKAAhSgAAUoQAEKUIACFKAABXJJgGFLdiAZthjXkldz8keazw5RIDiz8TfZwea2FKAABShAAQpQgAIUoAAFKECB/CnAsCU7/cawxaSWXEMnqhxmbBcrOmlXLM6OL7elAAUoQAEKUIACFKAABShAAQoUAAGGLdnpRIYt2dHithSgAAUoQAEKUIACFKAABShAgZdSgGHLS9ntPGkKUIACFKAABShAAQpQgAIUoAAFLCXAsMVSstwvBShAAQpQgAIUoAAFKEABClCAAi+lAMOWl7LbedIUoAAFKEABClCAClWkNQAAB95JREFUAhSgAAUoQAEKWEqAYYulZLlfClCAAhSgAAUoQAEKUIACFKAABV5KAYYtL2W386QpQAEKUIACFKAABShAAQpQgAIUsJQAwxZLyXK/FKAABShAAQpQgAIUoAAF/n979xta11nHAfyLGK12tjiHG0LXWKRj+KJifeGoq5LOgWw2tHVhhm7ghpsaJdh1bVjRtnYJa1kSoky3zlXmMHRlTtJ1sPVPKNYycUXYmwl1SMcFkVlbKJYFLwzvvUu6tiYgo+e8OPdzXt57z/Pc3+d3Xn15zvMQIECgLQWELW3ZdkUTIECAAAECBAgQIECAAAECRQkIW4qSNS4BAgQIECBAgAABAgQIECDQlgLClrZsu6IJECBAgAABAgQIECBAgACBogQqH7acmehL9+jCDB4aysqOohiNS4AAAQIECBAgQIAAAQIECBB4V6DyYUtSy57edXl22ZN5efMyfSdAgAABAgQIECBAgAABAgQIFCrQBmFLUn+xPysemZdHJnemy+qWQh8ogxMgQIAAAQIECBAgQIAAgXYXKCFsqeet47/Kw6O/yaunzqeejsy/7pb8aN+O3PLRJv9U3nj+xxkYO5ZT5+tJx/x03rwhw4PdWTwTjDTCki88sSS//uWN2Xv/T/JSbSoL1jyRw1uWX7j/wZGjqU2907i9MzdvGM5g9+LGTNNX/cX0r9iebD2esdukLe3+0KufAAECBAgQIECAAAECBAgUKVB42HLu4IasfujPuf6ubdnWc0M+ktP566v/ydLVy3Ndo7KTj63N+qeT7l2P5tvLPp6cfS1PbtyUiXnfyW/H78miZvXNsGX0dG748Nlc+81t+f6qRbnqqmvyyY91pLanN+sen2rc/7M88JVP5F9Hh/ODTYfS+fD+jNy6YNruXPbe25XHrh3JsaGVRXoamwABAgQIECBAgAABAgQIEGhzgYLDllp296zJM5/elcmdXe+tNJlBr09mc9em/OP+g3l6/dXvtaK2Oz1rnslnRo6llY00w5atr2TZxpfy1J0X/S6/z0ONVTBv3PW77LuvFcs0rnomN3dlU+1bOdAIa5qBTvN6feT23H1i7SWftXnvlU+AAAECBAgQIECAAAECBAgUIFBs2FKfSN9NO/LB7Scar+/M8u9fH8ntdx/NV8f3p3/pxd+fzNjq3hxZNZ79zS9aYcu/s3Hyqdw5s1il+fOTY1ndeySrLrv/3N570zWyMEN/Gsmt08P+rbGCpuflL2d8f38umaoAVEMSIECAAAECBAgQIECAAAEC7StQbNgyRxhygbsVoiTbT4zl0ixmtrBllt+17j8+R/dWXDru9L4vwpb2fdhVToAAAQIECBAgQIAAAQIEyhAoNmy5oitbZglbWitjTmTtgfHcM/O+0BxqVraU8TiZgwABAgQIECBAgAABAgQIECg2bMm7K1Seu3GOPVtm3XOl0ZRZ92yZJWxp7fkykNN9l+/l8r+Nbe3Z8oevZd/zfVmi7wQIECBAgAABAgQIECBAgACBggQKDluSM43Xd9ZufS1L79uVga8vapxG9HZqR/6SD62/LZ9r5ioXThN6NN/74qeSv/8xP5/tNKJZXzeaOc1oKl8a2JkHb7qmxfR27ZW88OaS9N/RnKF5OY2ooOfHsAQIECBAgAABAgQIECBAgMBlAoWHLc3Tgd46OJwNowdy8p9TeadxJtH8zp6MPffDVtjS/P7NiS15oHHy0Knz9aRjfjobJwwND3Znccf0v51zb5eZ+3dky+OT0+N/IPMWXJ/Pf3coP71jeivc6RUwZ/sPZ/c3Lt5h1/NAgAABAgQIECBAgAABAgQIELiyAiWELVf2D7+f0eqTm9M1cDb9h3dH1vJ+BN1DgAABAgQIECBAgAABAgQI/L8CbRC21LKnd12e/ewvcmDL8sa6GhcBAgQIECBAgAABAgQIECBAoDiByoctZyb60j26MIOHhrJS0lLck2RkAgQIECBAgAABAgQIECBAoCVQ+bBFnwkQIECAAAECBAgQIECAAAECZQoIW8rUNhcBAgQIECBAgAABAgQIECBQeQFhS+VbrEACBAgQIECAAAECBAgQIECgTAFhS5na5iJAgAABAgQIECBAgAABAgQqLyBsqXyLFUiAAAECBAgQIECAAAECBAiUKSBsKVPbXAQIECBAgAABAgQIECBAgEDlBYQtlW+xAgkQIECAAAECBAgQIECAAIEyBYQtZWqbiwABAgQIECBAgAABAgQIEKi8gLCl8i1WIAECBAgQIECAAAECBAgQIFCmgLClTG1zESBAgAABAgQIECBAgAABApUXELZUvsUKJECAAAECBAgQIECAAAECBMoUELaUqW0uAgQIECBAgAABAgQIECBAoPICwpbKt1iBBAgQIECAAAECBAgQIECAQJkCwpYytc1FgAABAgQIECBAgAABAgQIVF5A2FL5FiuQAAECBAgQIECAAAECBAgQKFNA2FKmtrkIECBAgAABAgQIECBAgACBygsIWyrfYgUSIECAAAECBAgQIECAAAECZQoIW8rUNhcBAgQIECBAgAABAgQIECBQeQFhS+VbrEACBAgQIECAAAECBAgQIECgTAFhS5na5iJAgAABAgQIECBAgAABAgQqLyBsqXyLFUiAAAECBAgQIECAAAECBAiUKSBsKVPbXAQIECBAgAABAgQIECBAgEDlBf4LhSRtL97W1h0AAAAASUVORK5CYII=;" vertex="1" parent="1">
          <mxGeometry x="180" y="1056.3" width="438" height="207.41" as="geometry" />
        </mxCell>
      </root>
    </mxGraphModel>
  </diagram>
</mxfile>
